G04 #@! TF.GenerationSoftware,KiCad,Pcbnew,5.1.4*
G04 #@! TF.CreationDate,2019-11-19T13:40:08+01:00*
G04 #@! TF.ProjectId,lamp,6c616d70-2e6b-4696-9361-645f70636258,rev?*
G04 #@! TF.SameCoordinates,Original*
G04 #@! TF.FileFunction,Legend,Top*
G04 #@! TF.FilePolarity,Positive*
%FSLAX46Y46*%
G04 Gerber Fmt 4.6, Leading zero omitted, Abs format (unit mm)*
G04 Created by KiCad (PCBNEW 5.1.4) date 2019-11-19 13:40:08*
%MOMM*%
%LPD*%
G04 APERTURE LIST*
%ADD10C,0.127000*%
%ADD11C,0.200000*%
%ADD12C,0.050000*%
%ADD13C,0.120000*%
%ADD14C,0.150000*%
G04 APERTURE END LIST*
D10*
X46559885Y-141746742D02*
X46646971Y-141775771D01*
X46792114Y-141775771D01*
X46850171Y-141746742D01*
X46879200Y-141717714D01*
X46908228Y-141659657D01*
X46908228Y-141601600D01*
X46879200Y-141543542D01*
X46850171Y-141514514D01*
X46792114Y-141485485D01*
X46676000Y-141456457D01*
X46617942Y-141427428D01*
X46588914Y-141398400D01*
X46559885Y-141340342D01*
X46559885Y-141282285D01*
X46588914Y-141224228D01*
X46617942Y-141195200D01*
X46676000Y-141166171D01*
X46821142Y-141166171D01*
X46908228Y-141195200D01*
X47169485Y-141775771D02*
X47169485Y-141166171D01*
X47517828Y-141775771D02*
X47256571Y-141427428D01*
X47517828Y-141166171D02*
X47169485Y-141514514D01*
X47808114Y-141775771D02*
X47924228Y-141775771D01*
X47982285Y-141746742D01*
X48011314Y-141717714D01*
X48069371Y-141630628D01*
X48098400Y-141514514D01*
X48098400Y-141282285D01*
X48069371Y-141224228D01*
X48040342Y-141195200D01*
X47982285Y-141166171D01*
X47866171Y-141166171D01*
X47808114Y-141195200D01*
X47779085Y-141224228D01*
X47750057Y-141282285D01*
X47750057Y-141427428D01*
X47779085Y-141485485D01*
X47808114Y-141514514D01*
X47866171Y-141543542D01*
X47982285Y-141543542D01*
X48040342Y-141514514D01*
X48069371Y-141485485D01*
X48098400Y-141427428D01*
X48446742Y-141427428D02*
X48388685Y-141398400D01*
X48359657Y-141369371D01*
X48330628Y-141311314D01*
X48330628Y-141282285D01*
X48359657Y-141224228D01*
X48388685Y-141195200D01*
X48446742Y-141166171D01*
X48562857Y-141166171D01*
X48620914Y-141195200D01*
X48649942Y-141224228D01*
X48678971Y-141282285D01*
X48678971Y-141311314D01*
X48649942Y-141369371D01*
X48620914Y-141398400D01*
X48562857Y-141427428D01*
X48446742Y-141427428D01*
X48388685Y-141456457D01*
X48359657Y-141485485D01*
X48330628Y-141543542D01*
X48330628Y-141659657D01*
X48359657Y-141717714D01*
X48388685Y-141746742D01*
X48446742Y-141775771D01*
X48562857Y-141775771D01*
X48620914Y-141746742D01*
X48649942Y-141717714D01*
X48678971Y-141659657D01*
X48678971Y-141543542D01*
X48649942Y-141485485D01*
X48620914Y-141456457D01*
X48562857Y-141427428D01*
X48911200Y-141224228D02*
X48940228Y-141195200D01*
X48998285Y-141166171D01*
X49143428Y-141166171D01*
X49201485Y-141195200D01*
X49230514Y-141224228D01*
X49259542Y-141282285D01*
X49259542Y-141340342D01*
X49230514Y-141427428D01*
X48882171Y-141775771D01*
X49259542Y-141775771D01*
X49491771Y-141224228D02*
X49520800Y-141195200D01*
X49578857Y-141166171D01*
X49724000Y-141166171D01*
X49782057Y-141195200D01*
X49811085Y-141224228D01*
X49840114Y-141282285D01*
X49840114Y-141340342D01*
X49811085Y-141427428D01*
X49462742Y-141775771D01*
X49840114Y-141775771D01*
D11*
X21861904Y-106852380D02*
X21861904Y-107661904D01*
X21909523Y-107757142D01*
X21957142Y-107804761D01*
X22052380Y-107852380D01*
X22242857Y-107852380D01*
X22338095Y-107804761D01*
X22385714Y-107757142D01*
X22433333Y-107661904D01*
X22433333Y-106852380D01*
X22861904Y-107804761D02*
X23004761Y-107852380D01*
X23242857Y-107852380D01*
X23338095Y-107804761D01*
X23385714Y-107757142D01*
X23433333Y-107661904D01*
X23433333Y-107566666D01*
X23385714Y-107471428D01*
X23338095Y-107423809D01*
X23242857Y-107376190D01*
X23052380Y-107328571D01*
X22957142Y-107280952D01*
X22909523Y-107233333D01*
X22861904Y-107138095D01*
X22861904Y-107042857D01*
X22909523Y-106947619D01*
X22957142Y-106900000D01*
X23052380Y-106852380D01*
X23290476Y-106852380D01*
X23433333Y-106900000D01*
X24195238Y-107328571D02*
X24338095Y-107376190D01*
X24385714Y-107423809D01*
X24433333Y-107519047D01*
X24433333Y-107661904D01*
X24385714Y-107757142D01*
X24338095Y-107804761D01*
X24242857Y-107852380D01*
X23861904Y-107852380D01*
X23861904Y-106852380D01*
X24195238Y-106852380D01*
X24290476Y-106900000D01*
X24338095Y-106947619D01*
X24385714Y-107042857D01*
X24385714Y-107138095D01*
X24338095Y-107233333D01*
X24290476Y-107280952D01*
X24195238Y-107328571D01*
X23861904Y-107328571D01*
X25623809Y-107852380D02*
X25623809Y-107185714D01*
X25623809Y-107280952D02*
X25671428Y-107233333D01*
X25766666Y-107185714D01*
X25909523Y-107185714D01*
X26004761Y-107233333D01*
X26052380Y-107328571D01*
X26052380Y-107852380D01*
X26052380Y-107328571D02*
X26100000Y-107233333D01*
X26195238Y-107185714D01*
X26338095Y-107185714D01*
X26433333Y-107233333D01*
X26480952Y-107328571D01*
X26480952Y-107852380D01*
X26957142Y-107852380D02*
X26957142Y-107185714D01*
X26957142Y-106852380D02*
X26909523Y-106900000D01*
X26957142Y-106947619D01*
X27004761Y-106900000D01*
X26957142Y-106852380D01*
X26957142Y-106947619D01*
X27861904Y-107804761D02*
X27766666Y-107852380D01*
X27576190Y-107852380D01*
X27480952Y-107804761D01*
X27433333Y-107757142D01*
X27385714Y-107661904D01*
X27385714Y-107376190D01*
X27433333Y-107280952D01*
X27480952Y-107233333D01*
X27576190Y-107185714D01*
X27766666Y-107185714D01*
X27861904Y-107233333D01*
X28290476Y-107852380D02*
X28290476Y-107185714D01*
X28290476Y-107376190D02*
X28338095Y-107280952D01*
X28385714Y-107233333D01*
X28480952Y-107185714D01*
X28576190Y-107185714D01*
X29052380Y-107852380D02*
X28957142Y-107804761D01*
X28909523Y-107757142D01*
X28861904Y-107661904D01*
X28861904Y-107376190D01*
X28909523Y-107280952D01*
X28957142Y-107233333D01*
X29052380Y-107185714D01*
X29195238Y-107185714D01*
X29290476Y-107233333D01*
X29338095Y-107280952D01*
X29385714Y-107376190D01*
X29385714Y-107661904D01*
X29338095Y-107757142D01*
X29290476Y-107804761D01*
X29195238Y-107852380D01*
X29052380Y-107852380D01*
D12*
X84000000Y-125000000D02*
G75*
G03X84000000Y-125000000I-20000000J0D01*
G01*
D13*
X48050000Y-111650000D02*
X48050000Y-110400000D01*
X46800000Y-111650000D02*
X48050000Y-111650000D01*
X35900000Y-106150000D02*
X41450000Y-106150000D01*
X35900000Y-109100000D02*
X35900000Y-106150000D01*
X35150000Y-109100000D02*
X35900000Y-109100000D01*
X47000000Y-106150000D02*
X41450000Y-106150000D01*
X47000000Y-109100000D02*
X47000000Y-106150000D01*
X47750000Y-109100000D02*
X47000000Y-109100000D01*
X35150000Y-111350000D02*
X36950000Y-111350000D01*
X35150000Y-110600000D02*
X35150000Y-111350000D01*
X36950000Y-110600000D02*
X35150000Y-110600000D01*
X36950000Y-111350000D02*
X36950000Y-110600000D01*
X45950000Y-111350000D02*
X47750000Y-111350000D01*
X45950000Y-110600000D02*
X45950000Y-111350000D01*
X47750000Y-110600000D02*
X45950000Y-110600000D01*
X47750000Y-111350000D02*
X47750000Y-110600000D01*
X38450000Y-111350000D02*
X44450000Y-111350000D01*
X38450000Y-110600000D02*
X38450000Y-111350000D01*
X44450000Y-110600000D02*
X38450000Y-110600000D01*
X44450000Y-111350000D02*
X44450000Y-110600000D01*
X35140000Y-111360000D02*
X47760000Y-111360000D01*
X35140000Y-105390000D02*
X35140000Y-111360000D01*
X47760000Y-105390000D02*
X35140000Y-105390000D01*
X47760000Y-111360000D02*
X47760000Y-105390000D01*
D10*
X38390000Y-145410000D02*
X38390000Y-112390000D01*
X38390000Y-112390000D02*
X20610000Y-112390000D01*
X20610000Y-112390000D02*
X20610000Y-145410000D01*
X20610000Y-145410000D02*
X38390000Y-145410000D01*
D13*
X33430000Y-108670000D02*
X33430000Y-110000000D01*
X32100000Y-108670000D02*
X33430000Y-108670000D01*
X30830000Y-108670000D02*
X30830000Y-111330000D01*
X30830000Y-111330000D02*
X20610000Y-111330000D01*
X30830000Y-108670000D02*
X20610000Y-108670000D01*
X20610000Y-108670000D02*
X20610000Y-111330000D01*
X75750000Y-121350000D02*
X75750000Y-128650000D01*
X74600000Y-121350000D02*
X75750000Y-121350000D01*
X70250000Y-121350000D02*
X70250000Y-128650000D01*
X69750000Y-128650000D02*
X69750000Y-121350000D01*
X65400000Y-128650000D02*
X64250000Y-128650000D01*
X64250000Y-128650000D02*
X64250000Y-121350000D01*
X58250000Y-128650000D02*
X58250000Y-121350000D01*
X59400000Y-128650000D02*
X58250000Y-128650000D01*
X63750000Y-128650000D02*
X63750000Y-121350000D01*
X61650000Y-134750000D02*
X54350000Y-134750000D01*
X61650000Y-133600000D02*
X61650000Y-134750000D01*
X61650000Y-129250000D02*
X54350000Y-129250000D01*
X73650000Y-129250000D02*
X66350000Y-129250000D01*
X73650000Y-133600000D02*
X73650000Y-134750000D01*
X73650000Y-134750000D02*
X66350000Y-134750000D01*
X66350000Y-115250000D02*
X73650000Y-115250000D01*
X66350000Y-116400000D02*
X66350000Y-115250000D01*
X66350000Y-120750000D02*
X73650000Y-120750000D01*
X54350000Y-115250000D02*
X61650000Y-115250000D01*
X54350000Y-116400000D02*
X54350000Y-115250000D01*
X54350000Y-120750000D02*
X61650000Y-120750000D01*
X52250000Y-128650000D02*
X52250000Y-121350000D01*
X53400000Y-128650000D02*
X52250000Y-128650000D01*
X57750000Y-128650000D02*
X57750000Y-121350000D01*
X48250000Y-136650000D02*
X48250000Y-129350000D01*
X49400000Y-136650000D02*
X48250000Y-136650000D01*
X53750000Y-136650000D02*
X53750000Y-129350000D01*
X55250000Y-142650000D02*
X55250000Y-135350000D01*
X56400000Y-142650000D02*
X55250000Y-142650000D01*
X60750000Y-142650000D02*
X60750000Y-135350000D01*
X66750000Y-136350000D02*
X66750000Y-143650000D01*
X65600000Y-136350000D02*
X66750000Y-136350000D01*
X61250000Y-136350000D02*
X61250000Y-143650000D01*
X67250000Y-142650000D02*
X67250000Y-135350000D01*
X68400000Y-142650000D02*
X67250000Y-142650000D01*
X72750000Y-142650000D02*
X72750000Y-135350000D01*
X74250000Y-129350000D02*
X74250000Y-136650000D01*
X78600000Y-129350000D02*
X79750000Y-129350000D01*
X79750000Y-129350000D02*
X79750000Y-136650000D01*
X81750000Y-121350000D02*
X81750000Y-128650000D01*
X80600000Y-121350000D02*
X81750000Y-121350000D01*
X76250000Y-121350000D02*
X76250000Y-128650000D01*
X74250000Y-113350000D02*
X74250000Y-120650000D01*
X78600000Y-113350000D02*
X79750000Y-113350000D01*
X79750000Y-113350000D02*
X79750000Y-120650000D01*
X72750000Y-107350000D02*
X72750000Y-114650000D01*
X71600000Y-107350000D02*
X72750000Y-107350000D01*
X67250000Y-107350000D02*
X67250000Y-114650000D01*
X61250000Y-113650000D02*
X61250000Y-106350000D01*
X62400000Y-113650000D02*
X61250000Y-113650000D01*
X66750000Y-113650000D02*
X66750000Y-106350000D01*
X60750000Y-107350000D02*
X60750000Y-114650000D01*
X59600000Y-107350000D02*
X60750000Y-107350000D01*
X55250000Y-107350000D02*
X55250000Y-114650000D01*
X46250000Y-128650000D02*
X46250000Y-121350000D01*
X47400000Y-128650000D02*
X46250000Y-128650000D01*
X51750000Y-128650000D02*
X51750000Y-121350000D01*
X48250000Y-120650000D02*
X48250000Y-113350000D01*
X49400000Y-120650000D02*
X48250000Y-120650000D01*
X53750000Y-120650000D02*
X53750000Y-113350000D01*
D14*
X41116666Y-111902380D02*
X41116666Y-112616666D01*
X41069047Y-112759523D01*
X40973809Y-112854761D01*
X40830952Y-112902380D01*
X40735714Y-112902380D01*
X41545238Y-111997619D02*
X41592857Y-111950000D01*
X41688095Y-111902380D01*
X41926190Y-111902380D01*
X42021428Y-111950000D01*
X42069047Y-111997619D01*
X42116666Y-112092857D01*
X42116666Y-112188095D01*
X42069047Y-112330952D01*
X41497619Y-112902380D01*
X42116666Y-112902380D01*
D10*
X29253257Y-119120457D02*
X29340342Y-119149485D01*
X29369371Y-119178514D01*
X29398400Y-119236571D01*
X29398400Y-119323657D01*
X29369371Y-119381714D01*
X29340342Y-119410742D01*
X29282285Y-119439771D01*
X29050057Y-119439771D01*
X29050057Y-118830171D01*
X29253257Y-118830171D01*
X29311314Y-118859200D01*
X29340342Y-118888228D01*
X29369371Y-118946285D01*
X29369371Y-119004342D01*
X29340342Y-119062400D01*
X29311314Y-119091428D01*
X29253257Y-119120457D01*
X29050057Y-119120457D01*
X29978971Y-119439771D02*
X29630628Y-119439771D01*
X29804800Y-119439771D02*
X29804800Y-118830171D01*
X29746742Y-118917257D01*
X29688685Y-118975314D01*
X29630628Y-119004342D01*
X25630800Y-124091600D02*
X25921085Y-124091600D01*
X25572742Y-124265771D02*
X25775942Y-123656171D01*
X25979142Y-124265771D01*
X26182342Y-124265771D02*
X26182342Y-123859371D01*
X26182342Y-123975485D02*
X26211371Y-123917428D01*
X26240400Y-123888400D01*
X26298457Y-123859371D01*
X26356514Y-123859371D01*
X26820971Y-124265771D02*
X26820971Y-123656171D01*
X26820971Y-124236742D02*
X26762914Y-124265771D01*
X26646800Y-124265771D01*
X26588742Y-124236742D01*
X26559714Y-124207714D01*
X26530685Y-124149657D01*
X26530685Y-123975485D01*
X26559714Y-123917428D01*
X26588742Y-123888400D01*
X26646800Y-123859371D01*
X26762914Y-123859371D01*
X26820971Y-123888400D01*
X27372514Y-123859371D02*
X27372514Y-124265771D01*
X27111257Y-123859371D02*
X27111257Y-124178685D01*
X27140285Y-124236742D01*
X27198342Y-124265771D01*
X27285428Y-124265771D01*
X27343485Y-124236742D01*
X27372514Y-124207714D01*
X27662800Y-124265771D02*
X27662800Y-123859371D01*
X27662800Y-123656171D02*
X27633771Y-123685200D01*
X27662800Y-123714228D01*
X27691828Y-123685200D01*
X27662800Y-123656171D01*
X27662800Y-123714228D01*
X27953085Y-123859371D02*
X27953085Y-124265771D01*
X27953085Y-123917428D02*
X27982114Y-123888400D01*
X28040171Y-123859371D01*
X28127257Y-123859371D01*
X28185314Y-123888400D01*
X28214342Y-123946457D01*
X28214342Y-124265771D01*
X28591714Y-124265771D02*
X28533657Y-124236742D01*
X28504628Y-124207714D01*
X28475600Y-124149657D01*
X28475600Y-123975485D01*
X28504628Y-123917428D01*
X28533657Y-123888400D01*
X28591714Y-123859371D01*
X28678800Y-123859371D01*
X28736857Y-123888400D01*
X28765885Y-123917428D01*
X28794914Y-123975485D01*
X28794914Y-124149657D01*
X28765885Y-124207714D01*
X28736857Y-124236742D01*
X28678800Y-124265771D01*
X28591714Y-124265771D01*
X29520628Y-123859371D02*
X29520628Y-124468971D01*
X29520628Y-123888400D02*
X29578685Y-123859371D01*
X29694800Y-123859371D01*
X29752857Y-123888400D01*
X29781885Y-123917428D01*
X29810914Y-123975485D01*
X29810914Y-124149657D01*
X29781885Y-124207714D01*
X29752857Y-124236742D01*
X29694800Y-124265771D01*
X29578685Y-124265771D01*
X29520628Y-124236742D01*
X30072171Y-124265771D02*
X30072171Y-123859371D01*
X30072171Y-123975485D02*
X30101200Y-123917428D01*
X30130228Y-123888400D01*
X30188285Y-123859371D01*
X30246342Y-123859371D01*
X30536628Y-124265771D02*
X30478571Y-124236742D01*
X30449542Y-124207714D01*
X30420514Y-124149657D01*
X30420514Y-123975485D01*
X30449542Y-123917428D01*
X30478571Y-123888400D01*
X30536628Y-123859371D01*
X30623714Y-123859371D01*
X30681771Y-123888400D01*
X30710800Y-123917428D01*
X30739828Y-123975485D01*
X30739828Y-124149657D01*
X30710800Y-124207714D01*
X30681771Y-124236742D01*
X30623714Y-124265771D01*
X30536628Y-124265771D01*
X31465542Y-124265771D02*
X31465542Y-123859371D01*
X31465542Y-123917428D02*
X31494571Y-123888400D01*
X31552628Y-123859371D01*
X31639714Y-123859371D01*
X31697771Y-123888400D01*
X31726800Y-123946457D01*
X31726800Y-124265771D01*
X31726800Y-123946457D02*
X31755828Y-123888400D01*
X31813885Y-123859371D01*
X31900971Y-123859371D01*
X31959028Y-123888400D01*
X31988057Y-123946457D01*
X31988057Y-124265771D01*
X32278342Y-124265771D02*
X32278342Y-123859371D01*
X32278342Y-123656171D02*
X32249314Y-123685200D01*
X32278342Y-123714228D01*
X32307371Y-123685200D01*
X32278342Y-123656171D01*
X32278342Y-123714228D01*
X32568628Y-123859371D02*
X32568628Y-124265771D01*
X32568628Y-123917428D02*
X32597657Y-123888400D01*
X32655714Y-123859371D01*
X32742800Y-123859371D01*
X32800857Y-123888400D01*
X32829885Y-123946457D01*
X32829885Y-124265771D01*
X33120171Y-124265771D02*
X33120171Y-123859371D01*
X33120171Y-123656171D02*
X33091142Y-123685200D01*
X33120171Y-123714228D01*
X33149200Y-123685200D01*
X33120171Y-123656171D01*
X33120171Y-123714228D01*
D14*
X71785714Y-125452380D02*
X71785714Y-124452380D01*
X72023809Y-124452380D01*
X72166666Y-124500000D01*
X72261904Y-124595238D01*
X72309523Y-124690476D01*
X72357142Y-124880952D01*
X72357142Y-125023809D01*
X72309523Y-125214285D01*
X72261904Y-125309523D01*
X72166666Y-125404761D01*
X72023809Y-125452380D01*
X71785714Y-125452380D01*
X73309523Y-125452380D02*
X72738095Y-125452380D01*
X73023809Y-125452380D02*
X73023809Y-124452380D01*
X72928571Y-124595238D01*
X72833333Y-124690476D01*
X72738095Y-124738095D01*
X74166666Y-124452380D02*
X73976190Y-124452380D01*
X73880952Y-124500000D01*
X73833333Y-124547619D01*
X73738095Y-124690476D01*
X73690476Y-124880952D01*
X73690476Y-125261904D01*
X73738095Y-125357142D01*
X73785714Y-125404761D01*
X73880952Y-125452380D01*
X74071428Y-125452380D01*
X74166666Y-125404761D01*
X74214285Y-125357142D01*
X74261904Y-125261904D01*
X74261904Y-125023809D01*
X74214285Y-124928571D01*
X74166666Y-124880952D01*
X74071428Y-124833333D01*
X73880952Y-124833333D01*
X73785714Y-124880952D01*
X73738095Y-124928571D01*
X73690476Y-125023809D01*
X65785714Y-125452380D02*
X65785714Y-124452380D01*
X66023809Y-124452380D01*
X66166666Y-124500000D01*
X66261904Y-124595238D01*
X66309523Y-124690476D01*
X66357142Y-124880952D01*
X66357142Y-125023809D01*
X66309523Y-125214285D01*
X66261904Y-125309523D01*
X66166666Y-125404761D01*
X66023809Y-125452380D01*
X65785714Y-125452380D01*
X66738095Y-124547619D02*
X66785714Y-124500000D01*
X66880952Y-124452380D01*
X67119047Y-124452380D01*
X67214285Y-124500000D01*
X67261904Y-124547619D01*
X67309523Y-124642857D01*
X67309523Y-124738095D01*
X67261904Y-124880952D01*
X66690476Y-125452380D01*
X67309523Y-125452380D01*
X67928571Y-124452380D02*
X68023809Y-124452380D01*
X68119047Y-124500000D01*
X68166666Y-124547619D01*
X68214285Y-124642857D01*
X68261904Y-124833333D01*
X68261904Y-125071428D01*
X68214285Y-125261904D01*
X68166666Y-125357142D01*
X68119047Y-125404761D01*
X68023809Y-125452380D01*
X67928571Y-125452380D01*
X67833333Y-125404761D01*
X67785714Y-125357142D01*
X67738095Y-125261904D01*
X67690476Y-125071428D01*
X67690476Y-124833333D01*
X67738095Y-124642857D01*
X67785714Y-124547619D01*
X67833333Y-124500000D01*
X67928571Y-124452380D01*
X59785714Y-125452380D02*
X59785714Y-124452380D01*
X60023809Y-124452380D01*
X60166666Y-124500000D01*
X60261904Y-124595238D01*
X60309523Y-124690476D01*
X60357142Y-124880952D01*
X60357142Y-125023809D01*
X60309523Y-125214285D01*
X60261904Y-125309523D01*
X60166666Y-125404761D01*
X60023809Y-125452380D01*
X59785714Y-125452380D01*
X61309523Y-125452380D02*
X60738095Y-125452380D01*
X61023809Y-125452380D02*
X61023809Y-124452380D01*
X60928571Y-124595238D01*
X60833333Y-124690476D01*
X60738095Y-124738095D01*
X61785714Y-125452380D02*
X61976190Y-125452380D01*
X62071428Y-125404761D01*
X62119047Y-125357142D01*
X62214285Y-125214285D01*
X62261904Y-125023809D01*
X62261904Y-124642857D01*
X62214285Y-124547619D01*
X62166666Y-124500000D01*
X62071428Y-124452380D01*
X61880952Y-124452380D01*
X61785714Y-124500000D01*
X61738095Y-124547619D01*
X61690476Y-124642857D01*
X61690476Y-124880952D01*
X61738095Y-124976190D01*
X61785714Y-125023809D01*
X61880952Y-125071428D01*
X62071428Y-125071428D01*
X62166666Y-125023809D01*
X62214285Y-124976190D01*
X62261904Y-124880952D01*
X57952380Y-133214285D02*
X56952380Y-133214285D01*
X56952380Y-132976190D01*
X57000000Y-132833333D01*
X57095238Y-132738095D01*
X57190476Y-132690476D01*
X57380952Y-132642857D01*
X57523809Y-132642857D01*
X57714285Y-132690476D01*
X57809523Y-132738095D01*
X57904761Y-132833333D01*
X57952380Y-132976190D01*
X57952380Y-133214285D01*
X57952380Y-131690476D02*
X57952380Y-132261904D01*
X57952380Y-131976190D02*
X56952380Y-131976190D01*
X57095238Y-132071428D01*
X57190476Y-132166666D01*
X57238095Y-132261904D01*
X57380952Y-131119047D02*
X57333333Y-131214285D01*
X57285714Y-131261904D01*
X57190476Y-131309523D01*
X57142857Y-131309523D01*
X57047619Y-131261904D01*
X57000000Y-131214285D01*
X56952380Y-131119047D01*
X56952380Y-130928571D01*
X57000000Y-130833333D01*
X57047619Y-130785714D01*
X57142857Y-130738095D01*
X57190476Y-130738095D01*
X57285714Y-130785714D01*
X57333333Y-130833333D01*
X57380952Y-130928571D01*
X57380952Y-131119047D01*
X57428571Y-131214285D01*
X57476190Y-131261904D01*
X57571428Y-131309523D01*
X57761904Y-131309523D01*
X57857142Y-131261904D01*
X57904761Y-131214285D01*
X57952380Y-131119047D01*
X57952380Y-130928571D01*
X57904761Y-130833333D01*
X57857142Y-130785714D01*
X57761904Y-130738095D01*
X57571428Y-130738095D01*
X57476190Y-130785714D01*
X57428571Y-130833333D01*
X57380952Y-130928571D01*
X71052380Y-133214285D02*
X70052380Y-133214285D01*
X70052380Y-132976190D01*
X70100000Y-132833333D01*
X70195238Y-132738095D01*
X70290476Y-132690476D01*
X70480952Y-132642857D01*
X70623809Y-132642857D01*
X70814285Y-132690476D01*
X70909523Y-132738095D01*
X71004761Y-132833333D01*
X71052380Y-132976190D01*
X71052380Y-133214285D01*
X71052380Y-131690476D02*
X71052380Y-132261904D01*
X71052380Y-131976190D02*
X70052380Y-131976190D01*
X70195238Y-132071428D01*
X70290476Y-132166666D01*
X70338095Y-132261904D01*
X70052380Y-131357142D02*
X70052380Y-130690476D01*
X71052380Y-131119047D01*
X70952380Y-118714285D02*
X69952380Y-118714285D01*
X69952380Y-118476190D01*
X70000000Y-118333333D01*
X70095238Y-118238095D01*
X70190476Y-118190476D01*
X70380952Y-118142857D01*
X70523809Y-118142857D01*
X70714285Y-118190476D01*
X70809523Y-118238095D01*
X70904761Y-118333333D01*
X70952380Y-118476190D01*
X70952380Y-118714285D01*
X70952380Y-117190476D02*
X70952380Y-117761904D01*
X70952380Y-117476190D02*
X69952380Y-117476190D01*
X70095238Y-117571428D01*
X70190476Y-117666666D01*
X70238095Y-117761904D01*
X69952380Y-116285714D02*
X69952380Y-116761904D01*
X70428571Y-116809523D01*
X70380952Y-116761904D01*
X70333333Y-116666666D01*
X70333333Y-116428571D01*
X70380952Y-116333333D01*
X70428571Y-116285714D01*
X70523809Y-116238095D01*
X70761904Y-116238095D01*
X70857142Y-116285714D01*
X70904761Y-116333333D01*
X70952380Y-116428571D01*
X70952380Y-116666666D01*
X70904761Y-116761904D01*
X70857142Y-116809523D01*
X57952380Y-119214285D02*
X56952380Y-119214285D01*
X56952380Y-118976190D01*
X57000000Y-118833333D01*
X57095238Y-118738095D01*
X57190476Y-118690476D01*
X57380952Y-118642857D01*
X57523809Y-118642857D01*
X57714285Y-118690476D01*
X57809523Y-118738095D01*
X57904761Y-118833333D01*
X57952380Y-118976190D01*
X57952380Y-119214285D01*
X57952380Y-117690476D02*
X57952380Y-118261904D01*
X57952380Y-117976190D02*
X56952380Y-117976190D01*
X57095238Y-118071428D01*
X57190476Y-118166666D01*
X57238095Y-118261904D01*
X57285714Y-116833333D02*
X57952380Y-116833333D01*
X56904761Y-117071428D02*
X57619047Y-117309523D01*
X57619047Y-116690476D01*
X53785714Y-125452380D02*
X53785714Y-124452380D01*
X54023809Y-124452380D01*
X54166666Y-124500000D01*
X54261904Y-124595238D01*
X54309523Y-124690476D01*
X54357142Y-124880952D01*
X54357142Y-125023809D01*
X54309523Y-125214285D01*
X54261904Y-125309523D01*
X54166666Y-125404761D01*
X54023809Y-125452380D01*
X53785714Y-125452380D01*
X55309523Y-125452380D02*
X54738095Y-125452380D01*
X55023809Y-125452380D02*
X55023809Y-124452380D01*
X54928571Y-124595238D01*
X54833333Y-124690476D01*
X54738095Y-124738095D01*
X55642857Y-124452380D02*
X56261904Y-124452380D01*
X55928571Y-124833333D01*
X56071428Y-124833333D01*
X56166666Y-124880952D01*
X56214285Y-124928571D01*
X56261904Y-125023809D01*
X56261904Y-125261904D01*
X56214285Y-125357142D01*
X56166666Y-125404761D01*
X56071428Y-125452380D01*
X55785714Y-125452380D01*
X55690476Y-125404761D01*
X55642857Y-125357142D01*
X49785714Y-133452380D02*
X49785714Y-132452380D01*
X50023809Y-132452380D01*
X50166666Y-132500000D01*
X50261904Y-132595238D01*
X50309523Y-132690476D01*
X50357142Y-132880952D01*
X50357142Y-133023809D01*
X50309523Y-133214285D01*
X50261904Y-133309523D01*
X50166666Y-133404761D01*
X50023809Y-133452380D01*
X49785714Y-133452380D01*
X51309523Y-133452380D02*
X50738095Y-133452380D01*
X51023809Y-133452380D02*
X51023809Y-132452380D01*
X50928571Y-132595238D01*
X50833333Y-132690476D01*
X50738095Y-132738095D01*
X51690476Y-132547619D02*
X51738095Y-132500000D01*
X51833333Y-132452380D01*
X52071428Y-132452380D01*
X52166666Y-132500000D01*
X52214285Y-132547619D01*
X52261904Y-132642857D01*
X52261904Y-132738095D01*
X52214285Y-132880952D01*
X51642857Y-133452380D01*
X52261904Y-133452380D01*
X56785714Y-139452380D02*
X56785714Y-138452380D01*
X57023809Y-138452380D01*
X57166666Y-138500000D01*
X57261904Y-138595238D01*
X57309523Y-138690476D01*
X57357142Y-138880952D01*
X57357142Y-139023809D01*
X57309523Y-139214285D01*
X57261904Y-139309523D01*
X57166666Y-139404761D01*
X57023809Y-139452380D01*
X56785714Y-139452380D01*
X58309523Y-139452380D02*
X57738095Y-139452380D01*
X58023809Y-139452380D02*
X58023809Y-138452380D01*
X57928571Y-138595238D01*
X57833333Y-138690476D01*
X57738095Y-138738095D01*
X59261904Y-139452380D02*
X58690476Y-139452380D01*
X58976190Y-139452380D02*
X58976190Y-138452380D01*
X58880952Y-138595238D01*
X58785714Y-138690476D01*
X58690476Y-138738095D01*
X62785714Y-140452380D02*
X62785714Y-139452380D01*
X63023809Y-139452380D01*
X63166666Y-139500000D01*
X63261904Y-139595238D01*
X63309523Y-139690476D01*
X63357142Y-139880952D01*
X63357142Y-140023809D01*
X63309523Y-140214285D01*
X63261904Y-140309523D01*
X63166666Y-140404761D01*
X63023809Y-140452380D01*
X62785714Y-140452380D01*
X64309523Y-140452380D02*
X63738095Y-140452380D01*
X64023809Y-140452380D02*
X64023809Y-139452380D01*
X63928571Y-139595238D01*
X63833333Y-139690476D01*
X63738095Y-139738095D01*
X64928571Y-139452380D02*
X65023809Y-139452380D01*
X65119047Y-139500000D01*
X65166666Y-139547619D01*
X65214285Y-139642857D01*
X65261904Y-139833333D01*
X65261904Y-140071428D01*
X65214285Y-140261904D01*
X65166666Y-140357142D01*
X65119047Y-140404761D01*
X65023809Y-140452380D01*
X64928571Y-140452380D01*
X64833333Y-140404761D01*
X64785714Y-140357142D01*
X64738095Y-140261904D01*
X64690476Y-140071428D01*
X64690476Y-139833333D01*
X64738095Y-139642857D01*
X64785714Y-139547619D01*
X64833333Y-139500000D01*
X64928571Y-139452380D01*
X69361904Y-139452380D02*
X69361904Y-138452380D01*
X69600000Y-138452380D01*
X69742857Y-138500000D01*
X69838095Y-138595238D01*
X69885714Y-138690476D01*
X69933333Y-138880952D01*
X69933333Y-139023809D01*
X69885714Y-139214285D01*
X69838095Y-139309523D01*
X69742857Y-139404761D01*
X69600000Y-139452380D01*
X69361904Y-139452380D01*
X70409523Y-139452380D02*
X70600000Y-139452380D01*
X70695238Y-139404761D01*
X70742857Y-139357142D01*
X70838095Y-139214285D01*
X70885714Y-139023809D01*
X70885714Y-138642857D01*
X70838095Y-138547619D01*
X70790476Y-138500000D01*
X70695238Y-138452380D01*
X70504761Y-138452380D01*
X70409523Y-138500000D01*
X70361904Y-138547619D01*
X70314285Y-138642857D01*
X70314285Y-138880952D01*
X70361904Y-138976190D01*
X70409523Y-139023809D01*
X70504761Y-139071428D01*
X70695238Y-139071428D01*
X70790476Y-139023809D01*
X70838095Y-138976190D01*
X70885714Y-138880952D01*
X76261904Y-133452380D02*
X76261904Y-132452380D01*
X76500000Y-132452380D01*
X76642857Y-132500000D01*
X76738095Y-132595238D01*
X76785714Y-132690476D01*
X76833333Y-132880952D01*
X76833333Y-133023809D01*
X76785714Y-133214285D01*
X76738095Y-133309523D01*
X76642857Y-133404761D01*
X76500000Y-133452380D01*
X76261904Y-133452380D01*
X77404761Y-132880952D02*
X77309523Y-132833333D01*
X77261904Y-132785714D01*
X77214285Y-132690476D01*
X77214285Y-132642857D01*
X77261904Y-132547619D01*
X77309523Y-132500000D01*
X77404761Y-132452380D01*
X77595238Y-132452380D01*
X77690476Y-132500000D01*
X77738095Y-132547619D01*
X77785714Y-132642857D01*
X77785714Y-132690476D01*
X77738095Y-132785714D01*
X77690476Y-132833333D01*
X77595238Y-132880952D01*
X77404761Y-132880952D01*
X77309523Y-132928571D01*
X77261904Y-132976190D01*
X77214285Y-133071428D01*
X77214285Y-133261904D01*
X77261904Y-133357142D01*
X77309523Y-133404761D01*
X77404761Y-133452380D01*
X77595238Y-133452380D01*
X77690476Y-133404761D01*
X77738095Y-133357142D01*
X77785714Y-133261904D01*
X77785714Y-133071428D01*
X77738095Y-132976190D01*
X77690476Y-132928571D01*
X77595238Y-132880952D01*
X78261904Y-125452380D02*
X78261904Y-124452380D01*
X78500000Y-124452380D01*
X78642857Y-124500000D01*
X78738095Y-124595238D01*
X78785714Y-124690476D01*
X78833333Y-124880952D01*
X78833333Y-125023809D01*
X78785714Y-125214285D01*
X78738095Y-125309523D01*
X78642857Y-125404761D01*
X78500000Y-125452380D01*
X78261904Y-125452380D01*
X79166666Y-124452380D02*
X79833333Y-124452380D01*
X79404761Y-125452380D01*
X76161904Y-117452380D02*
X76161904Y-116452380D01*
X76400000Y-116452380D01*
X76542857Y-116500000D01*
X76638095Y-116595238D01*
X76685714Y-116690476D01*
X76733333Y-116880952D01*
X76733333Y-117023809D01*
X76685714Y-117214285D01*
X76638095Y-117309523D01*
X76542857Y-117404761D01*
X76400000Y-117452380D01*
X76161904Y-117452380D01*
X77590476Y-116452380D02*
X77400000Y-116452380D01*
X77304761Y-116500000D01*
X77257142Y-116547619D01*
X77161904Y-116690476D01*
X77114285Y-116880952D01*
X77114285Y-117261904D01*
X77161904Y-117357142D01*
X77209523Y-117404761D01*
X77304761Y-117452380D01*
X77495238Y-117452380D01*
X77590476Y-117404761D01*
X77638095Y-117357142D01*
X77685714Y-117261904D01*
X77685714Y-117023809D01*
X77638095Y-116928571D01*
X77590476Y-116880952D01*
X77495238Y-116833333D01*
X77304761Y-116833333D01*
X77209523Y-116880952D01*
X77161904Y-116928571D01*
X77114285Y-117023809D01*
X69261904Y-111452380D02*
X69261904Y-110452380D01*
X69500000Y-110452380D01*
X69642857Y-110500000D01*
X69738095Y-110595238D01*
X69785714Y-110690476D01*
X69833333Y-110880952D01*
X69833333Y-111023809D01*
X69785714Y-111214285D01*
X69738095Y-111309523D01*
X69642857Y-111404761D01*
X69500000Y-111452380D01*
X69261904Y-111452380D01*
X70738095Y-110452380D02*
X70261904Y-110452380D01*
X70214285Y-110928571D01*
X70261904Y-110880952D01*
X70357142Y-110833333D01*
X70595238Y-110833333D01*
X70690476Y-110880952D01*
X70738095Y-110928571D01*
X70785714Y-111023809D01*
X70785714Y-111261904D01*
X70738095Y-111357142D01*
X70690476Y-111404761D01*
X70595238Y-111452380D01*
X70357142Y-111452380D01*
X70261904Y-111404761D01*
X70214285Y-111357142D01*
X63261904Y-110452380D02*
X63261904Y-109452380D01*
X63500000Y-109452380D01*
X63642857Y-109500000D01*
X63738095Y-109595238D01*
X63785714Y-109690476D01*
X63833333Y-109880952D01*
X63833333Y-110023809D01*
X63785714Y-110214285D01*
X63738095Y-110309523D01*
X63642857Y-110404761D01*
X63500000Y-110452380D01*
X63261904Y-110452380D01*
X64690476Y-109785714D02*
X64690476Y-110452380D01*
X64452380Y-109404761D02*
X64214285Y-110119047D01*
X64833333Y-110119047D01*
X57261904Y-111452380D02*
X57261904Y-110452380D01*
X57500000Y-110452380D01*
X57642857Y-110500000D01*
X57738095Y-110595238D01*
X57785714Y-110690476D01*
X57833333Y-110880952D01*
X57833333Y-111023809D01*
X57785714Y-111214285D01*
X57738095Y-111309523D01*
X57642857Y-111404761D01*
X57500000Y-111452380D01*
X57261904Y-111452380D01*
X58166666Y-110452380D02*
X58785714Y-110452380D01*
X58452380Y-110833333D01*
X58595238Y-110833333D01*
X58690476Y-110880952D01*
X58738095Y-110928571D01*
X58785714Y-111023809D01*
X58785714Y-111261904D01*
X58738095Y-111357142D01*
X58690476Y-111404761D01*
X58595238Y-111452380D01*
X58309523Y-111452380D01*
X58214285Y-111404761D01*
X58166666Y-111357142D01*
X48261904Y-125352380D02*
X48261904Y-124352380D01*
X48500000Y-124352380D01*
X48642857Y-124400000D01*
X48738095Y-124495238D01*
X48785714Y-124590476D01*
X48833333Y-124780952D01*
X48833333Y-124923809D01*
X48785714Y-125114285D01*
X48738095Y-125209523D01*
X48642857Y-125304761D01*
X48500000Y-125352380D01*
X48261904Y-125352380D01*
X49785714Y-125352380D02*
X49214285Y-125352380D01*
X49500000Y-125352380D02*
X49500000Y-124352380D01*
X49404761Y-124495238D01*
X49309523Y-124590476D01*
X49214285Y-124638095D01*
X50261904Y-117452380D02*
X50261904Y-116452380D01*
X50500000Y-116452380D01*
X50642857Y-116500000D01*
X50738095Y-116595238D01*
X50785714Y-116690476D01*
X50833333Y-116880952D01*
X50833333Y-117023809D01*
X50785714Y-117214285D01*
X50738095Y-117309523D01*
X50642857Y-117404761D01*
X50500000Y-117452380D01*
X50261904Y-117452380D01*
X51214285Y-116547619D02*
X51261904Y-116500000D01*
X51357142Y-116452380D01*
X51595238Y-116452380D01*
X51690476Y-116500000D01*
X51738095Y-116547619D01*
X51785714Y-116642857D01*
X51785714Y-116738095D01*
X51738095Y-116880952D01*
X51166666Y-117452380D01*
X51785714Y-117452380D01*
M02*
