G04 #@! TF.GenerationSoftware,KiCad,Pcbnew,5.1.4*
G04 #@! TF.CreationDate,2019-11-19T13:40:08+01:00*
G04 #@! TF.ProjectId,lamp,6c616d70-2e6b-4696-9361-645f70636258,rev?*
G04 #@! TF.SameCoordinates,Original*
G04 #@! TF.FileFunction,Copper,L2,Bot*
G04 #@! TF.FilePolarity,Positive*
%FSLAX46Y46*%
G04 Gerber Fmt 4.6, Leading zero omitted, Abs format (unit mm)*
G04 Created by KiCad (PCBNEW 5.1.4) date 2019-11-19 13:40:08*
%MOMM*%
%LPD*%
G04 APERTURE LIST*
%ADD10O,1.700000X1.950000*%
%ADD11C,0.100000*%
%ADD12C,1.700000*%
%ADD13C,1.879600*%
%ADD14O,1.700000X1.700000*%
%ADD15R,1.700000X1.700000*%
%ADD16C,0.800000*%
%ADD17C,0.250000*%
%ADD18C,0.350000*%
%ADD19C,0.254000*%
G04 APERTURE END LIST*
D10*
X37700000Y-108900000D03*
X40200000Y-108900000D03*
X42700000Y-108900000D03*
D11*
G36*
X45824504Y-107926204D02*
G01*
X45848773Y-107929804D01*
X45872571Y-107935765D01*
X45895671Y-107944030D01*
X45917849Y-107954520D01*
X45938893Y-107967133D01*
X45958598Y-107981747D01*
X45976777Y-107998223D01*
X45993253Y-108016402D01*
X46007867Y-108036107D01*
X46020480Y-108057151D01*
X46030970Y-108079329D01*
X46039235Y-108102429D01*
X46045196Y-108126227D01*
X46048796Y-108150496D01*
X46050000Y-108175000D01*
X46050000Y-109625000D01*
X46048796Y-109649504D01*
X46045196Y-109673773D01*
X46039235Y-109697571D01*
X46030970Y-109720671D01*
X46020480Y-109742849D01*
X46007867Y-109763893D01*
X45993253Y-109783598D01*
X45976777Y-109801777D01*
X45958598Y-109818253D01*
X45938893Y-109832867D01*
X45917849Y-109845480D01*
X45895671Y-109855970D01*
X45872571Y-109864235D01*
X45848773Y-109870196D01*
X45824504Y-109873796D01*
X45800000Y-109875000D01*
X44600000Y-109875000D01*
X44575496Y-109873796D01*
X44551227Y-109870196D01*
X44527429Y-109864235D01*
X44504329Y-109855970D01*
X44482151Y-109845480D01*
X44461107Y-109832867D01*
X44441402Y-109818253D01*
X44423223Y-109801777D01*
X44406747Y-109783598D01*
X44392133Y-109763893D01*
X44379520Y-109742849D01*
X44369030Y-109720671D01*
X44360765Y-109697571D01*
X44354804Y-109673773D01*
X44351204Y-109649504D01*
X44350000Y-109625000D01*
X44350000Y-108175000D01*
X44351204Y-108150496D01*
X44354804Y-108126227D01*
X44360765Y-108102429D01*
X44369030Y-108079329D01*
X44379520Y-108057151D01*
X44392133Y-108036107D01*
X44406747Y-108016402D01*
X44423223Y-107998223D01*
X44441402Y-107981747D01*
X44461107Y-107967133D01*
X44482151Y-107954520D01*
X44504329Y-107944030D01*
X44527429Y-107935765D01*
X44551227Y-107929804D01*
X44575496Y-107926204D01*
X44600000Y-107925000D01*
X45800000Y-107925000D01*
X45824504Y-107926204D01*
X45824504Y-107926204D01*
G37*
D12*
X45200000Y-108900000D03*
D13*
X37120000Y-131440000D03*
X37120000Y-141600000D03*
X35850000Y-113660000D03*
X30770000Y-113660000D03*
X37120000Y-139060000D03*
X25690000Y-113660000D03*
X33310000Y-113660000D03*
X23150000Y-113660000D03*
X28230000Y-113660000D03*
X37120000Y-133980000D03*
X37120000Y-136520000D03*
X37120000Y-128900000D03*
D14*
X21940000Y-110000000D03*
X24480000Y-110000000D03*
X27020000Y-110000000D03*
X29560000Y-110000000D03*
D15*
X32100000Y-110000000D03*
D16*
X69200000Y-116400000D03*
X58800000Y-116400000D03*
X69200000Y-118000000D03*
X58823015Y-117976985D03*
X58800000Y-133600000D03*
X69200000Y-133600000D03*
X58800000Y-132000000D03*
X69200000Y-132000000D03*
X75400000Y-117800000D03*
X60150000Y-138650000D03*
X70700000Y-119600000D03*
X69300000Y-130400000D03*
X65600000Y-109100000D03*
X58500000Y-119600000D03*
X53950000Y-130550000D03*
X71400000Y-125800000D03*
X67700000Y-106800000D03*
X69000000Y-104900000D03*
X65500000Y-120400000D03*
X71400000Y-124200000D03*
X68600000Y-125900000D03*
X73000000Y-129000000D03*
X75400000Y-129000000D03*
X55600000Y-120900000D03*
X52600000Y-120900000D03*
X54500000Y-109800000D03*
X52300000Y-107600000D03*
D17*
X68800001Y-116799999D02*
X69200000Y-116400000D01*
X66974990Y-118625010D02*
X68800001Y-116799999D01*
X61025010Y-118625010D02*
X66974990Y-118625010D01*
X58800000Y-116400000D02*
X61025010Y-118625010D01*
X69200000Y-118000000D02*
X68124979Y-119075021D01*
X59223014Y-118376984D02*
X58823015Y-117976985D01*
X68124979Y-119075021D02*
X59921051Y-119075021D01*
X59921051Y-119075021D02*
X59223014Y-118376984D01*
X66900000Y-131300000D02*
X68800001Y-133200001D01*
X68800001Y-133200001D02*
X69200000Y-133600000D01*
X58800000Y-133600000D02*
X61100000Y-131300000D01*
X61100000Y-131300000D02*
X66900000Y-131300000D01*
X59199999Y-131600001D02*
X58800000Y-132000000D01*
X69200000Y-132000000D02*
X68000000Y-130800000D01*
X60000000Y-130800000D02*
X59199999Y-131600001D01*
X68000000Y-130800000D02*
X60000000Y-130800000D01*
D18*
X67700000Y-106800000D02*
X67700000Y-106200000D01*
X67700000Y-106200000D02*
X69000000Y-104900000D01*
X68600000Y-125900000D02*
X71400000Y-124200000D01*
X73000000Y-129000000D02*
X75400000Y-129000000D01*
X55600000Y-120900000D02*
X52600000Y-120900000D01*
X54500000Y-109800000D02*
X52300000Y-107600000D01*
D17*
X42700000Y-125860000D02*
X37120000Y-131440000D01*
X42700000Y-108600000D02*
X42700000Y-125860000D01*
X45200000Y-125900000D02*
X45200000Y-108600000D01*
X37120000Y-133980000D02*
X45200000Y-125900000D01*
X40200000Y-125820000D02*
X37120000Y-128900000D01*
X40200000Y-108600000D02*
X40200000Y-125820000D01*
D19*
G36*
X67967129Y-104787359D02*
G01*
X67155383Y-105599105D01*
X67124473Y-105624472D01*
X67099108Y-105655380D01*
X67023251Y-105747811D01*
X66992804Y-105804774D01*
X66948037Y-105888527D01*
X66901720Y-106041212D01*
X66891260Y-106147414D01*
X66782795Y-106309744D01*
X66704774Y-106498102D01*
X66665000Y-106698061D01*
X66665000Y-106901939D01*
X66704774Y-107101898D01*
X66782795Y-107290256D01*
X66896063Y-107459774D01*
X67040226Y-107603937D01*
X67209744Y-107717205D01*
X67398102Y-107795226D01*
X67598061Y-107835000D01*
X67801939Y-107835000D01*
X68001898Y-107795226D01*
X68190256Y-107717205D01*
X68359774Y-107603937D01*
X68503937Y-107459774D01*
X68617205Y-107290256D01*
X68695226Y-107101898D01*
X68735000Y-106901939D01*
X68735000Y-106698061D01*
X68695226Y-106498102D01*
X68651932Y-106393581D01*
X69112641Y-105932871D01*
X69301898Y-105895226D01*
X69490256Y-105817205D01*
X69659774Y-105703937D01*
X69803937Y-105559774D01*
X69917205Y-105390256D01*
X69995226Y-105201898D01*
X70035000Y-105001939D01*
X70035000Y-104798061D01*
X70014500Y-104695000D01*
X84305001Y-104695000D01*
X84305000Y-145305000D01*
X20695000Y-145305000D01*
X20695000Y-128744896D01*
X35545200Y-128744896D01*
X35545200Y-129055104D01*
X35605718Y-129359352D01*
X35724430Y-129645948D01*
X35896773Y-129903877D01*
X36116123Y-130123227D01*
X36186124Y-130170000D01*
X36116123Y-130216773D01*
X35896773Y-130436123D01*
X35724430Y-130694052D01*
X35605718Y-130980648D01*
X35545200Y-131284896D01*
X35545200Y-131595104D01*
X35605718Y-131899352D01*
X35724430Y-132185948D01*
X35896773Y-132443877D01*
X36116123Y-132663227D01*
X36186124Y-132710000D01*
X36116123Y-132756773D01*
X35896773Y-132976123D01*
X35724430Y-133234052D01*
X35605718Y-133520648D01*
X35545200Y-133824896D01*
X35545200Y-134135104D01*
X35605718Y-134439352D01*
X35724430Y-134725948D01*
X35896773Y-134983877D01*
X36116123Y-135203227D01*
X36186124Y-135250000D01*
X36116123Y-135296773D01*
X35896773Y-135516123D01*
X35724430Y-135774052D01*
X35605718Y-136060648D01*
X35545200Y-136364896D01*
X35545200Y-136675104D01*
X35605718Y-136979352D01*
X35724430Y-137265948D01*
X35896773Y-137523877D01*
X36116123Y-137743227D01*
X36186124Y-137790000D01*
X36116123Y-137836773D01*
X35896773Y-138056123D01*
X35724430Y-138314052D01*
X35605718Y-138600648D01*
X35545200Y-138904896D01*
X35545200Y-139215104D01*
X35605718Y-139519352D01*
X35724430Y-139805948D01*
X35896773Y-140063877D01*
X36116123Y-140283227D01*
X36186124Y-140330000D01*
X36116123Y-140376773D01*
X35896773Y-140596123D01*
X35724430Y-140854052D01*
X35605718Y-141140648D01*
X35545200Y-141444896D01*
X35545200Y-141755104D01*
X35605718Y-142059352D01*
X35724430Y-142345948D01*
X35896773Y-142603877D01*
X36116123Y-142823227D01*
X36374052Y-142995570D01*
X36660648Y-143114282D01*
X36964896Y-143174800D01*
X37275104Y-143174800D01*
X37579352Y-143114282D01*
X37865948Y-142995570D01*
X38123877Y-142823227D01*
X38343227Y-142603877D01*
X38515570Y-142345948D01*
X38634282Y-142059352D01*
X38694800Y-141755104D01*
X38694800Y-141444896D01*
X38634282Y-141140648D01*
X38515570Y-140854052D01*
X38343227Y-140596123D01*
X38123877Y-140376773D01*
X38053876Y-140330000D01*
X38123877Y-140283227D01*
X38343227Y-140063877D01*
X38515570Y-139805948D01*
X38634282Y-139519352D01*
X38694800Y-139215104D01*
X38694800Y-138904896D01*
X38634282Y-138600648D01*
X38515570Y-138314052D01*
X38343227Y-138056123D01*
X38123877Y-137836773D01*
X38053876Y-137790000D01*
X38123877Y-137743227D01*
X38343227Y-137523877D01*
X38515570Y-137265948D01*
X38634282Y-136979352D01*
X38694800Y-136675104D01*
X38694800Y-136364896D01*
X38634282Y-136060648D01*
X38515570Y-135774052D01*
X38343227Y-135516123D01*
X38123877Y-135296773D01*
X38053876Y-135250000D01*
X38123877Y-135203227D01*
X38343227Y-134983877D01*
X38515570Y-134725948D01*
X38634282Y-134439352D01*
X38694800Y-134135104D01*
X38694800Y-133824896D01*
X38637579Y-133537222D01*
X40276740Y-131898061D01*
X57765000Y-131898061D01*
X57765000Y-132101939D01*
X57804774Y-132301898D01*
X57882795Y-132490256D01*
X57996063Y-132659774D01*
X58136289Y-132800000D01*
X57996063Y-132940226D01*
X57882795Y-133109744D01*
X57804774Y-133298102D01*
X57765000Y-133498061D01*
X57765000Y-133701939D01*
X57804774Y-133901898D01*
X57882795Y-134090256D01*
X57996063Y-134259774D01*
X58140226Y-134403937D01*
X58309744Y-134517205D01*
X58498102Y-134595226D01*
X58698061Y-134635000D01*
X58901939Y-134635000D01*
X59101898Y-134595226D01*
X59290256Y-134517205D01*
X59459774Y-134403937D01*
X59603937Y-134259774D01*
X59717205Y-134090256D01*
X59795226Y-133901898D01*
X59835000Y-133701939D01*
X59835000Y-133639801D01*
X61414802Y-132060000D01*
X61573000Y-132060000D01*
X61573000Y-136300000D01*
X61575440Y-136324776D01*
X61582667Y-136348601D01*
X61594403Y-136370557D01*
X61610197Y-136389803D01*
X61629443Y-136405597D01*
X61651399Y-136417333D01*
X61675224Y-136424560D01*
X61700000Y-136427000D01*
X66300000Y-136427000D01*
X66324776Y-136424560D01*
X66348601Y-136417333D01*
X66370557Y-136405597D01*
X66389803Y-136389803D01*
X66405597Y-136370557D01*
X66417333Y-136348601D01*
X66424560Y-136324776D01*
X66427000Y-136300000D01*
X66427000Y-132060000D01*
X66585199Y-132060000D01*
X68165000Y-133639802D01*
X68165000Y-133701939D01*
X68204774Y-133901898D01*
X68282795Y-134090256D01*
X68396063Y-134259774D01*
X68540226Y-134403937D01*
X68709744Y-134517205D01*
X68898102Y-134595226D01*
X69098061Y-134635000D01*
X69301939Y-134635000D01*
X69501898Y-134595226D01*
X69690256Y-134517205D01*
X69859774Y-134403937D01*
X70003937Y-134259774D01*
X70117205Y-134090256D01*
X70195226Y-133901898D01*
X70235000Y-133701939D01*
X70235000Y-133498061D01*
X70195226Y-133298102D01*
X70117205Y-133109744D01*
X70003937Y-132940226D01*
X69863711Y-132800000D01*
X70003937Y-132659774D01*
X70117205Y-132490256D01*
X70195226Y-132301898D01*
X70235000Y-132101939D01*
X70235000Y-131898061D01*
X70195226Y-131698102D01*
X70117205Y-131509744D01*
X70003937Y-131340226D01*
X69859774Y-131196063D01*
X69690256Y-131082795D01*
X69501898Y-131004774D01*
X69301939Y-130965000D01*
X69239802Y-130965000D01*
X68563804Y-130289003D01*
X68540001Y-130259999D01*
X68424276Y-130165026D01*
X68292247Y-130094454D01*
X68148986Y-130050997D01*
X68037333Y-130040000D01*
X68037322Y-130040000D01*
X68000000Y-130036324D01*
X67962678Y-130040000D01*
X60037322Y-130040000D01*
X59999999Y-130036324D01*
X59962676Y-130040000D01*
X59962667Y-130040000D01*
X59851014Y-130050997D01*
X59707753Y-130094454D01*
X59575724Y-130165026D01*
X59459999Y-130259999D01*
X59436201Y-130288998D01*
X58760199Y-130965000D01*
X58698061Y-130965000D01*
X58498102Y-131004774D01*
X58309744Y-131082795D01*
X58140226Y-131196063D01*
X57996063Y-131340226D01*
X57882795Y-131509744D01*
X57804774Y-131698102D01*
X57765000Y-131898061D01*
X40276740Y-131898061D01*
X43276740Y-128898061D01*
X71965000Y-128898061D01*
X71965000Y-129101939D01*
X72004774Y-129301898D01*
X72082795Y-129490256D01*
X72196063Y-129659774D01*
X72340226Y-129803937D01*
X72509744Y-129917205D01*
X72698102Y-129995226D01*
X72898061Y-130035000D01*
X73101939Y-130035000D01*
X73301898Y-129995226D01*
X73490256Y-129917205D01*
X73650700Y-129810000D01*
X74749300Y-129810000D01*
X74909744Y-129917205D01*
X75098102Y-129995226D01*
X75298061Y-130035000D01*
X75501939Y-130035000D01*
X75701898Y-129995226D01*
X75890256Y-129917205D01*
X76059774Y-129803937D01*
X76203937Y-129659774D01*
X76317205Y-129490256D01*
X76395226Y-129301898D01*
X76435000Y-129101939D01*
X76435000Y-128898061D01*
X76395226Y-128698102D01*
X76317205Y-128509744D01*
X76203937Y-128340226D01*
X76059774Y-128196063D01*
X75890256Y-128082795D01*
X75701898Y-128004774D01*
X75501939Y-127965000D01*
X75298061Y-127965000D01*
X75098102Y-128004774D01*
X74909744Y-128082795D01*
X74749300Y-128190000D01*
X73650700Y-128190000D01*
X73490256Y-128082795D01*
X73301898Y-128004774D01*
X73101939Y-127965000D01*
X72898061Y-127965000D01*
X72698102Y-128004774D01*
X72509744Y-128082795D01*
X72340226Y-128196063D01*
X72196063Y-128340226D01*
X72082795Y-128509744D01*
X72004774Y-128698102D01*
X71965000Y-128898061D01*
X43276740Y-128898061D01*
X45711004Y-126463798D01*
X45740001Y-126440001D01*
X45834974Y-126324276D01*
X45905546Y-126192247D01*
X45949003Y-126048986D01*
X45960000Y-125937333D01*
X45960000Y-125937332D01*
X45963677Y-125900000D01*
X45960000Y-125862667D01*
X45960000Y-125798061D01*
X67565000Y-125798061D01*
X67565000Y-126001939D01*
X67604774Y-126201898D01*
X67682795Y-126390256D01*
X67796063Y-126559774D01*
X67940226Y-126703937D01*
X68109744Y-126817205D01*
X68298102Y-126895226D01*
X68498061Y-126935000D01*
X68701939Y-126935000D01*
X68901898Y-126895226D01*
X69090256Y-126817205D01*
X69259774Y-126703937D01*
X69403937Y-126559774D01*
X69517205Y-126390256D01*
X69572282Y-126257289D01*
X71266420Y-125228706D01*
X71298061Y-125235000D01*
X71501939Y-125235000D01*
X71701898Y-125195226D01*
X71890256Y-125117205D01*
X72059774Y-125003937D01*
X72203937Y-124859774D01*
X72317205Y-124690256D01*
X72395226Y-124501898D01*
X72435000Y-124301939D01*
X72435000Y-124098061D01*
X72395226Y-123898102D01*
X72317205Y-123709744D01*
X72203937Y-123540226D01*
X72059774Y-123396063D01*
X71890256Y-123282795D01*
X71701898Y-123204774D01*
X71501939Y-123165000D01*
X71298061Y-123165000D01*
X71098102Y-123204774D01*
X70909744Y-123282795D01*
X70740226Y-123396063D01*
X70596063Y-123540226D01*
X70482795Y-123709744D01*
X70427718Y-123842710D01*
X68733581Y-124871294D01*
X68701939Y-124865000D01*
X68498061Y-124865000D01*
X68298102Y-124904774D01*
X68109744Y-124982795D01*
X67940226Y-125096063D01*
X67796063Y-125240226D01*
X67682795Y-125409744D01*
X67604774Y-125598102D01*
X67565000Y-125798061D01*
X45960000Y-125798061D01*
X45960000Y-120798061D01*
X51565000Y-120798061D01*
X51565000Y-121001939D01*
X51604774Y-121201898D01*
X51682795Y-121390256D01*
X51796063Y-121559774D01*
X51940226Y-121703937D01*
X52109744Y-121817205D01*
X52298102Y-121895226D01*
X52498061Y-121935000D01*
X52701939Y-121935000D01*
X52901898Y-121895226D01*
X53090256Y-121817205D01*
X53250700Y-121710000D01*
X54949300Y-121710000D01*
X55109744Y-121817205D01*
X55298102Y-121895226D01*
X55498061Y-121935000D01*
X55701939Y-121935000D01*
X55901898Y-121895226D01*
X56090256Y-121817205D01*
X56259774Y-121703937D01*
X56403937Y-121559774D01*
X56517205Y-121390256D01*
X56595226Y-121201898D01*
X56635000Y-121001939D01*
X56635000Y-120798061D01*
X56595226Y-120598102D01*
X56517205Y-120409744D01*
X56403937Y-120240226D01*
X56259774Y-120096063D01*
X56090256Y-119982795D01*
X55901898Y-119904774D01*
X55701939Y-119865000D01*
X55498061Y-119865000D01*
X55298102Y-119904774D01*
X55109744Y-119982795D01*
X54949300Y-120090000D01*
X53250700Y-120090000D01*
X53090256Y-119982795D01*
X52901898Y-119904774D01*
X52701939Y-119865000D01*
X52498061Y-119865000D01*
X52298102Y-119904774D01*
X52109744Y-119982795D01*
X51940226Y-120096063D01*
X51796063Y-120240226D01*
X51682795Y-120409744D01*
X51604774Y-120598102D01*
X51565000Y-120798061D01*
X45960000Y-120798061D01*
X45960000Y-116298061D01*
X57765000Y-116298061D01*
X57765000Y-116501939D01*
X57804774Y-116701898D01*
X57882795Y-116890256D01*
X57996063Y-117059774D01*
X58136289Y-117200000D01*
X58019078Y-117317211D01*
X57905810Y-117486729D01*
X57827789Y-117675087D01*
X57788015Y-117875046D01*
X57788015Y-118078924D01*
X57827789Y-118278883D01*
X57905810Y-118467241D01*
X58019078Y-118636759D01*
X58163241Y-118780922D01*
X58332759Y-118894190D01*
X58521117Y-118972211D01*
X58721076Y-119011985D01*
X58783214Y-119011985D01*
X59357256Y-119586029D01*
X59381050Y-119615022D01*
X59410043Y-119638816D01*
X59410047Y-119638820D01*
X59480736Y-119696832D01*
X59496775Y-119709995D01*
X59628804Y-119780567D01*
X59772065Y-119824024D01*
X59883718Y-119835021D01*
X59883727Y-119835021D01*
X59921050Y-119838697D01*
X59958373Y-119835021D01*
X64632723Y-119835021D01*
X64582795Y-119909744D01*
X64504774Y-120098102D01*
X64465000Y-120298061D01*
X64465000Y-120501939D01*
X64504774Y-120701898D01*
X64582795Y-120890256D01*
X64696063Y-121059774D01*
X64840226Y-121203937D01*
X65009744Y-121317205D01*
X65198102Y-121395226D01*
X65398061Y-121435000D01*
X65601939Y-121435000D01*
X65801898Y-121395226D01*
X65990256Y-121317205D01*
X66159774Y-121203937D01*
X66303937Y-121059774D01*
X66417205Y-120890256D01*
X66495226Y-120701898D01*
X66535000Y-120501939D01*
X66535000Y-120298061D01*
X66495226Y-120098102D01*
X66417205Y-119909744D01*
X66367277Y-119835021D01*
X68087657Y-119835021D01*
X68124979Y-119838697D01*
X68162301Y-119835021D01*
X68162312Y-119835021D01*
X68273965Y-119824024D01*
X68417226Y-119780567D01*
X68549255Y-119709995D01*
X68664980Y-119615022D01*
X68688783Y-119586019D01*
X69239802Y-119035000D01*
X69301939Y-119035000D01*
X69501898Y-118995226D01*
X69690256Y-118917205D01*
X69859774Y-118803937D01*
X70003937Y-118659774D01*
X70117205Y-118490256D01*
X70195226Y-118301898D01*
X70235000Y-118101939D01*
X70235000Y-117898061D01*
X70195226Y-117698102D01*
X70117205Y-117509744D01*
X70003937Y-117340226D01*
X69863711Y-117200000D01*
X70003937Y-117059774D01*
X70117205Y-116890256D01*
X70195226Y-116701898D01*
X70235000Y-116501939D01*
X70235000Y-116298061D01*
X70195226Y-116098102D01*
X70117205Y-115909744D01*
X70003937Y-115740226D01*
X69859774Y-115596063D01*
X69690256Y-115482795D01*
X69501898Y-115404774D01*
X69301939Y-115365000D01*
X69098061Y-115365000D01*
X68898102Y-115404774D01*
X68709744Y-115482795D01*
X68540226Y-115596063D01*
X68396063Y-115740226D01*
X68282795Y-115909744D01*
X68204774Y-116098102D01*
X68165000Y-116298061D01*
X68165000Y-116360198D01*
X66660189Y-117865010D01*
X66427000Y-117865010D01*
X66427000Y-113700000D01*
X66424560Y-113675224D01*
X66417333Y-113651399D01*
X66405597Y-113629443D01*
X66389803Y-113610197D01*
X66370557Y-113594403D01*
X66348601Y-113582667D01*
X66324776Y-113575440D01*
X66300000Y-113573000D01*
X61700000Y-113573000D01*
X61675224Y-113575440D01*
X61651399Y-113582667D01*
X61629443Y-113594403D01*
X61610197Y-113610197D01*
X61594403Y-113629443D01*
X61582667Y-113651399D01*
X61575440Y-113675224D01*
X61573000Y-113700000D01*
X61573000Y-117865010D01*
X61339812Y-117865010D01*
X59835000Y-116360199D01*
X59835000Y-116298061D01*
X59795226Y-116098102D01*
X59717205Y-115909744D01*
X59603937Y-115740226D01*
X59459774Y-115596063D01*
X59290256Y-115482795D01*
X59101898Y-115404774D01*
X58901939Y-115365000D01*
X58698061Y-115365000D01*
X58498102Y-115404774D01*
X58309744Y-115482795D01*
X58140226Y-115596063D01*
X57996063Y-115740226D01*
X57882795Y-115909744D01*
X57804774Y-116098102D01*
X57765000Y-116298061D01*
X45960000Y-116298061D01*
X45960000Y-110497313D01*
X45973254Y-110496008D01*
X46139850Y-110445472D01*
X46293386Y-110363405D01*
X46427962Y-110252962D01*
X46538405Y-110118386D01*
X46620472Y-109964850D01*
X46671008Y-109798254D01*
X46688072Y-109625000D01*
X46688072Y-108175000D01*
X46671008Y-108001746D01*
X46620472Y-107835150D01*
X46538405Y-107681614D01*
X46427962Y-107547038D01*
X46368283Y-107498061D01*
X51265000Y-107498061D01*
X51265000Y-107701939D01*
X51304774Y-107901898D01*
X51382795Y-108090256D01*
X51496063Y-108259774D01*
X51640226Y-108403937D01*
X51809744Y-108517205D01*
X51998102Y-108595226D01*
X52187359Y-108632871D01*
X53467129Y-109912642D01*
X53504774Y-110101898D01*
X53582795Y-110290256D01*
X53696063Y-110459774D01*
X53840226Y-110603937D01*
X54009744Y-110717205D01*
X54198102Y-110795226D01*
X54398061Y-110835000D01*
X54601939Y-110835000D01*
X54801898Y-110795226D01*
X54990256Y-110717205D01*
X55159774Y-110603937D01*
X55303937Y-110459774D01*
X55417205Y-110290256D01*
X55495226Y-110101898D01*
X55535000Y-109901939D01*
X55535000Y-109698061D01*
X55495226Y-109498102D01*
X55417205Y-109309744D01*
X55303937Y-109140226D01*
X55159774Y-108996063D01*
X54990256Y-108882795D01*
X54801898Y-108804774D01*
X54612642Y-108767129D01*
X53332871Y-107487359D01*
X53295226Y-107298102D01*
X53217205Y-107109744D01*
X53103937Y-106940226D01*
X52959774Y-106796063D01*
X52790256Y-106682795D01*
X52601898Y-106604774D01*
X52401939Y-106565000D01*
X52198061Y-106565000D01*
X51998102Y-106604774D01*
X51809744Y-106682795D01*
X51640226Y-106796063D01*
X51496063Y-106940226D01*
X51382795Y-107109744D01*
X51304774Y-107298102D01*
X51265000Y-107498061D01*
X46368283Y-107498061D01*
X46293386Y-107436595D01*
X46139850Y-107354528D01*
X45973254Y-107303992D01*
X45800000Y-107286928D01*
X44600000Y-107286928D01*
X44426746Y-107303992D01*
X44260150Y-107354528D01*
X44106614Y-107436595D01*
X43972038Y-107547038D01*
X43861595Y-107681614D01*
X43807223Y-107783337D01*
X43755134Y-107719866D01*
X43529014Y-107534294D01*
X43271034Y-107396401D01*
X42991111Y-107311487D01*
X42700000Y-107282815D01*
X42408890Y-107311487D01*
X42128967Y-107396401D01*
X41870987Y-107534294D01*
X41644866Y-107719866D01*
X41459294Y-107945986D01*
X41450000Y-107963374D01*
X41440706Y-107945986D01*
X41255134Y-107719866D01*
X41029014Y-107534294D01*
X40771034Y-107396401D01*
X40491111Y-107311487D01*
X40200000Y-107282815D01*
X39908890Y-107311487D01*
X39628967Y-107396401D01*
X39370987Y-107534294D01*
X39144866Y-107719866D01*
X38959294Y-107945986D01*
X38950000Y-107963374D01*
X38940706Y-107945986D01*
X38755134Y-107719866D01*
X38529014Y-107534294D01*
X38271034Y-107396401D01*
X37991111Y-107311487D01*
X37700000Y-107282815D01*
X37408890Y-107311487D01*
X37128967Y-107396401D01*
X36870987Y-107534294D01*
X36644866Y-107719866D01*
X36459294Y-107945986D01*
X36321401Y-108203966D01*
X36236487Y-108483889D01*
X36215000Y-108702050D01*
X36215000Y-109097949D01*
X36236487Y-109316110D01*
X36321401Y-109596033D01*
X36459294Y-109854013D01*
X36644866Y-110080134D01*
X36870986Y-110265706D01*
X37128966Y-110403599D01*
X37408889Y-110488513D01*
X37700000Y-110517185D01*
X37991110Y-110488513D01*
X38271033Y-110403599D01*
X38529013Y-110265706D01*
X38755134Y-110080134D01*
X38940706Y-109854014D01*
X38950000Y-109836626D01*
X38959294Y-109854013D01*
X39144866Y-110080134D01*
X39370986Y-110265706D01*
X39440000Y-110302595D01*
X39440001Y-125505197D01*
X37562778Y-127382421D01*
X37275104Y-127325200D01*
X36964896Y-127325200D01*
X36660648Y-127385718D01*
X36374052Y-127504430D01*
X36116123Y-127676773D01*
X35896773Y-127896123D01*
X35724430Y-128154052D01*
X35605718Y-128440648D01*
X35545200Y-128744896D01*
X20695000Y-128744896D01*
X20695000Y-113504896D01*
X21575200Y-113504896D01*
X21575200Y-113815104D01*
X21635718Y-114119352D01*
X21754430Y-114405948D01*
X21926773Y-114663877D01*
X22146123Y-114883227D01*
X22404052Y-115055570D01*
X22690648Y-115174282D01*
X22994896Y-115234800D01*
X23305104Y-115234800D01*
X23609352Y-115174282D01*
X23895948Y-115055570D01*
X24153877Y-114883227D01*
X24373227Y-114663877D01*
X24420000Y-114593876D01*
X24466773Y-114663877D01*
X24686123Y-114883227D01*
X24944052Y-115055570D01*
X25230648Y-115174282D01*
X25534896Y-115234800D01*
X25845104Y-115234800D01*
X26149352Y-115174282D01*
X26435948Y-115055570D01*
X26693877Y-114883227D01*
X26913227Y-114663877D01*
X26960000Y-114593876D01*
X27006773Y-114663877D01*
X27226123Y-114883227D01*
X27484052Y-115055570D01*
X27770648Y-115174282D01*
X28074896Y-115234800D01*
X28385104Y-115234800D01*
X28689352Y-115174282D01*
X28975948Y-115055570D01*
X29233877Y-114883227D01*
X29364628Y-114752476D01*
X29857129Y-114752476D01*
X29945623Y-115010723D01*
X30224976Y-115145597D01*
X30525275Y-115223381D01*
X30834977Y-115241084D01*
X31142184Y-115198027D01*
X31435086Y-115095865D01*
X31594377Y-115010723D01*
X31682871Y-114752476D01*
X30770000Y-113839605D01*
X29857129Y-114752476D01*
X29364628Y-114752476D01*
X29453227Y-114663877D01*
X29544495Y-114527286D01*
X29677524Y-114572871D01*
X30590395Y-113660000D01*
X30949605Y-113660000D01*
X31862476Y-114572871D01*
X31995505Y-114527286D01*
X32086773Y-114663877D01*
X32306123Y-114883227D01*
X32564052Y-115055570D01*
X32850648Y-115174282D01*
X33154896Y-115234800D01*
X33465104Y-115234800D01*
X33769352Y-115174282D01*
X34055948Y-115055570D01*
X34313877Y-114883227D01*
X34533227Y-114663877D01*
X34580000Y-114593876D01*
X34626773Y-114663877D01*
X34846123Y-114883227D01*
X35104052Y-115055570D01*
X35390648Y-115174282D01*
X35694896Y-115234800D01*
X36005104Y-115234800D01*
X36309352Y-115174282D01*
X36595948Y-115055570D01*
X36853877Y-114883227D01*
X37073227Y-114663877D01*
X37245570Y-114405948D01*
X37364282Y-114119352D01*
X37424800Y-113815104D01*
X37424800Y-113504896D01*
X37364282Y-113200648D01*
X37245570Y-112914052D01*
X37073227Y-112656123D01*
X36853877Y-112436773D01*
X36595948Y-112264430D01*
X36309352Y-112145718D01*
X36005104Y-112085200D01*
X35694896Y-112085200D01*
X35390648Y-112145718D01*
X35104052Y-112264430D01*
X34846123Y-112436773D01*
X34626773Y-112656123D01*
X34580000Y-112726124D01*
X34533227Y-112656123D01*
X34313877Y-112436773D01*
X34055948Y-112264430D01*
X33769352Y-112145718D01*
X33465104Y-112085200D01*
X33154896Y-112085200D01*
X32850648Y-112145718D01*
X32564052Y-112264430D01*
X32306123Y-112436773D01*
X32086773Y-112656123D01*
X31995505Y-112792714D01*
X31862476Y-112747129D01*
X30949605Y-113660000D01*
X30590395Y-113660000D01*
X29677524Y-112747129D01*
X29544495Y-112792714D01*
X29453227Y-112656123D01*
X29364628Y-112567524D01*
X29857129Y-112567524D01*
X30770000Y-113480395D01*
X31682871Y-112567524D01*
X31594377Y-112309277D01*
X31315024Y-112174403D01*
X31014725Y-112096619D01*
X30705023Y-112078916D01*
X30397816Y-112121973D01*
X30104914Y-112224135D01*
X29945623Y-112309277D01*
X29857129Y-112567524D01*
X29364628Y-112567524D01*
X29233877Y-112436773D01*
X28975948Y-112264430D01*
X28689352Y-112145718D01*
X28385104Y-112085200D01*
X28074896Y-112085200D01*
X27770648Y-112145718D01*
X27484052Y-112264430D01*
X27226123Y-112436773D01*
X27006773Y-112656123D01*
X26960000Y-112726124D01*
X26913227Y-112656123D01*
X26693877Y-112436773D01*
X26435948Y-112264430D01*
X26149352Y-112145718D01*
X25845104Y-112085200D01*
X25534896Y-112085200D01*
X25230648Y-112145718D01*
X24944052Y-112264430D01*
X24686123Y-112436773D01*
X24466773Y-112656123D01*
X24420000Y-112726124D01*
X24373227Y-112656123D01*
X24153877Y-112436773D01*
X23895948Y-112264430D01*
X23609352Y-112145718D01*
X23305104Y-112085200D01*
X22994896Y-112085200D01*
X22690648Y-112145718D01*
X22404052Y-112264430D01*
X22146123Y-112436773D01*
X21926773Y-112656123D01*
X21754430Y-112914052D01*
X21635718Y-113200648D01*
X21575200Y-113504896D01*
X20695000Y-113504896D01*
X20695000Y-110797715D01*
X20744822Y-110881355D01*
X20939731Y-111097588D01*
X21173080Y-111271641D01*
X21435901Y-111396825D01*
X21583110Y-111441476D01*
X21813000Y-111320155D01*
X21813000Y-110127000D01*
X21793000Y-110127000D01*
X21793000Y-109873000D01*
X21813000Y-109873000D01*
X21813000Y-108679845D01*
X22067000Y-108679845D01*
X22067000Y-109873000D01*
X22087000Y-109873000D01*
X22087000Y-110127000D01*
X22067000Y-110127000D01*
X22067000Y-111320155D01*
X22296890Y-111441476D01*
X22444099Y-111396825D01*
X22706920Y-111271641D01*
X22940269Y-111097588D01*
X23135178Y-110881355D01*
X23204799Y-110764477D01*
X23239294Y-110829014D01*
X23424866Y-111055134D01*
X23650986Y-111240706D01*
X23908966Y-111378599D01*
X24188889Y-111463513D01*
X24407050Y-111485000D01*
X24552950Y-111485000D01*
X24771111Y-111463513D01*
X25051034Y-111378599D01*
X25309014Y-111240706D01*
X25535134Y-111055134D01*
X25720706Y-110829014D01*
X25750000Y-110774209D01*
X25779294Y-110829014D01*
X25964866Y-111055134D01*
X26190986Y-111240706D01*
X26448966Y-111378599D01*
X26728889Y-111463513D01*
X26947050Y-111485000D01*
X27092950Y-111485000D01*
X27311111Y-111463513D01*
X27591034Y-111378599D01*
X27849014Y-111240706D01*
X28075134Y-111055134D01*
X28260706Y-110829014D01*
X28290000Y-110774209D01*
X28319294Y-110829014D01*
X28504866Y-111055134D01*
X28730986Y-111240706D01*
X28988966Y-111378599D01*
X29268889Y-111463513D01*
X29487050Y-111485000D01*
X29632950Y-111485000D01*
X29851111Y-111463513D01*
X30131034Y-111378599D01*
X30389014Y-111240706D01*
X30615134Y-111055134D01*
X30639607Y-111025313D01*
X30660498Y-111094180D01*
X30719463Y-111204494D01*
X30798815Y-111301185D01*
X30895506Y-111380537D01*
X31005820Y-111439502D01*
X31125518Y-111475812D01*
X31250000Y-111488072D01*
X32950000Y-111488072D01*
X33074482Y-111475812D01*
X33194180Y-111439502D01*
X33304494Y-111380537D01*
X33401185Y-111301185D01*
X33480537Y-111204494D01*
X33539502Y-111094180D01*
X33575812Y-110974482D01*
X33588072Y-110850000D01*
X33588072Y-109150000D01*
X33575812Y-109025518D01*
X33539502Y-108905820D01*
X33480537Y-108795506D01*
X33401185Y-108698815D01*
X33304494Y-108619463D01*
X33194180Y-108560498D01*
X33074482Y-108524188D01*
X32950000Y-108511928D01*
X31250000Y-108511928D01*
X31125518Y-108524188D01*
X31005820Y-108560498D01*
X30895506Y-108619463D01*
X30798815Y-108698815D01*
X30719463Y-108795506D01*
X30660498Y-108905820D01*
X30639607Y-108974687D01*
X30615134Y-108944866D01*
X30389014Y-108759294D01*
X30131034Y-108621401D01*
X29851111Y-108536487D01*
X29632950Y-108515000D01*
X29487050Y-108515000D01*
X29268889Y-108536487D01*
X28988966Y-108621401D01*
X28730986Y-108759294D01*
X28504866Y-108944866D01*
X28319294Y-109170986D01*
X28290000Y-109225791D01*
X28260706Y-109170986D01*
X28075134Y-108944866D01*
X27849014Y-108759294D01*
X27591034Y-108621401D01*
X27311111Y-108536487D01*
X27092950Y-108515000D01*
X26947050Y-108515000D01*
X26728889Y-108536487D01*
X26448966Y-108621401D01*
X26190986Y-108759294D01*
X25964866Y-108944866D01*
X25779294Y-109170986D01*
X25750000Y-109225791D01*
X25720706Y-109170986D01*
X25535134Y-108944866D01*
X25309014Y-108759294D01*
X25051034Y-108621401D01*
X24771111Y-108536487D01*
X24552950Y-108515000D01*
X24407050Y-108515000D01*
X24188889Y-108536487D01*
X23908966Y-108621401D01*
X23650986Y-108759294D01*
X23424866Y-108944866D01*
X23239294Y-109170986D01*
X23204799Y-109235523D01*
X23135178Y-109118645D01*
X22940269Y-108902412D01*
X22706920Y-108728359D01*
X22444099Y-108603175D01*
X22296890Y-108558524D01*
X22067000Y-108679845D01*
X21813000Y-108679845D01*
X21583110Y-108558524D01*
X21435901Y-108603175D01*
X21173080Y-108728359D01*
X20939731Y-108902412D01*
X20744822Y-109118645D01*
X20695000Y-109202285D01*
X20695000Y-104695000D01*
X67985500Y-104695000D01*
X67967129Y-104787359D01*
X67967129Y-104787359D01*
G37*
X67967129Y-104787359D02*
X67155383Y-105599105D01*
X67124473Y-105624472D01*
X67099108Y-105655380D01*
X67023251Y-105747811D01*
X66992804Y-105804774D01*
X66948037Y-105888527D01*
X66901720Y-106041212D01*
X66891260Y-106147414D01*
X66782795Y-106309744D01*
X66704774Y-106498102D01*
X66665000Y-106698061D01*
X66665000Y-106901939D01*
X66704774Y-107101898D01*
X66782795Y-107290256D01*
X66896063Y-107459774D01*
X67040226Y-107603937D01*
X67209744Y-107717205D01*
X67398102Y-107795226D01*
X67598061Y-107835000D01*
X67801939Y-107835000D01*
X68001898Y-107795226D01*
X68190256Y-107717205D01*
X68359774Y-107603937D01*
X68503937Y-107459774D01*
X68617205Y-107290256D01*
X68695226Y-107101898D01*
X68735000Y-106901939D01*
X68735000Y-106698061D01*
X68695226Y-106498102D01*
X68651932Y-106393581D01*
X69112641Y-105932871D01*
X69301898Y-105895226D01*
X69490256Y-105817205D01*
X69659774Y-105703937D01*
X69803937Y-105559774D01*
X69917205Y-105390256D01*
X69995226Y-105201898D01*
X70035000Y-105001939D01*
X70035000Y-104798061D01*
X70014500Y-104695000D01*
X84305001Y-104695000D01*
X84305000Y-145305000D01*
X20695000Y-145305000D01*
X20695000Y-128744896D01*
X35545200Y-128744896D01*
X35545200Y-129055104D01*
X35605718Y-129359352D01*
X35724430Y-129645948D01*
X35896773Y-129903877D01*
X36116123Y-130123227D01*
X36186124Y-130170000D01*
X36116123Y-130216773D01*
X35896773Y-130436123D01*
X35724430Y-130694052D01*
X35605718Y-130980648D01*
X35545200Y-131284896D01*
X35545200Y-131595104D01*
X35605718Y-131899352D01*
X35724430Y-132185948D01*
X35896773Y-132443877D01*
X36116123Y-132663227D01*
X36186124Y-132710000D01*
X36116123Y-132756773D01*
X35896773Y-132976123D01*
X35724430Y-133234052D01*
X35605718Y-133520648D01*
X35545200Y-133824896D01*
X35545200Y-134135104D01*
X35605718Y-134439352D01*
X35724430Y-134725948D01*
X35896773Y-134983877D01*
X36116123Y-135203227D01*
X36186124Y-135250000D01*
X36116123Y-135296773D01*
X35896773Y-135516123D01*
X35724430Y-135774052D01*
X35605718Y-136060648D01*
X35545200Y-136364896D01*
X35545200Y-136675104D01*
X35605718Y-136979352D01*
X35724430Y-137265948D01*
X35896773Y-137523877D01*
X36116123Y-137743227D01*
X36186124Y-137790000D01*
X36116123Y-137836773D01*
X35896773Y-138056123D01*
X35724430Y-138314052D01*
X35605718Y-138600648D01*
X35545200Y-138904896D01*
X35545200Y-139215104D01*
X35605718Y-139519352D01*
X35724430Y-139805948D01*
X35896773Y-140063877D01*
X36116123Y-140283227D01*
X36186124Y-140330000D01*
X36116123Y-140376773D01*
X35896773Y-140596123D01*
X35724430Y-140854052D01*
X35605718Y-141140648D01*
X35545200Y-141444896D01*
X35545200Y-141755104D01*
X35605718Y-142059352D01*
X35724430Y-142345948D01*
X35896773Y-142603877D01*
X36116123Y-142823227D01*
X36374052Y-142995570D01*
X36660648Y-143114282D01*
X36964896Y-143174800D01*
X37275104Y-143174800D01*
X37579352Y-143114282D01*
X37865948Y-142995570D01*
X38123877Y-142823227D01*
X38343227Y-142603877D01*
X38515570Y-142345948D01*
X38634282Y-142059352D01*
X38694800Y-141755104D01*
X38694800Y-141444896D01*
X38634282Y-141140648D01*
X38515570Y-140854052D01*
X38343227Y-140596123D01*
X38123877Y-140376773D01*
X38053876Y-140330000D01*
X38123877Y-140283227D01*
X38343227Y-140063877D01*
X38515570Y-139805948D01*
X38634282Y-139519352D01*
X38694800Y-139215104D01*
X38694800Y-138904896D01*
X38634282Y-138600648D01*
X38515570Y-138314052D01*
X38343227Y-138056123D01*
X38123877Y-137836773D01*
X38053876Y-137790000D01*
X38123877Y-137743227D01*
X38343227Y-137523877D01*
X38515570Y-137265948D01*
X38634282Y-136979352D01*
X38694800Y-136675104D01*
X38694800Y-136364896D01*
X38634282Y-136060648D01*
X38515570Y-135774052D01*
X38343227Y-135516123D01*
X38123877Y-135296773D01*
X38053876Y-135250000D01*
X38123877Y-135203227D01*
X38343227Y-134983877D01*
X38515570Y-134725948D01*
X38634282Y-134439352D01*
X38694800Y-134135104D01*
X38694800Y-133824896D01*
X38637579Y-133537222D01*
X40276740Y-131898061D01*
X57765000Y-131898061D01*
X57765000Y-132101939D01*
X57804774Y-132301898D01*
X57882795Y-132490256D01*
X57996063Y-132659774D01*
X58136289Y-132800000D01*
X57996063Y-132940226D01*
X57882795Y-133109744D01*
X57804774Y-133298102D01*
X57765000Y-133498061D01*
X57765000Y-133701939D01*
X57804774Y-133901898D01*
X57882795Y-134090256D01*
X57996063Y-134259774D01*
X58140226Y-134403937D01*
X58309744Y-134517205D01*
X58498102Y-134595226D01*
X58698061Y-134635000D01*
X58901939Y-134635000D01*
X59101898Y-134595226D01*
X59290256Y-134517205D01*
X59459774Y-134403937D01*
X59603937Y-134259774D01*
X59717205Y-134090256D01*
X59795226Y-133901898D01*
X59835000Y-133701939D01*
X59835000Y-133639801D01*
X61414802Y-132060000D01*
X61573000Y-132060000D01*
X61573000Y-136300000D01*
X61575440Y-136324776D01*
X61582667Y-136348601D01*
X61594403Y-136370557D01*
X61610197Y-136389803D01*
X61629443Y-136405597D01*
X61651399Y-136417333D01*
X61675224Y-136424560D01*
X61700000Y-136427000D01*
X66300000Y-136427000D01*
X66324776Y-136424560D01*
X66348601Y-136417333D01*
X66370557Y-136405597D01*
X66389803Y-136389803D01*
X66405597Y-136370557D01*
X66417333Y-136348601D01*
X66424560Y-136324776D01*
X66427000Y-136300000D01*
X66427000Y-132060000D01*
X66585199Y-132060000D01*
X68165000Y-133639802D01*
X68165000Y-133701939D01*
X68204774Y-133901898D01*
X68282795Y-134090256D01*
X68396063Y-134259774D01*
X68540226Y-134403937D01*
X68709744Y-134517205D01*
X68898102Y-134595226D01*
X69098061Y-134635000D01*
X69301939Y-134635000D01*
X69501898Y-134595226D01*
X69690256Y-134517205D01*
X69859774Y-134403937D01*
X70003937Y-134259774D01*
X70117205Y-134090256D01*
X70195226Y-133901898D01*
X70235000Y-133701939D01*
X70235000Y-133498061D01*
X70195226Y-133298102D01*
X70117205Y-133109744D01*
X70003937Y-132940226D01*
X69863711Y-132800000D01*
X70003937Y-132659774D01*
X70117205Y-132490256D01*
X70195226Y-132301898D01*
X70235000Y-132101939D01*
X70235000Y-131898061D01*
X70195226Y-131698102D01*
X70117205Y-131509744D01*
X70003937Y-131340226D01*
X69859774Y-131196063D01*
X69690256Y-131082795D01*
X69501898Y-131004774D01*
X69301939Y-130965000D01*
X69239802Y-130965000D01*
X68563804Y-130289003D01*
X68540001Y-130259999D01*
X68424276Y-130165026D01*
X68292247Y-130094454D01*
X68148986Y-130050997D01*
X68037333Y-130040000D01*
X68037322Y-130040000D01*
X68000000Y-130036324D01*
X67962678Y-130040000D01*
X60037322Y-130040000D01*
X59999999Y-130036324D01*
X59962676Y-130040000D01*
X59962667Y-130040000D01*
X59851014Y-130050997D01*
X59707753Y-130094454D01*
X59575724Y-130165026D01*
X59459999Y-130259999D01*
X59436201Y-130288998D01*
X58760199Y-130965000D01*
X58698061Y-130965000D01*
X58498102Y-131004774D01*
X58309744Y-131082795D01*
X58140226Y-131196063D01*
X57996063Y-131340226D01*
X57882795Y-131509744D01*
X57804774Y-131698102D01*
X57765000Y-131898061D01*
X40276740Y-131898061D01*
X43276740Y-128898061D01*
X71965000Y-128898061D01*
X71965000Y-129101939D01*
X72004774Y-129301898D01*
X72082795Y-129490256D01*
X72196063Y-129659774D01*
X72340226Y-129803937D01*
X72509744Y-129917205D01*
X72698102Y-129995226D01*
X72898061Y-130035000D01*
X73101939Y-130035000D01*
X73301898Y-129995226D01*
X73490256Y-129917205D01*
X73650700Y-129810000D01*
X74749300Y-129810000D01*
X74909744Y-129917205D01*
X75098102Y-129995226D01*
X75298061Y-130035000D01*
X75501939Y-130035000D01*
X75701898Y-129995226D01*
X75890256Y-129917205D01*
X76059774Y-129803937D01*
X76203937Y-129659774D01*
X76317205Y-129490256D01*
X76395226Y-129301898D01*
X76435000Y-129101939D01*
X76435000Y-128898061D01*
X76395226Y-128698102D01*
X76317205Y-128509744D01*
X76203937Y-128340226D01*
X76059774Y-128196063D01*
X75890256Y-128082795D01*
X75701898Y-128004774D01*
X75501939Y-127965000D01*
X75298061Y-127965000D01*
X75098102Y-128004774D01*
X74909744Y-128082795D01*
X74749300Y-128190000D01*
X73650700Y-128190000D01*
X73490256Y-128082795D01*
X73301898Y-128004774D01*
X73101939Y-127965000D01*
X72898061Y-127965000D01*
X72698102Y-128004774D01*
X72509744Y-128082795D01*
X72340226Y-128196063D01*
X72196063Y-128340226D01*
X72082795Y-128509744D01*
X72004774Y-128698102D01*
X71965000Y-128898061D01*
X43276740Y-128898061D01*
X45711004Y-126463798D01*
X45740001Y-126440001D01*
X45834974Y-126324276D01*
X45905546Y-126192247D01*
X45949003Y-126048986D01*
X45960000Y-125937333D01*
X45960000Y-125937332D01*
X45963677Y-125900000D01*
X45960000Y-125862667D01*
X45960000Y-125798061D01*
X67565000Y-125798061D01*
X67565000Y-126001939D01*
X67604774Y-126201898D01*
X67682795Y-126390256D01*
X67796063Y-126559774D01*
X67940226Y-126703937D01*
X68109744Y-126817205D01*
X68298102Y-126895226D01*
X68498061Y-126935000D01*
X68701939Y-126935000D01*
X68901898Y-126895226D01*
X69090256Y-126817205D01*
X69259774Y-126703937D01*
X69403937Y-126559774D01*
X69517205Y-126390256D01*
X69572282Y-126257289D01*
X71266420Y-125228706D01*
X71298061Y-125235000D01*
X71501939Y-125235000D01*
X71701898Y-125195226D01*
X71890256Y-125117205D01*
X72059774Y-125003937D01*
X72203937Y-124859774D01*
X72317205Y-124690256D01*
X72395226Y-124501898D01*
X72435000Y-124301939D01*
X72435000Y-124098061D01*
X72395226Y-123898102D01*
X72317205Y-123709744D01*
X72203937Y-123540226D01*
X72059774Y-123396063D01*
X71890256Y-123282795D01*
X71701898Y-123204774D01*
X71501939Y-123165000D01*
X71298061Y-123165000D01*
X71098102Y-123204774D01*
X70909744Y-123282795D01*
X70740226Y-123396063D01*
X70596063Y-123540226D01*
X70482795Y-123709744D01*
X70427718Y-123842710D01*
X68733581Y-124871294D01*
X68701939Y-124865000D01*
X68498061Y-124865000D01*
X68298102Y-124904774D01*
X68109744Y-124982795D01*
X67940226Y-125096063D01*
X67796063Y-125240226D01*
X67682795Y-125409744D01*
X67604774Y-125598102D01*
X67565000Y-125798061D01*
X45960000Y-125798061D01*
X45960000Y-120798061D01*
X51565000Y-120798061D01*
X51565000Y-121001939D01*
X51604774Y-121201898D01*
X51682795Y-121390256D01*
X51796063Y-121559774D01*
X51940226Y-121703937D01*
X52109744Y-121817205D01*
X52298102Y-121895226D01*
X52498061Y-121935000D01*
X52701939Y-121935000D01*
X52901898Y-121895226D01*
X53090256Y-121817205D01*
X53250700Y-121710000D01*
X54949300Y-121710000D01*
X55109744Y-121817205D01*
X55298102Y-121895226D01*
X55498061Y-121935000D01*
X55701939Y-121935000D01*
X55901898Y-121895226D01*
X56090256Y-121817205D01*
X56259774Y-121703937D01*
X56403937Y-121559774D01*
X56517205Y-121390256D01*
X56595226Y-121201898D01*
X56635000Y-121001939D01*
X56635000Y-120798061D01*
X56595226Y-120598102D01*
X56517205Y-120409744D01*
X56403937Y-120240226D01*
X56259774Y-120096063D01*
X56090256Y-119982795D01*
X55901898Y-119904774D01*
X55701939Y-119865000D01*
X55498061Y-119865000D01*
X55298102Y-119904774D01*
X55109744Y-119982795D01*
X54949300Y-120090000D01*
X53250700Y-120090000D01*
X53090256Y-119982795D01*
X52901898Y-119904774D01*
X52701939Y-119865000D01*
X52498061Y-119865000D01*
X52298102Y-119904774D01*
X52109744Y-119982795D01*
X51940226Y-120096063D01*
X51796063Y-120240226D01*
X51682795Y-120409744D01*
X51604774Y-120598102D01*
X51565000Y-120798061D01*
X45960000Y-120798061D01*
X45960000Y-116298061D01*
X57765000Y-116298061D01*
X57765000Y-116501939D01*
X57804774Y-116701898D01*
X57882795Y-116890256D01*
X57996063Y-117059774D01*
X58136289Y-117200000D01*
X58019078Y-117317211D01*
X57905810Y-117486729D01*
X57827789Y-117675087D01*
X57788015Y-117875046D01*
X57788015Y-118078924D01*
X57827789Y-118278883D01*
X57905810Y-118467241D01*
X58019078Y-118636759D01*
X58163241Y-118780922D01*
X58332759Y-118894190D01*
X58521117Y-118972211D01*
X58721076Y-119011985D01*
X58783214Y-119011985D01*
X59357256Y-119586029D01*
X59381050Y-119615022D01*
X59410043Y-119638816D01*
X59410047Y-119638820D01*
X59480736Y-119696832D01*
X59496775Y-119709995D01*
X59628804Y-119780567D01*
X59772065Y-119824024D01*
X59883718Y-119835021D01*
X59883727Y-119835021D01*
X59921050Y-119838697D01*
X59958373Y-119835021D01*
X64632723Y-119835021D01*
X64582795Y-119909744D01*
X64504774Y-120098102D01*
X64465000Y-120298061D01*
X64465000Y-120501939D01*
X64504774Y-120701898D01*
X64582795Y-120890256D01*
X64696063Y-121059774D01*
X64840226Y-121203937D01*
X65009744Y-121317205D01*
X65198102Y-121395226D01*
X65398061Y-121435000D01*
X65601939Y-121435000D01*
X65801898Y-121395226D01*
X65990256Y-121317205D01*
X66159774Y-121203937D01*
X66303937Y-121059774D01*
X66417205Y-120890256D01*
X66495226Y-120701898D01*
X66535000Y-120501939D01*
X66535000Y-120298061D01*
X66495226Y-120098102D01*
X66417205Y-119909744D01*
X66367277Y-119835021D01*
X68087657Y-119835021D01*
X68124979Y-119838697D01*
X68162301Y-119835021D01*
X68162312Y-119835021D01*
X68273965Y-119824024D01*
X68417226Y-119780567D01*
X68549255Y-119709995D01*
X68664980Y-119615022D01*
X68688783Y-119586019D01*
X69239802Y-119035000D01*
X69301939Y-119035000D01*
X69501898Y-118995226D01*
X69690256Y-118917205D01*
X69859774Y-118803937D01*
X70003937Y-118659774D01*
X70117205Y-118490256D01*
X70195226Y-118301898D01*
X70235000Y-118101939D01*
X70235000Y-117898061D01*
X70195226Y-117698102D01*
X70117205Y-117509744D01*
X70003937Y-117340226D01*
X69863711Y-117200000D01*
X70003937Y-117059774D01*
X70117205Y-116890256D01*
X70195226Y-116701898D01*
X70235000Y-116501939D01*
X70235000Y-116298061D01*
X70195226Y-116098102D01*
X70117205Y-115909744D01*
X70003937Y-115740226D01*
X69859774Y-115596063D01*
X69690256Y-115482795D01*
X69501898Y-115404774D01*
X69301939Y-115365000D01*
X69098061Y-115365000D01*
X68898102Y-115404774D01*
X68709744Y-115482795D01*
X68540226Y-115596063D01*
X68396063Y-115740226D01*
X68282795Y-115909744D01*
X68204774Y-116098102D01*
X68165000Y-116298061D01*
X68165000Y-116360198D01*
X66660189Y-117865010D01*
X66427000Y-117865010D01*
X66427000Y-113700000D01*
X66424560Y-113675224D01*
X66417333Y-113651399D01*
X66405597Y-113629443D01*
X66389803Y-113610197D01*
X66370557Y-113594403D01*
X66348601Y-113582667D01*
X66324776Y-113575440D01*
X66300000Y-113573000D01*
X61700000Y-113573000D01*
X61675224Y-113575440D01*
X61651399Y-113582667D01*
X61629443Y-113594403D01*
X61610197Y-113610197D01*
X61594403Y-113629443D01*
X61582667Y-113651399D01*
X61575440Y-113675224D01*
X61573000Y-113700000D01*
X61573000Y-117865010D01*
X61339812Y-117865010D01*
X59835000Y-116360199D01*
X59835000Y-116298061D01*
X59795226Y-116098102D01*
X59717205Y-115909744D01*
X59603937Y-115740226D01*
X59459774Y-115596063D01*
X59290256Y-115482795D01*
X59101898Y-115404774D01*
X58901939Y-115365000D01*
X58698061Y-115365000D01*
X58498102Y-115404774D01*
X58309744Y-115482795D01*
X58140226Y-115596063D01*
X57996063Y-115740226D01*
X57882795Y-115909744D01*
X57804774Y-116098102D01*
X57765000Y-116298061D01*
X45960000Y-116298061D01*
X45960000Y-110497313D01*
X45973254Y-110496008D01*
X46139850Y-110445472D01*
X46293386Y-110363405D01*
X46427962Y-110252962D01*
X46538405Y-110118386D01*
X46620472Y-109964850D01*
X46671008Y-109798254D01*
X46688072Y-109625000D01*
X46688072Y-108175000D01*
X46671008Y-108001746D01*
X46620472Y-107835150D01*
X46538405Y-107681614D01*
X46427962Y-107547038D01*
X46368283Y-107498061D01*
X51265000Y-107498061D01*
X51265000Y-107701939D01*
X51304774Y-107901898D01*
X51382795Y-108090256D01*
X51496063Y-108259774D01*
X51640226Y-108403937D01*
X51809744Y-108517205D01*
X51998102Y-108595226D01*
X52187359Y-108632871D01*
X53467129Y-109912642D01*
X53504774Y-110101898D01*
X53582795Y-110290256D01*
X53696063Y-110459774D01*
X53840226Y-110603937D01*
X54009744Y-110717205D01*
X54198102Y-110795226D01*
X54398061Y-110835000D01*
X54601939Y-110835000D01*
X54801898Y-110795226D01*
X54990256Y-110717205D01*
X55159774Y-110603937D01*
X55303937Y-110459774D01*
X55417205Y-110290256D01*
X55495226Y-110101898D01*
X55535000Y-109901939D01*
X55535000Y-109698061D01*
X55495226Y-109498102D01*
X55417205Y-109309744D01*
X55303937Y-109140226D01*
X55159774Y-108996063D01*
X54990256Y-108882795D01*
X54801898Y-108804774D01*
X54612642Y-108767129D01*
X53332871Y-107487359D01*
X53295226Y-107298102D01*
X53217205Y-107109744D01*
X53103937Y-106940226D01*
X52959774Y-106796063D01*
X52790256Y-106682795D01*
X52601898Y-106604774D01*
X52401939Y-106565000D01*
X52198061Y-106565000D01*
X51998102Y-106604774D01*
X51809744Y-106682795D01*
X51640226Y-106796063D01*
X51496063Y-106940226D01*
X51382795Y-107109744D01*
X51304774Y-107298102D01*
X51265000Y-107498061D01*
X46368283Y-107498061D01*
X46293386Y-107436595D01*
X46139850Y-107354528D01*
X45973254Y-107303992D01*
X45800000Y-107286928D01*
X44600000Y-107286928D01*
X44426746Y-107303992D01*
X44260150Y-107354528D01*
X44106614Y-107436595D01*
X43972038Y-107547038D01*
X43861595Y-107681614D01*
X43807223Y-107783337D01*
X43755134Y-107719866D01*
X43529014Y-107534294D01*
X43271034Y-107396401D01*
X42991111Y-107311487D01*
X42700000Y-107282815D01*
X42408890Y-107311487D01*
X42128967Y-107396401D01*
X41870987Y-107534294D01*
X41644866Y-107719866D01*
X41459294Y-107945986D01*
X41450000Y-107963374D01*
X41440706Y-107945986D01*
X41255134Y-107719866D01*
X41029014Y-107534294D01*
X40771034Y-107396401D01*
X40491111Y-107311487D01*
X40200000Y-107282815D01*
X39908890Y-107311487D01*
X39628967Y-107396401D01*
X39370987Y-107534294D01*
X39144866Y-107719866D01*
X38959294Y-107945986D01*
X38950000Y-107963374D01*
X38940706Y-107945986D01*
X38755134Y-107719866D01*
X38529014Y-107534294D01*
X38271034Y-107396401D01*
X37991111Y-107311487D01*
X37700000Y-107282815D01*
X37408890Y-107311487D01*
X37128967Y-107396401D01*
X36870987Y-107534294D01*
X36644866Y-107719866D01*
X36459294Y-107945986D01*
X36321401Y-108203966D01*
X36236487Y-108483889D01*
X36215000Y-108702050D01*
X36215000Y-109097949D01*
X36236487Y-109316110D01*
X36321401Y-109596033D01*
X36459294Y-109854013D01*
X36644866Y-110080134D01*
X36870986Y-110265706D01*
X37128966Y-110403599D01*
X37408889Y-110488513D01*
X37700000Y-110517185D01*
X37991110Y-110488513D01*
X38271033Y-110403599D01*
X38529013Y-110265706D01*
X38755134Y-110080134D01*
X38940706Y-109854014D01*
X38950000Y-109836626D01*
X38959294Y-109854013D01*
X39144866Y-110080134D01*
X39370986Y-110265706D01*
X39440000Y-110302595D01*
X39440001Y-125505197D01*
X37562778Y-127382421D01*
X37275104Y-127325200D01*
X36964896Y-127325200D01*
X36660648Y-127385718D01*
X36374052Y-127504430D01*
X36116123Y-127676773D01*
X35896773Y-127896123D01*
X35724430Y-128154052D01*
X35605718Y-128440648D01*
X35545200Y-128744896D01*
X20695000Y-128744896D01*
X20695000Y-113504896D01*
X21575200Y-113504896D01*
X21575200Y-113815104D01*
X21635718Y-114119352D01*
X21754430Y-114405948D01*
X21926773Y-114663877D01*
X22146123Y-114883227D01*
X22404052Y-115055570D01*
X22690648Y-115174282D01*
X22994896Y-115234800D01*
X23305104Y-115234800D01*
X23609352Y-115174282D01*
X23895948Y-115055570D01*
X24153877Y-114883227D01*
X24373227Y-114663877D01*
X24420000Y-114593876D01*
X24466773Y-114663877D01*
X24686123Y-114883227D01*
X24944052Y-115055570D01*
X25230648Y-115174282D01*
X25534896Y-115234800D01*
X25845104Y-115234800D01*
X26149352Y-115174282D01*
X26435948Y-115055570D01*
X26693877Y-114883227D01*
X26913227Y-114663877D01*
X26960000Y-114593876D01*
X27006773Y-114663877D01*
X27226123Y-114883227D01*
X27484052Y-115055570D01*
X27770648Y-115174282D01*
X28074896Y-115234800D01*
X28385104Y-115234800D01*
X28689352Y-115174282D01*
X28975948Y-115055570D01*
X29233877Y-114883227D01*
X29364628Y-114752476D01*
X29857129Y-114752476D01*
X29945623Y-115010723D01*
X30224976Y-115145597D01*
X30525275Y-115223381D01*
X30834977Y-115241084D01*
X31142184Y-115198027D01*
X31435086Y-115095865D01*
X31594377Y-115010723D01*
X31682871Y-114752476D01*
X30770000Y-113839605D01*
X29857129Y-114752476D01*
X29364628Y-114752476D01*
X29453227Y-114663877D01*
X29544495Y-114527286D01*
X29677524Y-114572871D01*
X30590395Y-113660000D01*
X30949605Y-113660000D01*
X31862476Y-114572871D01*
X31995505Y-114527286D01*
X32086773Y-114663877D01*
X32306123Y-114883227D01*
X32564052Y-115055570D01*
X32850648Y-115174282D01*
X33154896Y-115234800D01*
X33465104Y-115234800D01*
X33769352Y-115174282D01*
X34055948Y-115055570D01*
X34313877Y-114883227D01*
X34533227Y-114663877D01*
X34580000Y-114593876D01*
X34626773Y-114663877D01*
X34846123Y-114883227D01*
X35104052Y-115055570D01*
X35390648Y-115174282D01*
X35694896Y-115234800D01*
X36005104Y-115234800D01*
X36309352Y-115174282D01*
X36595948Y-115055570D01*
X36853877Y-114883227D01*
X37073227Y-114663877D01*
X37245570Y-114405948D01*
X37364282Y-114119352D01*
X37424800Y-113815104D01*
X37424800Y-113504896D01*
X37364282Y-113200648D01*
X37245570Y-112914052D01*
X37073227Y-112656123D01*
X36853877Y-112436773D01*
X36595948Y-112264430D01*
X36309352Y-112145718D01*
X36005104Y-112085200D01*
X35694896Y-112085200D01*
X35390648Y-112145718D01*
X35104052Y-112264430D01*
X34846123Y-112436773D01*
X34626773Y-112656123D01*
X34580000Y-112726124D01*
X34533227Y-112656123D01*
X34313877Y-112436773D01*
X34055948Y-112264430D01*
X33769352Y-112145718D01*
X33465104Y-112085200D01*
X33154896Y-112085200D01*
X32850648Y-112145718D01*
X32564052Y-112264430D01*
X32306123Y-112436773D01*
X32086773Y-112656123D01*
X31995505Y-112792714D01*
X31862476Y-112747129D01*
X30949605Y-113660000D01*
X30590395Y-113660000D01*
X29677524Y-112747129D01*
X29544495Y-112792714D01*
X29453227Y-112656123D01*
X29364628Y-112567524D01*
X29857129Y-112567524D01*
X30770000Y-113480395D01*
X31682871Y-112567524D01*
X31594377Y-112309277D01*
X31315024Y-112174403D01*
X31014725Y-112096619D01*
X30705023Y-112078916D01*
X30397816Y-112121973D01*
X30104914Y-112224135D01*
X29945623Y-112309277D01*
X29857129Y-112567524D01*
X29364628Y-112567524D01*
X29233877Y-112436773D01*
X28975948Y-112264430D01*
X28689352Y-112145718D01*
X28385104Y-112085200D01*
X28074896Y-112085200D01*
X27770648Y-112145718D01*
X27484052Y-112264430D01*
X27226123Y-112436773D01*
X27006773Y-112656123D01*
X26960000Y-112726124D01*
X26913227Y-112656123D01*
X26693877Y-112436773D01*
X26435948Y-112264430D01*
X26149352Y-112145718D01*
X25845104Y-112085200D01*
X25534896Y-112085200D01*
X25230648Y-112145718D01*
X24944052Y-112264430D01*
X24686123Y-112436773D01*
X24466773Y-112656123D01*
X24420000Y-112726124D01*
X24373227Y-112656123D01*
X24153877Y-112436773D01*
X23895948Y-112264430D01*
X23609352Y-112145718D01*
X23305104Y-112085200D01*
X22994896Y-112085200D01*
X22690648Y-112145718D01*
X22404052Y-112264430D01*
X22146123Y-112436773D01*
X21926773Y-112656123D01*
X21754430Y-112914052D01*
X21635718Y-113200648D01*
X21575200Y-113504896D01*
X20695000Y-113504896D01*
X20695000Y-110797715D01*
X20744822Y-110881355D01*
X20939731Y-111097588D01*
X21173080Y-111271641D01*
X21435901Y-111396825D01*
X21583110Y-111441476D01*
X21813000Y-111320155D01*
X21813000Y-110127000D01*
X21793000Y-110127000D01*
X21793000Y-109873000D01*
X21813000Y-109873000D01*
X21813000Y-108679845D01*
X22067000Y-108679845D01*
X22067000Y-109873000D01*
X22087000Y-109873000D01*
X22087000Y-110127000D01*
X22067000Y-110127000D01*
X22067000Y-111320155D01*
X22296890Y-111441476D01*
X22444099Y-111396825D01*
X22706920Y-111271641D01*
X22940269Y-111097588D01*
X23135178Y-110881355D01*
X23204799Y-110764477D01*
X23239294Y-110829014D01*
X23424866Y-111055134D01*
X23650986Y-111240706D01*
X23908966Y-111378599D01*
X24188889Y-111463513D01*
X24407050Y-111485000D01*
X24552950Y-111485000D01*
X24771111Y-111463513D01*
X25051034Y-111378599D01*
X25309014Y-111240706D01*
X25535134Y-111055134D01*
X25720706Y-110829014D01*
X25750000Y-110774209D01*
X25779294Y-110829014D01*
X25964866Y-111055134D01*
X26190986Y-111240706D01*
X26448966Y-111378599D01*
X26728889Y-111463513D01*
X26947050Y-111485000D01*
X27092950Y-111485000D01*
X27311111Y-111463513D01*
X27591034Y-111378599D01*
X27849014Y-111240706D01*
X28075134Y-111055134D01*
X28260706Y-110829014D01*
X28290000Y-110774209D01*
X28319294Y-110829014D01*
X28504866Y-111055134D01*
X28730986Y-111240706D01*
X28988966Y-111378599D01*
X29268889Y-111463513D01*
X29487050Y-111485000D01*
X29632950Y-111485000D01*
X29851111Y-111463513D01*
X30131034Y-111378599D01*
X30389014Y-111240706D01*
X30615134Y-111055134D01*
X30639607Y-111025313D01*
X30660498Y-111094180D01*
X30719463Y-111204494D01*
X30798815Y-111301185D01*
X30895506Y-111380537D01*
X31005820Y-111439502D01*
X31125518Y-111475812D01*
X31250000Y-111488072D01*
X32950000Y-111488072D01*
X33074482Y-111475812D01*
X33194180Y-111439502D01*
X33304494Y-111380537D01*
X33401185Y-111301185D01*
X33480537Y-111204494D01*
X33539502Y-111094180D01*
X33575812Y-110974482D01*
X33588072Y-110850000D01*
X33588072Y-109150000D01*
X33575812Y-109025518D01*
X33539502Y-108905820D01*
X33480537Y-108795506D01*
X33401185Y-108698815D01*
X33304494Y-108619463D01*
X33194180Y-108560498D01*
X33074482Y-108524188D01*
X32950000Y-108511928D01*
X31250000Y-108511928D01*
X31125518Y-108524188D01*
X31005820Y-108560498D01*
X30895506Y-108619463D01*
X30798815Y-108698815D01*
X30719463Y-108795506D01*
X30660498Y-108905820D01*
X30639607Y-108974687D01*
X30615134Y-108944866D01*
X30389014Y-108759294D01*
X30131034Y-108621401D01*
X29851111Y-108536487D01*
X29632950Y-108515000D01*
X29487050Y-108515000D01*
X29268889Y-108536487D01*
X28988966Y-108621401D01*
X28730986Y-108759294D01*
X28504866Y-108944866D01*
X28319294Y-109170986D01*
X28290000Y-109225791D01*
X28260706Y-109170986D01*
X28075134Y-108944866D01*
X27849014Y-108759294D01*
X27591034Y-108621401D01*
X27311111Y-108536487D01*
X27092950Y-108515000D01*
X26947050Y-108515000D01*
X26728889Y-108536487D01*
X26448966Y-108621401D01*
X26190986Y-108759294D01*
X25964866Y-108944866D01*
X25779294Y-109170986D01*
X25750000Y-109225791D01*
X25720706Y-109170986D01*
X25535134Y-108944866D01*
X25309014Y-108759294D01*
X25051034Y-108621401D01*
X24771111Y-108536487D01*
X24552950Y-108515000D01*
X24407050Y-108515000D01*
X24188889Y-108536487D01*
X23908966Y-108621401D01*
X23650986Y-108759294D01*
X23424866Y-108944866D01*
X23239294Y-109170986D01*
X23204799Y-109235523D01*
X23135178Y-109118645D01*
X22940269Y-108902412D01*
X22706920Y-108728359D01*
X22444099Y-108603175D01*
X22296890Y-108558524D01*
X22067000Y-108679845D01*
X21813000Y-108679845D01*
X21583110Y-108558524D01*
X21435901Y-108603175D01*
X21173080Y-108728359D01*
X20939731Y-108902412D01*
X20744822Y-109118645D01*
X20695000Y-109202285D01*
X20695000Y-104695000D01*
X67985500Y-104695000D01*
X67967129Y-104787359D01*
M02*
