G04 #@! TF.GenerationSoftware,KiCad,Pcbnew,5.1.4*
G04 #@! TF.CreationDate,2019-11-19T13:40:08+01:00*
G04 #@! TF.ProjectId,lamp,6c616d70-2e6b-4696-9361-645f70636258,rev?*
G04 #@! TF.SameCoordinates,Original*
G04 #@! TF.FileFunction,Soldermask,Top*
G04 #@! TF.FilePolarity,Negative*
%FSLAX46Y46*%
G04 Gerber Fmt 4.6, Leading zero omitted, Abs format (unit mm)*
G04 Created by KiCad (PCBNEW 5.1.4) date 2019-11-19 13:40:08*
%MOMM*%
%LPD*%
G04 APERTURE LIST*
%ADD10C,0.100000*%
G04 APERTURE END LIST*
D10*
G36*
X62951000Y-143251000D02*
G01*
X61849000Y-143251000D01*
X61849000Y-141649000D01*
X62951000Y-141649000D01*
X62951000Y-143251000D01*
X62951000Y-143251000D01*
G37*
G36*
X66151000Y-143251000D02*
G01*
X65049000Y-143251000D01*
X65049000Y-141649000D01*
X66151000Y-141649000D01*
X66151000Y-143251000D01*
X66151000Y-143251000D01*
G37*
G36*
X64551000Y-143251000D02*
G01*
X63449000Y-143251000D01*
X63449000Y-141649000D01*
X64551000Y-141649000D01*
X64551000Y-143251000D01*
X64551000Y-143251000D01*
G37*
G36*
X37423765Y-140598620D02*
G01*
X37613288Y-140677123D01*
X37783854Y-140791092D01*
X37928908Y-140936146D01*
X38042877Y-141106712D01*
X38121380Y-141296235D01*
X38161400Y-141497431D01*
X38161400Y-141702569D01*
X38121380Y-141903765D01*
X38042877Y-142093288D01*
X37928908Y-142263854D01*
X37783854Y-142408908D01*
X37613288Y-142522877D01*
X37613287Y-142522878D01*
X37613286Y-142522878D01*
X37423765Y-142601380D01*
X37222570Y-142641400D01*
X37017430Y-142641400D01*
X36816235Y-142601380D01*
X36626714Y-142522878D01*
X36626713Y-142522878D01*
X36626712Y-142522877D01*
X36456146Y-142408908D01*
X36311092Y-142263854D01*
X36197123Y-142093288D01*
X36118620Y-141903765D01*
X36078600Y-141702569D01*
X36078600Y-141497431D01*
X36118620Y-141296235D01*
X36197123Y-141106712D01*
X36311092Y-140936146D01*
X36456146Y-140791092D01*
X36626712Y-140677123D01*
X36816235Y-140598620D01*
X37017430Y-140558600D01*
X37222570Y-140558600D01*
X37423765Y-140598620D01*
X37423765Y-140598620D01*
G37*
G36*
X58551000Y-142251000D02*
G01*
X57449000Y-142251000D01*
X57449000Y-140649000D01*
X58551000Y-140649000D01*
X58551000Y-142251000D01*
X58551000Y-142251000D01*
G37*
G36*
X56951000Y-142251000D02*
G01*
X55849000Y-142251000D01*
X55849000Y-140649000D01*
X56951000Y-140649000D01*
X56951000Y-142251000D01*
X56951000Y-142251000D01*
G37*
G36*
X72151000Y-142251000D02*
G01*
X71049000Y-142251000D01*
X71049000Y-140649000D01*
X72151000Y-140649000D01*
X72151000Y-142251000D01*
X72151000Y-142251000D01*
G37*
G36*
X70551000Y-142251000D02*
G01*
X69449000Y-142251000D01*
X69449000Y-140649000D01*
X70551000Y-140649000D01*
X70551000Y-142251000D01*
X70551000Y-142251000D01*
G37*
G36*
X68951000Y-142251000D02*
G01*
X67849000Y-142251000D01*
X67849000Y-140649000D01*
X68951000Y-140649000D01*
X68951000Y-142251000D01*
X68951000Y-142251000D01*
G37*
G36*
X60151000Y-142251000D02*
G01*
X59049000Y-142251000D01*
X59049000Y-140649000D01*
X60151000Y-140649000D01*
X60151000Y-142251000D01*
X60151000Y-142251000D01*
G37*
G36*
X37423765Y-138058620D02*
G01*
X37613288Y-138137123D01*
X37783854Y-138251092D01*
X37928908Y-138396146D01*
X38042877Y-138566712D01*
X38121380Y-138756235D01*
X38161400Y-138957431D01*
X38161400Y-139162569D01*
X38121380Y-139363765D01*
X38042877Y-139553288D01*
X37928908Y-139723854D01*
X37783854Y-139868908D01*
X37613288Y-139982877D01*
X37613287Y-139982878D01*
X37613286Y-139982878D01*
X37423765Y-140061380D01*
X37222570Y-140101400D01*
X37017430Y-140101400D01*
X36816235Y-140061380D01*
X36626714Y-139982878D01*
X36626713Y-139982878D01*
X36626712Y-139982877D01*
X36456146Y-139868908D01*
X36311092Y-139723854D01*
X36197123Y-139553288D01*
X36118620Y-139363765D01*
X36078600Y-139162569D01*
X36078600Y-138957431D01*
X36118620Y-138756235D01*
X36197123Y-138566712D01*
X36311092Y-138396146D01*
X36456146Y-138251092D01*
X36626712Y-138137123D01*
X36816235Y-138058620D01*
X37017430Y-138018600D01*
X37222570Y-138018600D01*
X37423765Y-138058620D01*
X37423765Y-138058620D01*
G37*
G36*
X64551000Y-138351000D02*
G01*
X63449000Y-138351000D01*
X63449000Y-136749000D01*
X64551000Y-136749000D01*
X64551000Y-138351000D01*
X64551000Y-138351000D01*
G37*
G36*
X66151000Y-138351000D02*
G01*
X65049000Y-138351000D01*
X65049000Y-136749000D01*
X66151000Y-136749000D01*
X66151000Y-138351000D01*
X66151000Y-138351000D01*
G37*
G36*
X62951000Y-138351000D02*
G01*
X61849000Y-138351000D01*
X61849000Y-136749000D01*
X62951000Y-136749000D01*
X62951000Y-138351000D01*
X62951000Y-138351000D01*
G37*
G36*
X37423765Y-135518620D02*
G01*
X37613288Y-135597123D01*
X37783854Y-135711092D01*
X37928908Y-135856146D01*
X38042877Y-136026712D01*
X38121380Y-136216235D01*
X38161400Y-136417431D01*
X38161400Y-136622569D01*
X38121380Y-136823765D01*
X38042877Y-137013288D01*
X37928908Y-137183854D01*
X37783854Y-137328908D01*
X37613288Y-137442877D01*
X37613287Y-137442878D01*
X37613286Y-137442878D01*
X37423765Y-137521380D01*
X37222570Y-137561400D01*
X37017430Y-137561400D01*
X36816235Y-137521380D01*
X36626714Y-137442878D01*
X36626713Y-137442878D01*
X36626712Y-137442877D01*
X36456146Y-137328908D01*
X36311092Y-137183854D01*
X36197123Y-137013288D01*
X36118620Y-136823765D01*
X36078600Y-136622569D01*
X36078600Y-136417431D01*
X36118620Y-136216235D01*
X36197123Y-136026712D01*
X36311092Y-135856146D01*
X36456146Y-135711092D01*
X36626712Y-135597123D01*
X36816235Y-135518620D01*
X37017430Y-135478600D01*
X37222570Y-135478600D01*
X37423765Y-135518620D01*
X37423765Y-135518620D01*
G37*
G36*
X72151000Y-137351000D02*
G01*
X71049000Y-137351000D01*
X71049000Y-135749000D01*
X72151000Y-135749000D01*
X72151000Y-137351000D01*
X72151000Y-137351000D01*
G37*
G36*
X70551000Y-137351000D02*
G01*
X69449000Y-137351000D01*
X69449000Y-135749000D01*
X70551000Y-135749000D01*
X70551000Y-137351000D01*
X70551000Y-137351000D01*
G37*
G36*
X68951000Y-137351000D02*
G01*
X67849000Y-137351000D01*
X67849000Y-135749000D01*
X68951000Y-135749000D01*
X68951000Y-137351000D01*
X68951000Y-137351000D01*
G37*
G36*
X58551000Y-137351000D02*
G01*
X57449000Y-137351000D01*
X57449000Y-135749000D01*
X58551000Y-135749000D01*
X58551000Y-137351000D01*
X58551000Y-137351000D01*
G37*
G36*
X60151000Y-137351000D02*
G01*
X59049000Y-137351000D01*
X59049000Y-135749000D01*
X60151000Y-135749000D01*
X60151000Y-137351000D01*
X60151000Y-137351000D01*
G37*
G36*
X56951000Y-137351000D02*
G01*
X55849000Y-137351000D01*
X55849000Y-135749000D01*
X56951000Y-135749000D01*
X56951000Y-137351000D01*
X56951000Y-137351000D01*
G37*
G36*
X75951000Y-136251000D02*
G01*
X74849000Y-136251000D01*
X74849000Y-134649000D01*
X75951000Y-134649000D01*
X75951000Y-136251000D01*
X75951000Y-136251000D01*
G37*
G36*
X53151000Y-136251000D02*
G01*
X52049000Y-136251000D01*
X52049000Y-134649000D01*
X53151000Y-134649000D01*
X53151000Y-136251000D01*
X53151000Y-136251000D01*
G37*
G36*
X51551000Y-136251000D02*
G01*
X50449000Y-136251000D01*
X50449000Y-134649000D01*
X51551000Y-134649000D01*
X51551000Y-136251000D01*
X51551000Y-136251000D01*
G37*
G36*
X49951000Y-136251000D02*
G01*
X48849000Y-136251000D01*
X48849000Y-134649000D01*
X49951000Y-134649000D01*
X49951000Y-136251000D01*
X49951000Y-136251000D01*
G37*
G36*
X77551000Y-136251000D02*
G01*
X76449000Y-136251000D01*
X76449000Y-134649000D01*
X77551000Y-134649000D01*
X77551000Y-136251000D01*
X77551000Y-136251000D01*
G37*
G36*
X79151000Y-136251000D02*
G01*
X78049000Y-136251000D01*
X78049000Y-134649000D01*
X79151000Y-134649000D01*
X79151000Y-136251000D01*
X79151000Y-136251000D01*
G37*
G36*
X64306564Y-132989389D02*
G01*
X64497833Y-133068615D01*
X64497835Y-133068616D01*
X64669973Y-133183635D01*
X64816365Y-133330027D01*
X64921059Y-133486712D01*
X64931385Y-133502167D01*
X65010611Y-133693436D01*
X65051000Y-133896484D01*
X65051000Y-134103516D01*
X65010611Y-134306564D01*
X64941552Y-134473288D01*
X64931384Y-134497835D01*
X64816365Y-134669973D01*
X64669973Y-134816365D01*
X64497835Y-134931384D01*
X64497834Y-134931385D01*
X64497833Y-134931385D01*
X64306564Y-135010611D01*
X64103516Y-135051000D01*
X63896484Y-135051000D01*
X63693436Y-135010611D01*
X63502167Y-134931385D01*
X63502166Y-134931385D01*
X63502165Y-134931384D01*
X63330027Y-134816365D01*
X63183635Y-134669973D01*
X63068616Y-134497835D01*
X63058448Y-134473288D01*
X62989389Y-134306564D01*
X62949000Y-134103516D01*
X62949000Y-133896484D01*
X62989389Y-133693436D01*
X63068615Y-133502167D01*
X63078942Y-133486712D01*
X63183635Y-133330027D01*
X63330027Y-133183635D01*
X63502165Y-133068616D01*
X63502167Y-133068615D01*
X63693436Y-132989389D01*
X63896484Y-132949000D01*
X64103516Y-132949000D01*
X64306564Y-132989389D01*
X64306564Y-132989389D01*
G37*
G36*
X37423765Y-132978620D02*
G01*
X37593678Y-133049000D01*
X37613288Y-133057123D01*
X37783854Y-133171092D01*
X37928908Y-133316146D01*
X37928909Y-133316148D01*
X38042878Y-133486714D01*
X38121380Y-133676235D01*
X38161400Y-133877430D01*
X38161400Y-134082570D01*
X38147788Y-134151000D01*
X38121380Y-134283765D01*
X38042877Y-134473288D01*
X37928908Y-134643854D01*
X37783854Y-134788908D01*
X37613288Y-134902877D01*
X37613287Y-134902878D01*
X37613286Y-134902878D01*
X37423765Y-134981380D01*
X37222570Y-135021400D01*
X37017430Y-135021400D01*
X36816235Y-134981380D01*
X36626714Y-134902878D01*
X36626713Y-134902878D01*
X36626712Y-134902877D01*
X36456146Y-134788908D01*
X36311092Y-134643854D01*
X36197123Y-134473288D01*
X36118620Y-134283765D01*
X36092212Y-134151000D01*
X36078600Y-134082570D01*
X36078600Y-133877430D01*
X36118620Y-133676235D01*
X36197122Y-133486714D01*
X36311091Y-133316148D01*
X36311092Y-133316146D01*
X36456146Y-133171092D01*
X36626712Y-133057123D01*
X36646323Y-133049000D01*
X36816235Y-132978620D01*
X37017430Y-132938600D01*
X37222570Y-132938600D01*
X37423765Y-132978620D01*
X37423765Y-132978620D01*
G37*
G36*
X73251000Y-134151000D02*
G01*
X71649000Y-134151000D01*
X71649000Y-133049000D01*
X73251000Y-133049000D01*
X73251000Y-134151000D01*
X73251000Y-134151000D01*
G37*
G36*
X68351000Y-134151000D02*
G01*
X66749000Y-134151000D01*
X66749000Y-133049000D01*
X68351000Y-133049000D01*
X68351000Y-134151000D01*
X68351000Y-134151000D01*
G37*
G36*
X56351000Y-134151000D02*
G01*
X54749000Y-134151000D01*
X54749000Y-133049000D01*
X56351000Y-133049000D01*
X56351000Y-134151000D01*
X56351000Y-134151000D01*
G37*
G36*
X61251000Y-134151000D02*
G01*
X59649000Y-134151000D01*
X59649000Y-133049000D01*
X61251000Y-133049000D01*
X61251000Y-134151000D01*
X61251000Y-134151000D01*
G37*
G36*
X61251000Y-132551000D02*
G01*
X59649000Y-132551000D01*
X59649000Y-131449000D01*
X61251000Y-131449000D01*
X61251000Y-132551000D01*
X61251000Y-132551000D01*
G37*
G36*
X68351000Y-132551000D02*
G01*
X66749000Y-132551000D01*
X66749000Y-131449000D01*
X68351000Y-131449000D01*
X68351000Y-132551000D01*
X68351000Y-132551000D01*
G37*
G36*
X73251000Y-132551000D02*
G01*
X71649000Y-132551000D01*
X71649000Y-131449000D01*
X73251000Y-131449000D01*
X73251000Y-132551000D01*
X73251000Y-132551000D01*
G37*
G36*
X56351000Y-132551000D02*
G01*
X54749000Y-132551000D01*
X54749000Y-131449000D01*
X56351000Y-131449000D01*
X56351000Y-132551000D01*
X56351000Y-132551000D01*
G37*
G36*
X37423765Y-130438620D02*
G01*
X37613288Y-130517123D01*
X37783854Y-130631092D01*
X37928908Y-130776146D01*
X38042877Y-130946712D01*
X38121380Y-131136235D01*
X38161400Y-131337431D01*
X38161400Y-131542569D01*
X38121380Y-131743765D01*
X38042877Y-131933288D01*
X37928908Y-132103854D01*
X37783854Y-132248908D01*
X37613288Y-132362877D01*
X37613287Y-132362878D01*
X37613286Y-132362878D01*
X37423765Y-132441380D01*
X37222570Y-132481400D01*
X37017430Y-132481400D01*
X36816235Y-132441380D01*
X36626714Y-132362878D01*
X36626713Y-132362878D01*
X36626712Y-132362877D01*
X36456146Y-132248908D01*
X36311092Y-132103854D01*
X36197123Y-131933288D01*
X36118620Y-131743765D01*
X36078600Y-131542569D01*
X36078600Y-131337431D01*
X36118620Y-131136235D01*
X36197123Y-130946712D01*
X36311092Y-130776146D01*
X36456146Y-130631092D01*
X36626712Y-130517123D01*
X36816235Y-130438620D01*
X37017430Y-130398600D01*
X37222570Y-130398600D01*
X37423765Y-130438620D01*
X37423765Y-130438620D01*
G37*
G36*
X75951000Y-131351000D02*
G01*
X74849000Y-131351000D01*
X74849000Y-129749000D01*
X75951000Y-129749000D01*
X75951000Y-131351000D01*
X75951000Y-131351000D01*
G37*
G36*
X49951000Y-131351000D02*
G01*
X48849000Y-131351000D01*
X48849000Y-129749000D01*
X49951000Y-129749000D01*
X49951000Y-131351000D01*
X49951000Y-131351000D01*
G37*
G36*
X51551000Y-131351000D02*
G01*
X50449000Y-131351000D01*
X50449000Y-129749000D01*
X51551000Y-129749000D01*
X51551000Y-131351000D01*
X51551000Y-131351000D01*
G37*
G36*
X77551000Y-131351000D02*
G01*
X76449000Y-131351000D01*
X76449000Y-129749000D01*
X77551000Y-129749000D01*
X77551000Y-131351000D01*
X77551000Y-131351000D01*
G37*
G36*
X53151000Y-131351000D02*
G01*
X52049000Y-131351000D01*
X52049000Y-129749000D01*
X53151000Y-129749000D01*
X53151000Y-131351000D01*
X53151000Y-131351000D01*
G37*
G36*
X79151000Y-131351000D02*
G01*
X78049000Y-131351000D01*
X78049000Y-129749000D01*
X79151000Y-129749000D01*
X79151000Y-131351000D01*
X79151000Y-131351000D01*
G37*
G36*
X61251000Y-130951000D02*
G01*
X59649000Y-130951000D01*
X59649000Y-129849000D01*
X61251000Y-129849000D01*
X61251000Y-130951000D01*
X61251000Y-130951000D01*
G37*
G36*
X56351000Y-130951000D02*
G01*
X54749000Y-130951000D01*
X54749000Y-129849000D01*
X56351000Y-129849000D01*
X56351000Y-130951000D01*
X56351000Y-130951000D01*
G37*
G36*
X68351000Y-130951000D02*
G01*
X66749000Y-130951000D01*
X66749000Y-129849000D01*
X68351000Y-129849000D01*
X68351000Y-130951000D01*
X68351000Y-130951000D01*
G37*
G36*
X73251000Y-130951000D02*
G01*
X71649000Y-130951000D01*
X71649000Y-129849000D01*
X73251000Y-129849000D01*
X73251000Y-130951000D01*
X73251000Y-130951000D01*
G37*
G36*
X37423765Y-127898620D02*
G01*
X37613288Y-127977123D01*
X37783854Y-128091092D01*
X37928908Y-128236146D01*
X38042877Y-128406712D01*
X38121380Y-128596235D01*
X38161400Y-128797431D01*
X38161400Y-129002569D01*
X38121380Y-129203765D01*
X38042877Y-129393288D01*
X37928908Y-129563854D01*
X37783854Y-129708908D01*
X37613288Y-129822877D01*
X37613287Y-129822878D01*
X37613286Y-129822878D01*
X37423765Y-129901380D01*
X37222570Y-129941400D01*
X37017430Y-129941400D01*
X36816235Y-129901380D01*
X36626714Y-129822878D01*
X36626713Y-129822878D01*
X36626712Y-129822877D01*
X36456146Y-129708908D01*
X36311092Y-129563854D01*
X36197123Y-129393288D01*
X36118620Y-129203765D01*
X36078600Y-129002569D01*
X36078600Y-128797431D01*
X36118620Y-128596235D01*
X36197123Y-128406712D01*
X36311092Y-128236146D01*
X36456146Y-128091092D01*
X36626712Y-127977123D01*
X36816235Y-127898620D01*
X37017430Y-127858600D01*
X37222570Y-127858600D01*
X37423765Y-127898620D01*
X37423765Y-127898620D01*
G37*
G36*
X49551000Y-128251000D02*
G01*
X48449000Y-128251000D01*
X48449000Y-126649000D01*
X49551000Y-126649000D01*
X49551000Y-128251000D01*
X49551000Y-128251000D01*
G37*
G36*
X47951000Y-128251000D02*
G01*
X46849000Y-128251000D01*
X46849000Y-126649000D01*
X47951000Y-126649000D01*
X47951000Y-128251000D01*
X47951000Y-128251000D01*
G37*
G36*
X61551000Y-128251000D02*
G01*
X60449000Y-128251000D01*
X60449000Y-126649000D01*
X61551000Y-126649000D01*
X61551000Y-128251000D01*
X61551000Y-128251000D01*
G37*
G36*
X59951000Y-128251000D02*
G01*
X58849000Y-128251000D01*
X58849000Y-126649000D01*
X59951000Y-126649000D01*
X59951000Y-128251000D01*
X59951000Y-128251000D01*
G37*
G36*
X51151000Y-128251000D02*
G01*
X50049000Y-128251000D01*
X50049000Y-126649000D01*
X51151000Y-126649000D01*
X51151000Y-128251000D01*
X51151000Y-128251000D01*
G37*
G36*
X55551000Y-128251000D02*
G01*
X54449000Y-128251000D01*
X54449000Y-126649000D01*
X55551000Y-126649000D01*
X55551000Y-128251000D01*
X55551000Y-128251000D01*
G37*
G36*
X57151000Y-128251000D02*
G01*
X56049000Y-128251000D01*
X56049000Y-126649000D01*
X57151000Y-126649000D01*
X57151000Y-128251000D01*
X57151000Y-128251000D01*
G37*
G36*
X81151000Y-128251000D02*
G01*
X80049000Y-128251000D01*
X80049000Y-126649000D01*
X81151000Y-126649000D01*
X81151000Y-128251000D01*
X81151000Y-128251000D01*
G37*
G36*
X77951000Y-128251000D02*
G01*
X76849000Y-128251000D01*
X76849000Y-126649000D01*
X77951000Y-126649000D01*
X77951000Y-128251000D01*
X77951000Y-128251000D01*
G37*
G36*
X69151000Y-128251000D02*
G01*
X68049000Y-128251000D01*
X68049000Y-126649000D01*
X69151000Y-126649000D01*
X69151000Y-128251000D01*
X69151000Y-128251000D01*
G37*
G36*
X67551000Y-128251000D02*
G01*
X66449000Y-128251000D01*
X66449000Y-126649000D01*
X67551000Y-126649000D01*
X67551000Y-128251000D01*
X67551000Y-128251000D01*
G37*
G36*
X65951000Y-128251000D02*
G01*
X64849000Y-128251000D01*
X64849000Y-126649000D01*
X65951000Y-126649000D01*
X65951000Y-128251000D01*
X65951000Y-128251000D01*
G37*
G36*
X63151000Y-128251000D02*
G01*
X62049000Y-128251000D01*
X62049000Y-126649000D01*
X63151000Y-126649000D01*
X63151000Y-128251000D01*
X63151000Y-128251000D01*
G37*
G36*
X73551000Y-128251000D02*
G01*
X72449000Y-128251000D01*
X72449000Y-126649000D01*
X73551000Y-126649000D01*
X73551000Y-128251000D01*
X73551000Y-128251000D01*
G37*
G36*
X71951000Y-128251000D02*
G01*
X70849000Y-128251000D01*
X70849000Y-126649000D01*
X71951000Y-126649000D01*
X71951000Y-128251000D01*
X71951000Y-128251000D01*
G37*
G36*
X53951000Y-128251000D02*
G01*
X52849000Y-128251000D01*
X52849000Y-126649000D01*
X53951000Y-126649000D01*
X53951000Y-128251000D01*
X53951000Y-128251000D01*
G37*
G36*
X79551000Y-128251000D02*
G01*
X78449000Y-128251000D01*
X78449000Y-126649000D01*
X79551000Y-126649000D01*
X79551000Y-128251000D01*
X79551000Y-128251000D01*
G37*
G36*
X75151000Y-128251000D02*
G01*
X74049000Y-128251000D01*
X74049000Y-126649000D01*
X75151000Y-126649000D01*
X75151000Y-128251000D01*
X75151000Y-128251000D01*
G37*
G36*
X65951000Y-123351000D02*
G01*
X64849000Y-123351000D01*
X64849000Y-121749000D01*
X65951000Y-121749000D01*
X65951000Y-123351000D01*
X65951000Y-123351000D01*
G37*
G36*
X47951000Y-123351000D02*
G01*
X46849000Y-123351000D01*
X46849000Y-121749000D01*
X47951000Y-121749000D01*
X47951000Y-123351000D01*
X47951000Y-123351000D01*
G37*
G36*
X49551000Y-123351000D02*
G01*
X48449000Y-123351000D01*
X48449000Y-121749000D01*
X49551000Y-121749000D01*
X49551000Y-123351000D01*
X49551000Y-123351000D01*
G37*
G36*
X51151000Y-123351000D02*
G01*
X50049000Y-123351000D01*
X50049000Y-121749000D01*
X51151000Y-121749000D01*
X51151000Y-123351000D01*
X51151000Y-123351000D01*
G37*
G36*
X71951000Y-123351000D02*
G01*
X70849000Y-123351000D01*
X70849000Y-121749000D01*
X71951000Y-121749000D01*
X71951000Y-123351000D01*
X71951000Y-123351000D01*
G37*
G36*
X59951000Y-123351000D02*
G01*
X58849000Y-123351000D01*
X58849000Y-121749000D01*
X59951000Y-121749000D01*
X59951000Y-123351000D01*
X59951000Y-123351000D01*
G37*
G36*
X61551000Y-123351000D02*
G01*
X60449000Y-123351000D01*
X60449000Y-121749000D01*
X61551000Y-121749000D01*
X61551000Y-123351000D01*
X61551000Y-123351000D01*
G37*
G36*
X63151000Y-123351000D02*
G01*
X62049000Y-123351000D01*
X62049000Y-121749000D01*
X63151000Y-121749000D01*
X63151000Y-123351000D01*
X63151000Y-123351000D01*
G37*
G36*
X57151000Y-123351000D02*
G01*
X56049000Y-123351000D01*
X56049000Y-121749000D01*
X57151000Y-121749000D01*
X57151000Y-123351000D01*
X57151000Y-123351000D01*
G37*
G36*
X79551000Y-123351000D02*
G01*
X78449000Y-123351000D01*
X78449000Y-121749000D01*
X79551000Y-121749000D01*
X79551000Y-123351000D01*
X79551000Y-123351000D01*
G37*
G36*
X81151000Y-123351000D02*
G01*
X80049000Y-123351000D01*
X80049000Y-121749000D01*
X81151000Y-121749000D01*
X81151000Y-123351000D01*
X81151000Y-123351000D01*
G37*
G36*
X77951000Y-123351000D02*
G01*
X76849000Y-123351000D01*
X76849000Y-121749000D01*
X77951000Y-121749000D01*
X77951000Y-123351000D01*
X77951000Y-123351000D01*
G37*
G36*
X55551000Y-123351000D02*
G01*
X54449000Y-123351000D01*
X54449000Y-121749000D01*
X55551000Y-121749000D01*
X55551000Y-123351000D01*
X55551000Y-123351000D01*
G37*
G36*
X75151000Y-123351000D02*
G01*
X74049000Y-123351000D01*
X74049000Y-121749000D01*
X75151000Y-121749000D01*
X75151000Y-123351000D01*
X75151000Y-123351000D01*
G37*
G36*
X73551000Y-123351000D02*
G01*
X72449000Y-123351000D01*
X72449000Y-121749000D01*
X73551000Y-121749000D01*
X73551000Y-123351000D01*
X73551000Y-123351000D01*
G37*
G36*
X69151000Y-123351000D02*
G01*
X68049000Y-123351000D01*
X68049000Y-121749000D01*
X69151000Y-121749000D01*
X69151000Y-123351000D01*
X69151000Y-123351000D01*
G37*
G36*
X53951000Y-123351000D02*
G01*
X52849000Y-123351000D01*
X52849000Y-121749000D01*
X53951000Y-121749000D01*
X53951000Y-123351000D01*
X53951000Y-123351000D01*
G37*
G36*
X67551000Y-123351000D02*
G01*
X66449000Y-123351000D01*
X66449000Y-121749000D01*
X67551000Y-121749000D01*
X67551000Y-123351000D01*
X67551000Y-123351000D01*
G37*
G36*
X53151000Y-120251000D02*
G01*
X52049000Y-120251000D01*
X52049000Y-118649000D01*
X53151000Y-118649000D01*
X53151000Y-120251000D01*
X53151000Y-120251000D01*
G37*
G36*
X79151000Y-120251000D02*
G01*
X78049000Y-120251000D01*
X78049000Y-118649000D01*
X79151000Y-118649000D01*
X79151000Y-120251000D01*
X79151000Y-120251000D01*
G37*
G36*
X51551000Y-120251000D02*
G01*
X50449000Y-120251000D01*
X50449000Y-118649000D01*
X51551000Y-118649000D01*
X51551000Y-120251000D01*
X51551000Y-120251000D01*
G37*
G36*
X49951000Y-120251000D02*
G01*
X48849000Y-120251000D01*
X48849000Y-118649000D01*
X49951000Y-118649000D01*
X49951000Y-120251000D01*
X49951000Y-120251000D01*
G37*
G36*
X75951000Y-120251000D02*
G01*
X74849000Y-120251000D01*
X74849000Y-118649000D01*
X75951000Y-118649000D01*
X75951000Y-120251000D01*
X75951000Y-120251000D01*
G37*
G36*
X77551000Y-120251000D02*
G01*
X76449000Y-120251000D01*
X76449000Y-118649000D01*
X77551000Y-118649000D01*
X77551000Y-120251000D01*
X77551000Y-120251000D01*
G37*
G36*
X61251000Y-120151000D02*
G01*
X59649000Y-120151000D01*
X59649000Y-119049000D01*
X61251000Y-119049000D01*
X61251000Y-120151000D01*
X61251000Y-120151000D01*
G37*
G36*
X68351000Y-120151000D02*
G01*
X66749000Y-120151000D01*
X66749000Y-119049000D01*
X68351000Y-119049000D01*
X68351000Y-120151000D01*
X68351000Y-120151000D01*
G37*
G36*
X56351000Y-120151000D02*
G01*
X54749000Y-120151000D01*
X54749000Y-119049000D01*
X56351000Y-119049000D01*
X56351000Y-120151000D01*
X56351000Y-120151000D01*
G37*
G36*
X73251000Y-120151000D02*
G01*
X71649000Y-120151000D01*
X71649000Y-119049000D01*
X73251000Y-119049000D01*
X73251000Y-120151000D01*
X73251000Y-120151000D01*
G37*
G36*
X73251000Y-118551000D02*
G01*
X71649000Y-118551000D01*
X71649000Y-117449000D01*
X73251000Y-117449000D01*
X73251000Y-118551000D01*
X73251000Y-118551000D01*
G37*
G36*
X68351000Y-118551000D02*
G01*
X66749000Y-118551000D01*
X66749000Y-117449000D01*
X68351000Y-117449000D01*
X68351000Y-118551000D01*
X68351000Y-118551000D01*
G37*
G36*
X61251000Y-118551000D02*
G01*
X59649000Y-118551000D01*
X59649000Y-117449000D01*
X61251000Y-117449000D01*
X61251000Y-118551000D01*
X61251000Y-118551000D01*
G37*
G36*
X56351000Y-118551000D02*
G01*
X54749000Y-118551000D01*
X54749000Y-117449000D01*
X56351000Y-117449000D01*
X56351000Y-118551000D01*
X56351000Y-118551000D01*
G37*
G36*
X64224549Y-114871116D02*
G01*
X64335734Y-114893232D01*
X64545203Y-114979997D01*
X64733720Y-115105960D01*
X64894040Y-115266280D01*
X65020003Y-115454797D01*
X65106768Y-115664266D01*
X65151000Y-115886636D01*
X65151000Y-116113364D01*
X65106768Y-116335734D01*
X65020003Y-116545203D01*
X64894040Y-116733720D01*
X64733720Y-116894040D01*
X64545203Y-117020003D01*
X64335734Y-117106768D01*
X64224549Y-117128884D01*
X64113365Y-117151000D01*
X63886635Y-117151000D01*
X63775451Y-117128884D01*
X63664266Y-117106768D01*
X63454797Y-117020003D01*
X63266280Y-116894040D01*
X63105960Y-116733720D01*
X62979997Y-116545203D01*
X62893232Y-116335734D01*
X62849000Y-116113364D01*
X62849000Y-115886636D01*
X62893232Y-115664266D01*
X62979997Y-115454797D01*
X63105960Y-115266280D01*
X63266280Y-115105960D01*
X63454797Y-114979997D01*
X63664266Y-114893232D01*
X63775451Y-114871116D01*
X63886635Y-114849000D01*
X64113365Y-114849000D01*
X64224549Y-114871116D01*
X64224549Y-114871116D01*
G37*
G36*
X68351000Y-116951000D02*
G01*
X66749000Y-116951000D01*
X66749000Y-115849000D01*
X68351000Y-115849000D01*
X68351000Y-116951000D01*
X68351000Y-116951000D01*
G37*
G36*
X56351000Y-116951000D02*
G01*
X54749000Y-116951000D01*
X54749000Y-115849000D01*
X56351000Y-115849000D01*
X56351000Y-116951000D01*
X56351000Y-116951000D01*
G37*
G36*
X61251000Y-116951000D02*
G01*
X59649000Y-116951000D01*
X59649000Y-115849000D01*
X61251000Y-115849000D01*
X61251000Y-116951000D01*
X61251000Y-116951000D01*
G37*
G36*
X73251000Y-116951000D02*
G01*
X71649000Y-116951000D01*
X71649000Y-115849000D01*
X73251000Y-115849000D01*
X73251000Y-116951000D01*
X73251000Y-116951000D01*
G37*
G36*
X75951000Y-115351000D02*
G01*
X74849000Y-115351000D01*
X74849000Y-113749000D01*
X75951000Y-113749000D01*
X75951000Y-115351000D01*
X75951000Y-115351000D01*
G37*
G36*
X77551000Y-115351000D02*
G01*
X76449000Y-115351000D01*
X76449000Y-113749000D01*
X77551000Y-113749000D01*
X77551000Y-115351000D01*
X77551000Y-115351000D01*
G37*
G36*
X79151000Y-115351000D02*
G01*
X78049000Y-115351000D01*
X78049000Y-113749000D01*
X79151000Y-113749000D01*
X79151000Y-115351000D01*
X79151000Y-115351000D01*
G37*
G36*
X51551000Y-115351000D02*
G01*
X50449000Y-115351000D01*
X50449000Y-113749000D01*
X51551000Y-113749000D01*
X51551000Y-115351000D01*
X51551000Y-115351000D01*
G37*
G36*
X49951000Y-115351000D02*
G01*
X48849000Y-115351000D01*
X48849000Y-113749000D01*
X49951000Y-113749000D01*
X49951000Y-115351000D01*
X49951000Y-115351000D01*
G37*
G36*
X53151000Y-115351000D02*
G01*
X52049000Y-115351000D01*
X52049000Y-113749000D01*
X53151000Y-113749000D01*
X53151000Y-115351000D01*
X53151000Y-115351000D01*
G37*
G36*
X23405402Y-112649000D02*
G01*
X23453765Y-112658620D01*
X23643288Y-112737123D01*
X23813854Y-112851092D01*
X23958908Y-112996146D01*
X24072877Y-113166712D01*
X24151380Y-113356235D01*
X24191400Y-113557431D01*
X24191400Y-113762569D01*
X24151380Y-113963765D01*
X24072877Y-114153288D01*
X23958908Y-114323854D01*
X23813854Y-114468908D01*
X23643288Y-114582877D01*
X23643287Y-114582878D01*
X23643286Y-114582878D01*
X23453765Y-114661380D01*
X23252570Y-114701400D01*
X23047430Y-114701400D01*
X22846235Y-114661380D01*
X22656714Y-114582878D01*
X22656713Y-114582878D01*
X22656712Y-114582877D01*
X22486146Y-114468908D01*
X22341092Y-114323854D01*
X22227123Y-114153288D01*
X22148620Y-113963765D01*
X22108600Y-113762569D01*
X22108600Y-113557431D01*
X22148620Y-113356235D01*
X22227123Y-113166712D01*
X22341092Y-112996146D01*
X22486146Y-112851092D01*
X22656712Y-112737123D01*
X22846235Y-112658620D01*
X22894598Y-112649000D01*
X23047430Y-112618600D01*
X23252570Y-112618600D01*
X23405402Y-112649000D01*
X23405402Y-112649000D01*
G37*
G36*
X25945402Y-112649000D02*
G01*
X25993765Y-112658620D01*
X26183288Y-112737123D01*
X26353854Y-112851092D01*
X26498908Y-112996146D01*
X26612877Y-113166712D01*
X26691380Y-113356235D01*
X26731400Y-113557431D01*
X26731400Y-113762569D01*
X26691380Y-113963765D01*
X26612877Y-114153288D01*
X26498908Y-114323854D01*
X26353854Y-114468908D01*
X26183288Y-114582877D01*
X26183287Y-114582878D01*
X26183286Y-114582878D01*
X25993765Y-114661380D01*
X25792570Y-114701400D01*
X25587430Y-114701400D01*
X25386235Y-114661380D01*
X25196714Y-114582878D01*
X25196713Y-114582878D01*
X25196712Y-114582877D01*
X25026146Y-114468908D01*
X24881092Y-114323854D01*
X24767123Y-114153288D01*
X24688620Y-113963765D01*
X24648600Y-113762569D01*
X24648600Y-113557431D01*
X24688620Y-113356235D01*
X24767123Y-113166712D01*
X24881092Y-112996146D01*
X25026146Y-112851092D01*
X25196712Y-112737123D01*
X25386235Y-112658620D01*
X25434598Y-112649000D01*
X25587430Y-112618600D01*
X25792570Y-112618600D01*
X25945402Y-112649000D01*
X25945402Y-112649000D01*
G37*
G36*
X28485402Y-112649000D02*
G01*
X28533765Y-112658620D01*
X28723288Y-112737123D01*
X28893854Y-112851092D01*
X29038908Y-112996146D01*
X29152877Y-113166712D01*
X29231380Y-113356235D01*
X29271400Y-113557431D01*
X29271400Y-113762569D01*
X29231380Y-113963765D01*
X29152877Y-114153288D01*
X29038908Y-114323854D01*
X28893854Y-114468908D01*
X28723288Y-114582877D01*
X28723287Y-114582878D01*
X28723286Y-114582878D01*
X28533765Y-114661380D01*
X28332570Y-114701400D01*
X28127430Y-114701400D01*
X27926235Y-114661380D01*
X27736714Y-114582878D01*
X27736713Y-114582878D01*
X27736712Y-114582877D01*
X27566146Y-114468908D01*
X27421092Y-114323854D01*
X27307123Y-114153288D01*
X27228620Y-113963765D01*
X27188600Y-113762569D01*
X27188600Y-113557431D01*
X27228620Y-113356235D01*
X27307123Y-113166712D01*
X27421092Y-112996146D01*
X27566146Y-112851092D01*
X27736712Y-112737123D01*
X27926235Y-112658620D01*
X27974598Y-112649000D01*
X28127430Y-112618600D01*
X28332570Y-112618600D01*
X28485402Y-112649000D01*
X28485402Y-112649000D01*
G37*
G36*
X33565402Y-112649000D02*
G01*
X33613765Y-112658620D01*
X33803288Y-112737123D01*
X33973854Y-112851092D01*
X34118908Y-112996146D01*
X34232877Y-113166712D01*
X34311380Y-113356235D01*
X34351400Y-113557431D01*
X34351400Y-113762569D01*
X34311380Y-113963765D01*
X34232877Y-114153288D01*
X34118908Y-114323854D01*
X33973854Y-114468908D01*
X33803288Y-114582877D01*
X33803287Y-114582878D01*
X33803286Y-114582878D01*
X33613765Y-114661380D01*
X33412570Y-114701400D01*
X33207430Y-114701400D01*
X33006235Y-114661380D01*
X32816714Y-114582878D01*
X32816713Y-114582878D01*
X32816712Y-114582877D01*
X32646146Y-114468908D01*
X32501092Y-114323854D01*
X32387123Y-114153288D01*
X32308620Y-113963765D01*
X32268600Y-113762569D01*
X32268600Y-113557431D01*
X32308620Y-113356235D01*
X32387123Y-113166712D01*
X32501092Y-112996146D01*
X32646146Y-112851092D01*
X32816712Y-112737123D01*
X33006235Y-112658620D01*
X33054598Y-112649000D01*
X33207430Y-112618600D01*
X33412570Y-112618600D01*
X33565402Y-112649000D01*
X33565402Y-112649000D01*
G37*
G36*
X31025402Y-112649000D02*
G01*
X31073765Y-112658620D01*
X31263288Y-112737123D01*
X31433854Y-112851092D01*
X31578908Y-112996146D01*
X31692877Y-113166712D01*
X31771380Y-113356235D01*
X31811400Y-113557431D01*
X31811400Y-113762569D01*
X31771380Y-113963765D01*
X31692877Y-114153288D01*
X31578908Y-114323854D01*
X31433854Y-114468908D01*
X31263288Y-114582877D01*
X31263287Y-114582878D01*
X31263286Y-114582878D01*
X31073765Y-114661380D01*
X30872570Y-114701400D01*
X30667430Y-114701400D01*
X30466235Y-114661380D01*
X30276714Y-114582878D01*
X30276713Y-114582878D01*
X30276712Y-114582877D01*
X30106146Y-114468908D01*
X29961092Y-114323854D01*
X29847123Y-114153288D01*
X29768620Y-113963765D01*
X29728600Y-113762569D01*
X29728600Y-113557431D01*
X29768620Y-113356235D01*
X29847123Y-113166712D01*
X29961092Y-112996146D01*
X30106146Y-112851092D01*
X30276712Y-112737123D01*
X30466235Y-112658620D01*
X30514598Y-112649000D01*
X30667430Y-112618600D01*
X30872570Y-112618600D01*
X31025402Y-112649000D01*
X31025402Y-112649000D01*
G37*
G36*
X36105402Y-112649000D02*
G01*
X36153765Y-112658620D01*
X36343288Y-112737123D01*
X36513854Y-112851092D01*
X36658908Y-112996146D01*
X36772877Y-113166712D01*
X36851380Y-113356235D01*
X36891400Y-113557431D01*
X36891400Y-113762569D01*
X36851380Y-113963765D01*
X36772877Y-114153288D01*
X36658908Y-114323854D01*
X36513854Y-114468908D01*
X36343288Y-114582877D01*
X36343287Y-114582878D01*
X36343286Y-114582878D01*
X36153765Y-114661380D01*
X35952570Y-114701400D01*
X35747430Y-114701400D01*
X35546235Y-114661380D01*
X35356714Y-114582878D01*
X35356713Y-114582878D01*
X35356712Y-114582877D01*
X35186146Y-114468908D01*
X35041092Y-114323854D01*
X34927123Y-114153288D01*
X34848620Y-113963765D01*
X34808600Y-113762569D01*
X34808600Y-113557431D01*
X34848620Y-113356235D01*
X34927123Y-113166712D01*
X35041092Y-112996146D01*
X35186146Y-112851092D01*
X35356712Y-112737123D01*
X35546235Y-112658620D01*
X35594598Y-112649000D01*
X35747430Y-112618600D01*
X35952570Y-112618600D01*
X36105402Y-112649000D01*
X36105402Y-112649000D01*
G37*
G36*
X68951000Y-114251000D02*
G01*
X67849000Y-114251000D01*
X67849000Y-112649000D01*
X68951000Y-112649000D01*
X68951000Y-114251000D01*
X68951000Y-114251000D01*
G37*
G36*
X60151000Y-114251000D02*
G01*
X59049000Y-114251000D01*
X59049000Y-112649000D01*
X60151000Y-112649000D01*
X60151000Y-114251000D01*
X60151000Y-114251000D01*
G37*
G36*
X58551000Y-114251000D02*
G01*
X57449000Y-114251000D01*
X57449000Y-112649000D01*
X58551000Y-112649000D01*
X58551000Y-114251000D01*
X58551000Y-114251000D01*
G37*
G36*
X72151000Y-114251000D02*
G01*
X71049000Y-114251000D01*
X71049000Y-112649000D01*
X72151000Y-112649000D01*
X72151000Y-114251000D01*
X72151000Y-114251000D01*
G37*
G36*
X70551000Y-114251000D02*
G01*
X69449000Y-114251000D01*
X69449000Y-112649000D01*
X70551000Y-112649000D01*
X70551000Y-114251000D01*
X70551000Y-114251000D01*
G37*
G36*
X56951000Y-114251000D02*
G01*
X55849000Y-114251000D01*
X55849000Y-112649000D01*
X56951000Y-112649000D01*
X56951000Y-114251000D01*
X56951000Y-114251000D01*
G37*
G36*
X66151000Y-113251000D02*
G01*
X65049000Y-113251000D01*
X65049000Y-111649000D01*
X66151000Y-111649000D01*
X66151000Y-113251000D01*
X66151000Y-113251000D01*
G37*
G36*
X64551000Y-113251000D02*
G01*
X63449000Y-113251000D01*
X63449000Y-111649000D01*
X64551000Y-111649000D01*
X64551000Y-113251000D01*
X64551000Y-113251000D01*
G37*
G36*
X62951000Y-113251000D02*
G01*
X61849000Y-113251000D01*
X61849000Y-111649000D01*
X62951000Y-111649000D01*
X62951000Y-113251000D01*
X62951000Y-113251000D01*
G37*
G36*
X24590443Y-109105519D02*
G01*
X24656627Y-109112037D01*
X24826466Y-109163557D01*
X24982991Y-109247222D01*
X25018729Y-109276552D01*
X25120186Y-109359814D01*
X25203448Y-109461271D01*
X25232778Y-109497009D01*
X25316443Y-109653534D01*
X25367963Y-109823373D01*
X25385359Y-110000000D01*
X25367963Y-110176627D01*
X25316443Y-110346466D01*
X25232778Y-110502991D01*
X25203448Y-110538729D01*
X25120186Y-110640186D01*
X25018729Y-110723448D01*
X24982991Y-110752778D01*
X24826466Y-110836443D01*
X24656627Y-110887963D01*
X24590443Y-110894481D01*
X24524260Y-110901000D01*
X24435740Y-110901000D01*
X24369557Y-110894481D01*
X24303373Y-110887963D01*
X24133534Y-110836443D01*
X23977009Y-110752778D01*
X23941271Y-110723448D01*
X23839814Y-110640186D01*
X23756552Y-110538729D01*
X23727222Y-110502991D01*
X23643557Y-110346466D01*
X23592037Y-110176627D01*
X23574641Y-110000000D01*
X23592037Y-109823373D01*
X23643557Y-109653534D01*
X23727222Y-109497009D01*
X23756552Y-109461271D01*
X23839814Y-109359814D01*
X23941271Y-109276552D01*
X23977009Y-109247222D01*
X24133534Y-109163557D01*
X24303373Y-109112037D01*
X24369557Y-109105519D01*
X24435740Y-109099000D01*
X24524260Y-109099000D01*
X24590443Y-109105519D01*
X24590443Y-109105519D01*
G37*
G36*
X22050443Y-109105519D02*
G01*
X22116627Y-109112037D01*
X22286466Y-109163557D01*
X22442991Y-109247222D01*
X22478729Y-109276552D01*
X22580186Y-109359814D01*
X22663448Y-109461271D01*
X22692778Y-109497009D01*
X22776443Y-109653534D01*
X22827963Y-109823373D01*
X22845359Y-110000000D01*
X22827963Y-110176627D01*
X22776443Y-110346466D01*
X22692778Y-110502991D01*
X22663448Y-110538729D01*
X22580186Y-110640186D01*
X22478729Y-110723448D01*
X22442991Y-110752778D01*
X22286466Y-110836443D01*
X22116627Y-110887963D01*
X22050443Y-110894481D01*
X21984260Y-110901000D01*
X21895740Y-110901000D01*
X21829557Y-110894481D01*
X21763373Y-110887963D01*
X21593534Y-110836443D01*
X21437009Y-110752778D01*
X21401271Y-110723448D01*
X21299814Y-110640186D01*
X21216552Y-110538729D01*
X21187222Y-110502991D01*
X21103557Y-110346466D01*
X21052037Y-110176627D01*
X21034641Y-110000000D01*
X21052037Y-109823373D01*
X21103557Y-109653534D01*
X21187222Y-109497009D01*
X21216552Y-109461271D01*
X21299814Y-109359814D01*
X21401271Y-109276552D01*
X21437009Y-109247222D01*
X21593534Y-109163557D01*
X21763373Y-109112037D01*
X21829557Y-109105519D01*
X21895740Y-109099000D01*
X21984260Y-109099000D01*
X22050443Y-109105519D01*
X22050443Y-109105519D01*
G37*
G36*
X27130443Y-109105519D02*
G01*
X27196627Y-109112037D01*
X27366466Y-109163557D01*
X27522991Y-109247222D01*
X27558729Y-109276552D01*
X27660186Y-109359814D01*
X27743448Y-109461271D01*
X27772778Y-109497009D01*
X27856443Y-109653534D01*
X27907963Y-109823373D01*
X27925359Y-110000000D01*
X27907963Y-110176627D01*
X27856443Y-110346466D01*
X27772778Y-110502991D01*
X27743448Y-110538729D01*
X27660186Y-110640186D01*
X27558729Y-110723448D01*
X27522991Y-110752778D01*
X27366466Y-110836443D01*
X27196627Y-110887963D01*
X27130443Y-110894481D01*
X27064260Y-110901000D01*
X26975740Y-110901000D01*
X26909557Y-110894481D01*
X26843373Y-110887963D01*
X26673534Y-110836443D01*
X26517009Y-110752778D01*
X26481271Y-110723448D01*
X26379814Y-110640186D01*
X26296552Y-110538729D01*
X26267222Y-110502991D01*
X26183557Y-110346466D01*
X26132037Y-110176627D01*
X26114641Y-110000000D01*
X26132037Y-109823373D01*
X26183557Y-109653534D01*
X26267222Y-109497009D01*
X26296552Y-109461271D01*
X26379814Y-109359814D01*
X26481271Y-109276552D01*
X26517009Y-109247222D01*
X26673534Y-109163557D01*
X26843373Y-109112037D01*
X26909557Y-109105519D01*
X26975740Y-109099000D01*
X27064260Y-109099000D01*
X27130443Y-109105519D01*
X27130443Y-109105519D01*
G37*
G36*
X29670443Y-109105519D02*
G01*
X29736627Y-109112037D01*
X29906466Y-109163557D01*
X30062991Y-109247222D01*
X30098729Y-109276552D01*
X30200186Y-109359814D01*
X30283448Y-109461271D01*
X30312778Y-109497009D01*
X30396443Y-109653534D01*
X30447963Y-109823373D01*
X30465359Y-110000000D01*
X30447963Y-110176627D01*
X30396443Y-110346466D01*
X30312778Y-110502991D01*
X30283448Y-110538729D01*
X30200186Y-110640186D01*
X30098729Y-110723448D01*
X30062991Y-110752778D01*
X29906466Y-110836443D01*
X29736627Y-110887963D01*
X29670443Y-110894481D01*
X29604260Y-110901000D01*
X29515740Y-110901000D01*
X29449557Y-110894481D01*
X29383373Y-110887963D01*
X29213534Y-110836443D01*
X29057009Y-110752778D01*
X29021271Y-110723448D01*
X28919814Y-110640186D01*
X28836552Y-110538729D01*
X28807222Y-110502991D01*
X28723557Y-110346466D01*
X28672037Y-110176627D01*
X28654641Y-110000000D01*
X28672037Y-109823373D01*
X28723557Y-109653534D01*
X28807222Y-109497009D01*
X28836552Y-109461271D01*
X28919814Y-109359814D01*
X29021271Y-109276552D01*
X29057009Y-109247222D01*
X29213534Y-109163557D01*
X29383373Y-109112037D01*
X29449557Y-109105519D01*
X29515740Y-109099000D01*
X29604260Y-109099000D01*
X29670443Y-109105519D01*
X29670443Y-109105519D01*
G37*
G36*
X33001000Y-110901000D02*
G01*
X31199000Y-110901000D01*
X31199000Y-109099000D01*
X33001000Y-109099000D01*
X33001000Y-110901000D01*
X33001000Y-110901000D01*
G37*
G36*
X37876627Y-107887037D02*
G01*
X38046466Y-107938557D01*
X38202991Y-108022222D01*
X38238729Y-108051552D01*
X38340186Y-108134814D01*
X38423448Y-108236271D01*
X38452778Y-108272009D01*
X38536443Y-108428534D01*
X38587963Y-108598374D01*
X38601000Y-108730743D01*
X38601000Y-109069258D01*
X38587963Y-109201627D01*
X38536443Y-109371466D01*
X38452778Y-109527991D01*
X38423448Y-109563729D01*
X38340186Y-109665186D01*
X38202989Y-109777779D01*
X38046467Y-109861442D01*
X38046465Y-109861443D01*
X37876626Y-109912963D01*
X37700000Y-109930359D01*
X37523373Y-109912963D01*
X37353534Y-109861443D01*
X37197009Y-109777778D01*
X37154750Y-109743097D01*
X37059814Y-109665186D01*
X36947221Y-109527989D01*
X36863558Y-109371467D01*
X36857349Y-109351000D01*
X36812037Y-109201626D01*
X36799000Y-109069257D01*
X36799000Y-108730742D01*
X36812037Y-108598373D01*
X36863557Y-108428534D01*
X36947222Y-108272009D01*
X37059815Y-108134815D01*
X37197010Y-108022222D01*
X37353535Y-107938557D01*
X37523374Y-107887037D01*
X37700000Y-107869641D01*
X37876627Y-107887037D01*
X37876627Y-107887037D01*
G37*
G36*
X42876627Y-107887037D02*
G01*
X43046466Y-107938557D01*
X43202991Y-108022222D01*
X43238729Y-108051552D01*
X43340186Y-108134814D01*
X43423448Y-108236271D01*
X43452778Y-108272009D01*
X43536443Y-108428534D01*
X43587963Y-108598374D01*
X43601000Y-108730743D01*
X43601000Y-109069258D01*
X43587963Y-109201627D01*
X43536443Y-109371466D01*
X43452778Y-109527991D01*
X43423448Y-109563729D01*
X43340186Y-109665186D01*
X43202989Y-109777779D01*
X43046467Y-109861442D01*
X43046465Y-109861443D01*
X42876626Y-109912963D01*
X42700000Y-109930359D01*
X42523373Y-109912963D01*
X42353534Y-109861443D01*
X42197009Y-109777778D01*
X42154750Y-109743097D01*
X42059814Y-109665186D01*
X41947221Y-109527989D01*
X41863558Y-109371467D01*
X41857349Y-109351000D01*
X41812037Y-109201626D01*
X41799000Y-109069257D01*
X41799000Y-108730742D01*
X41812037Y-108598373D01*
X41863557Y-108428534D01*
X41947222Y-108272009D01*
X42059815Y-108134815D01*
X42197010Y-108022222D01*
X42353535Y-107938557D01*
X42523374Y-107887037D01*
X42700000Y-107869641D01*
X42876627Y-107887037D01*
X42876627Y-107887037D01*
G37*
G36*
X40376627Y-107887037D02*
G01*
X40546466Y-107938557D01*
X40702991Y-108022222D01*
X40738729Y-108051552D01*
X40840186Y-108134814D01*
X40923448Y-108236271D01*
X40952778Y-108272009D01*
X41036443Y-108428534D01*
X41087963Y-108598374D01*
X41101000Y-108730743D01*
X41101000Y-109069258D01*
X41087963Y-109201627D01*
X41036443Y-109371466D01*
X40952778Y-109527991D01*
X40923448Y-109563729D01*
X40840186Y-109665186D01*
X40702989Y-109777779D01*
X40546467Y-109861442D01*
X40546465Y-109861443D01*
X40376626Y-109912963D01*
X40200000Y-109930359D01*
X40023373Y-109912963D01*
X39853534Y-109861443D01*
X39697009Y-109777778D01*
X39654750Y-109743097D01*
X39559814Y-109665186D01*
X39447221Y-109527989D01*
X39363558Y-109371467D01*
X39357349Y-109351000D01*
X39312037Y-109201626D01*
X39299000Y-109069257D01*
X39299000Y-108730742D01*
X39312037Y-108598373D01*
X39363557Y-108428534D01*
X39447222Y-108272009D01*
X39559815Y-108134815D01*
X39697010Y-108022222D01*
X39853535Y-107938557D01*
X40023374Y-107887037D01*
X40200000Y-107869641D01*
X40376627Y-107887037D01*
X40376627Y-107887037D01*
G37*
G36*
X45958600Y-107877989D02*
G01*
X45991652Y-107888015D01*
X46022103Y-107904292D01*
X46048799Y-107926201D01*
X46070708Y-107952897D01*
X46086985Y-107983348D01*
X46097011Y-108016400D01*
X46101000Y-108056903D01*
X46101000Y-109743097D01*
X46097011Y-109783600D01*
X46086985Y-109816652D01*
X46070708Y-109847103D01*
X46048799Y-109873799D01*
X46022103Y-109895708D01*
X45991652Y-109911985D01*
X45958600Y-109922011D01*
X45918097Y-109926000D01*
X44481903Y-109926000D01*
X44441400Y-109922011D01*
X44408348Y-109911985D01*
X44377897Y-109895708D01*
X44351201Y-109873799D01*
X44329292Y-109847103D01*
X44313015Y-109816652D01*
X44302989Y-109783600D01*
X44299000Y-109743097D01*
X44299000Y-108056903D01*
X44302989Y-108016400D01*
X44313015Y-107983348D01*
X44329292Y-107952897D01*
X44351201Y-107926201D01*
X44377897Y-107904292D01*
X44408348Y-107888015D01*
X44441400Y-107877989D01*
X44481903Y-107874000D01*
X45918097Y-107874000D01*
X45958600Y-107877989D01*
X45958600Y-107877989D01*
G37*
G36*
X70551000Y-109351000D02*
G01*
X69449000Y-109351000D01*
X69449000Y-107749000D01*
X70551000Y-107749000D01*
X70551000Y-109351000D01*
X70551000Y-109351000D01*
G37*
G36*
X56951000Y-109351000D02*
G01*
X55849000Y-109351000D01*
X55849000Y-107749000D01*
X56951000Y-107749000D01*
X56951000Y-109351000D01*
X56951000Y-109351000D01*
G37*
G36*
X58551000Y-109351000D02*
G01*
X57449000Y-109351000D01*
X57449000Y-107749000D01*
X58551000Y-107749000D01*
X58551000Y-109351000D01*
X58551000Y-109351000D01*
G37*
G36*
X60151000Y-109351000D02*
G01*
X59049000Y-109351000D01*
X59049000Y-107749000D01*
X60151000Y-107749000D01*
X60151000Y-109351000D01*
X60151000Y-109351000D01*
G37*
G36*
X68951000Y-109351000D02*
G01*
X67849000Y-109351000D01*
X67849000Y-107749000D01*
X68951000Y-107749000D01*
X68951000Y-109351000D01*
X68951000Y-109351000D01*
G37*
G36*
X72151000Y-109351000D02*
G01*
X71049000Y-109351000D01*
X71049000Y-107749000D01*
X72151000Y-107749000D01*
X72151000Y-109351000D01*
X72151000Y-109351000D01*
G37*
G36*
X64551000Y-108351000D02*
G01*
X63449000Y-108351000D01*
X63449000Y-106749000D01*
X64551000Y-106749000D01*
X64551000Y-108351000D01*
X64551000Y-108351000D01*
G37*
G36*
X62951000Y-108351000D02*
G01*
X61849000Y-108351000D01*
X61849000Y-106749000D01*
X62951000Y-106749000D01*
X62951000Y-108351000D01*
X62951000Y-108351000D01*
G37*
G36*
X66151000Y-108351000D02*
G01*
X65049000Y-108351000D01*
X65049000Y-106749000D01*
X66151000Y-106749000D01*
X66151000Y-108351000D01*
X66151000Y-108351000D01*
G37*
M02*
