G04 #@! TF.GenerationSoftware,KiCad,Pcbnew,5.1.4*
G04 #@! TF.CreationDate,2019-11-19T13:40:08+01:00*
G04 #@! TF.ProjectId,lamp,6c616d70-2e6b-4696-9361-645f70636258,rev?*
G04 #@! TF.SameCoordinates,Original*
G04 #@! TF.FileFunction,Copper,L1,Top*
G04 #@! TF.FilePolarity,Positive*
%FSLAX46Y46*%
G04 Gerber Fmt 4.6, Leading zero omitted, Abs format (unit mm)*
G04 Created by KiCad (PCBNEW 5.1.4) date 2019-11-19 13:40:08*
%MOMM*%
%LPD*%
G04 APERTURE LIST*
%ADD10O,1.700000X1.950000*%
%ADD11C,0.100000*%
%ADD12C,1.700000*%
%ADD13C,1.879600*%
%ADD14O,1.700000X1.700000*%
%ADD15R,1.700000X1.700000*%
%ADD16R,1.000000X1.500000*%
%ADD17R,1.500000X1.000000*%
%ADD18C,0.800000*%
%ADD19C,0.250000*%
%ADD20C,0.350000*%
%ADD21C,0.254000*%
G04 APERTURE END LIST*
D10*
X37700000Y-108900000D03*
X40200000Y-108900000D03*
X42700000Y-108900000D03*
D11*
G36*
X45824504Y-107926204D02*
G01*
X45848773Y-107929804D01*
X45872571Y-107935765D01*
X45895671Y-107944030D01*
X45917849Y-107954520D01*
X45938893Y-107967133D01*
X45958598Y-107981747D01*
X45976777Y-107998223D01*
X45993253Y-108016402D01*
X46007867Y-108036107D01*
X46020480Y-108057151D01*
X46030970Y-108079329D01*
X46039235Y-108102429D01*
X46045196Y-108126227D01*
X46048796Y-108150496D01*
X46050000Y-108175000D01*
X46050000Y-109625000D01*
X46048796Y-109649504D01*
X46045196Y-109673773D01*
X46039235Y-109697571D01*
X46030970Y-109720671D01*
X46020480Y-109742849D01*
X46007867Y-109763893D01*
X45993253Y-109783598D01*
X45976777Y-109801777D01*
X45958598Y-109818253D01*
X45938893Y-109832867D01*
X45917849Y-109845480D01*
X45895671Y-109855970D01*
X45872571Y-109864235D01*
X45848773Y-109870196D01*
X45824504Y-109873796D01*
X45800000Y-109875000D01*
X44600000Y-109875000D01*
X44575496Y-109873796D01*
X44551227Y-109870196D01*
X44527429Y-109864235D01*
X44504329Y-109855970D01*
X44482151Y-109845480D01*
X44461107Y-109832867D01*
X44441402Y-109818253D01*
X44423223Y-109801777D01*
X44406747Y-109783598D01*
X44392133Y-109763893D01*
X44379520Y-109742849D01*
X44369030Y-109720671D01*
X44360765Y-109697571D01*
X44354804Y-109673773D01*
X44351204Y-109649504D01*
X44350000Y-109625000D01*
X44350000Y-108175000D01*
X44351204Y-108150496D01*
X44354804Y-108126227D01*
X44360765Y-108102429D01*
X44369030Y-108079329D01*
X44379520Y-108057151D01*
X44392133Y-108036107D01*
X44406747Y-108016402D01*
X44423223Y-107998223D01*
X44441402Y-107981747D01*
X44461107Y-107967133D01*
X44482151Y-107954520D01*
X44504329Y-107944030D01*
X44527429Y-107935765D01*
X44551227Y-107929804D01*
X44575496Y-107926204D01*
X44600000Y-107925000D01*
X45800000Y-107925000D01*
X45824504Y-107926204D01*
X45824504Y-107926204D01*
G37*
D12*
X45200000Y-108900000D03*
D13*
X37120000Y-131440000D03*
X37120000Y-141600000D03*
X35850000Y-113660000D03*
X30770000Y-113660000D03*
X37120000Y-139060000D03*
X25690000Y-113660000D03*
X33310000Y-113660000D03*
X23150000Y-113660000D03*
X28230000Y-113660000D03*
X37120000Y-133980000D03*
X37120000Y-136520000D03*
X37120000Y-128900000D03*
D14*
X21940000Y-110000000D03*
X24480000Y-110000000D03*
X27020000Y-110000000D03*
X29560000Y-110000000D03*
D15*
X32100000Y-110000000D03*
D16*
X74600000Y-122550000D03*
X73000000Y-122550000D03*
X71400000Y-122550000D03*
X74600000Y-127450000D03*
X73000000Y-127450000D03*
X71400000Y-127450000D03*
X68600000Y-122550000D03*
X67000000Y-122550000D03*
X65400000Y-122550000D03*
X68600000Y-127450000D03*
X67000000Y-127450000D03*
X65400000Y-127450000D03*
X59400000Y-127450000D03*
X61000000Y-127450000D03*
X62600000Y-127450000D03*
X59400000Y-122550000D03*
X61000000Y-122550000D03*
X62600000Y-122550000D03*
D17*
X60450000Y-133600000D03*
X60450000Y-132000000D03*
X60450000Y-130400000D03*
X55550000Y-133600000D03*
X55550000Y-132000000D03*
X55550000Y-130400000D03*
X67550000Y-130400000D03*
X67550000Y-132000000D03*
X67550000Y-133600000D03*
X72450000Y-130400000D03*
X72450000Y-132000000D03*
X72450000Y-133600000D03*
X67550000Y-116400000D03*
X67550000Y-118000000D03*
X67550000Y-119600000D03*
X72450000Y-116400000D03*
X72450000Y-118000000D03*
X72450000Y-119600000D03*
X55550000Y-116400000D03*
X55550000Y-118000000D03*
X55550000Y-119600000D03*
X60450000Y-116400000D03*
X60450000Y-118000000D03*
X60450000Y-119600000D03*
D16*
X53400000Y-127450000D03*
X55000000Y-127450000D03*
X56600000Y-127450000D03*
X53400000Y-122550000D03*
X55000000Y-122550000D03*
X56600000Y-122550000D03*
X49400000Y-135450000D03*
X51000000Y-135450000D03*
X52600000Y-135450000D03*
X49400000Y-130550000D03*
X51000000Y-130550000D03*
X52600000Y-130550000D03*
X56400000Y-141450000D03*
X58000000Y-141450000D03*
X59600000Y-141450000D03*
X56400000Y-136550000D03*
X58000000Y-136550000D03*
X59600000Y-136550000D03*
X65600000Y-137550000D03*
X64000000Y-137550000D03*
X62400000Y-137550000D03*
X65600000Y-142450000D03*
X64000000Y-142450000D03*
X62400000Y-142450000D03*
X68400000Y-141450000D03*
X70000000Y-141450000D03*
X71600000Y-141450000D03*
X68400000Y-136550000D03*
X70000000Y-136550000D03*
X71600000Y-136550000D03*
X75400000Y-135450000D03*
X77000000Y-135450000D03*
X78600000Y-135450000D03*
X75400000Y-130550000D03*
X77000000Y-130550000D03*
X78600000Y-130550000D03*
X80600000Y-122550000D03*
X79000000Y-122550000D03*
X77400000Y-122550000D03*
X80600000Y-127450000D03*
X79000000Y-127450000D03*
X77400000Y-127450000D03*
X75400000Y-119450000D03*
X77000000Y-119450000D03*
X78600000Y-119450000D03*
X75400000Y-114550000D03*
X77000000Y-114550000D03*
X78600000Y-114550000D03*
X71600000Y-108550000D03*
X70000000Y-108550000D03*
X68400000Y-108550000D03*
X71600000Y-113450000D03*
X70000000Y-113450000D03*
X68400000Y-113450000D03*
X62400000Y-112450000D03*
X64000000Y-112450000D03*
X65600000Y-112450000D03*
X62400000Y-107550000D03*
X64000000Y-107550000D03*
X65600000Y-107550000D03*
X59600000Y-108550000D03*
X58000000Y-108550000D03*
X56400000Y-108550000D03*
X59600000Y-113450000D03*
X58000000Y-113450000D03*
X56400000Y-113450000D03*
X47400000Y-127450000D03*
X49000000Y-127450000D03*
X50600000Y-127450000D03*
X47400000Y-122550000D03*
X49000000Y-122550000D03*
X50600000Y-122550000D03*
X49400000Y-119450000D03*
X51000000Y-119450000D03*
X52600000Y-119450000D03*
X49400000Y-114550000D03*
X51000000Y-114550000D03*
X52600000Y-114550000D03*
D18*
X69200000Y-116400000D03*
X58800000Y-116400000D03*
X69200000Y-118000000D03*
X58823015Y-117976985D03*
X58800000Y-133600000D03*
X69200000Y-133600000D03*
X58800000Y-132000000D03*
X69200000Y-132000000D03*
X75400000Y-117800000D03*
X60150000Y-138650000D03*
X70700000Y-119600000D03*
X69300000Y-130400000D03*
X65600000Y-109100000D03*
X58500000Y-119600000D03*
X53950000Y-130550000D03*
X71400000Y-125800000D03*
X67700000Y-106800000D03*
X69000000Y-104900000D03*
X65500000Y-120400000D03*
X71400000Y-124200000D03*
X68600000Y-125900000D03*
X73000000Y-129000000D03*
X75400000Y-129000000D03*
X55600000Y-120900000D03*
X52600000Y-120900000D03*
X54500000Y-109800000D03*
X52300000Y-107600000D03*
D19*
X48650000Y-119450000D02*
X49400000Y-119450000D01*
X47400000Y-120700000D02*
X48650000Y-119450000D01*
X47400000Y-122550000D02*
X47400000Y-120700000D01*
X51000000Y-119700000D02*
X51000000Y-119450000D01*
X49000000Y-121700000D02*
X51000000Y-119700000D01*
X49000000Y-122550000D02*
X49000000Y-121700000D01*
X49400000Y-113100000D02*
X55500000Y-107000000D01*
X49400000Y-114550000D02*
X49400000Y-113100000D01*
X55500000Y-107000000D02*
X59000000Y-107000000D01*
X59600000Y-107600000D02*
X59600000Y-108550000D01*
X59000000Y-107000000D02*
X59600000Y-107600000D01*
X58000000Y-109500000D02*
X58000000Y-108550000D01*
X56500000Y-111000000D02*
X58000000Y-109500000D01*
X53600000Y-111000000D02*
X56500000Y-111000000D01*
X51000000Y-114550000D02*
X51000000Y-113600000D01*
X51000000Y-113600000D02*
X53600000Y-111000000D01*
X62400000Y-112700000D02*
X62400000Y-112450000D01*
X61650000Y-113450000D02*
X62400000Y-112700000D01*
X59600000Y-113450000D02*
X61650000Y-113450000D01*
X64000000Y-111500000D02*
X64000000Y-112450000D01*
X59550000Y-110900000D02*
X63400000Y-110900000D01*
X63400000Y-110900000D02*
X64000000Y-111500000D01*
X58000000Y-113450000D02*
X58000000Y-112450000D01*
X58000000Y-112450000D02*
X59550000Y-110900000D01*
X78600000Y-113600000D02*
X78600000Y-114550000D01*
X77450000Y-112450000D02*
X78600000Y-113600000D01*
X71600000Y-113450000D02*
X72350000Y-113450000D01*
X73350000Y-112450000D02*
X77450000Y-112450000D01*
X72350000Y-113450000D02*
X73350000Y-112450000D01*
X77000000Y-113600000D02*
X77000000Y-114550000D01*
X76300000Y-112900000D02*
X77000000Y-113600000D01*
X70000000Y-114400000D02*
X70500000Y-114900000D01*
X70000000Y-113450000D02*
X70000000Y-114400000D01*
X74200000Y-112900000D02*
X76300000Y-112900000D01*
X70500000Y-114900000D02*
X72200000Y-114900000D01*
X72200000Y-114900000D02*
X74200000Y-112900000D01*
X80600000Y-121550000D02*
X80600000Y-122550000D01*
X80600000Y-120700000D02*
X80600000Y-121550000D01*
X79350000Y-119450000D02*
X80600000Y-120700000D01*
X78600000Y-119450000D02*
X79350000Y-119450000D01*
X79000000Y-122300000D02*
X79000000Y-122550000D01*
X77000000Y-120300000D02*
X79000000Y-122300000D01*
X77000000Y-119450000D02*
X77000000Y-120300000D01*
X79350000Y-130550000D02*
X78600000Y-130550000D01*
X80600000Y-127450000D02*
X80600000Y-129300000D01*
X80600000Y-129300000D02*
X79350000Y-130550000D01*
X77000000Y-130100000D02*
X77000000Y-130550000D01*
X79000000Y-127450000D02*
X79000000Y-128100000D01*
X79000000Y-128100000D02*
X77000000Y-130100000D01*
X65600000Y-137300000D02*
X65600000Y-137550000D01*
X66350000Y-136550000D02*
X65600000Y-137300000D01*
X68400000Y-136550000D02*
X66350000Y-136550000D01*
X64800000Y-139300000D02*
X64000000Y-138500000D01*
X67500000Y-139300000D02*
X64800000Y-139300000D01*
X70000000Y-136550000D02*
X70000000Y-136800000D01*
X64000000Y-138500000D02*
X64000000Y-137550000D01*
X70000000Y-136800000D02*
X67500000Y-139300000D01*
X56400000Y-142400000D02*
X56400000Y-141450000D01*
X58350011Y-144350011D02*
X56400000Y-142400000D01*
X64649989Y-144350011D02*
X58350011Y-144350011D01*
X65600000Y-142450000D02*
X65600000Y-143400000D01*
X65600000Y-143400000D02*
X64649989Y-144350011D01*
X59500000Y-143900000D02*
X58000000Y-142400000D01*
X63550000Y-143900000D02*
X59500000Y-143900000D01*
X64000000Y-142450000D02*
X64000000Y-143450000D01*
X58000000Y-142400000D02*
X58000000Y-141450000D01*
X64000000Y-143450000D02*
X63550000Y-143900000D01*
X50450000Y-137550000D02*
X49400000Y-136500000D01*
X54650000Y-137550000D02*
X50450000Y-137550000D01*
X56400000Y-136550000D02*
X55650000Y-136550000D01*
X49400000Y-136500000D02*
X49400000Y-135450000D01*
X55650000Y-136550000D02*
X54650000Y-137550000D01*
X58000000Y-135700000D02*
X57500000Y-135200000D01*
X58000000Y-136550000D02*
X58000000Y-135700000D01*
X51000000Y-136400000D02*
X51000000Y-135450000D01*
X51600000Y-137000000D02*
X51000000Y-136400000D01*
X57500000Y-135200000D02*
X55600000Y-135200000D01*
X55600000Y-135200000D02*
X53800000Y-137000000D01*
X53800000Y-137000000D02*
X51600000Y-137000000D01*
X53749989Y-117250011D02*
X54600000Y-116400000D01*
X53749989Y-121250011D02*
X53749989Y-117250011D01*
X54600000Y-116400000D02*
X55550000Y-116400000D01*
X53400000Y-122550000D02*
X53400000Y-121600000D01*
X53400000Y-121600000D02*
X53749989Y-121250011D01*
X54600000Y-118000000D02*
X55550000Y-118000000D01*
X54200000Y-118400000D02*
X54600000Y-118000000D01*
X54200000Y-120800000D02*
X54200000Y-118400000D01*
X55000000Y-122550000D02*
X55000000Y-121600000D01*
X55000000Y-121600000D02*
X54200000Y-120800000D01*
X67550000Y-116400000D02*
X69200000Y-116400000D01*
X60450000Y-116400000D02*
X58800000Y-116400000D01*
X67550000Y-118000000D02*
X69200000Y-118000000D01*
X58846030Y-118000000D02*
X58823015Y-117976985D01*
X60450000Y-118000000D02*
X58846030Y-118000000D01*
X74600000Y-121600000D02*
X74600000Y-122550000D01*
X74350009Y-121350009D02*
X74600000Y-121600000D01*
X74350009Y-117300009D02*
X74350009Y-121350009D01*
X72450000Y-116400000D02*
X73450000Y-116400000D01*
X73450000Y-116400000D02*
X74350009Y-117300009D01*
X73800000Y-118350000D02*
X73800000Y-120750000D01*
X73000000Y-121550000D02*
X73000000Y-122550000D01*
X73800000Y-120750000D02*
X73000000Y-121550000D01*
X72450000Y-118000000D02*
X73450000Y-118000000D01*
X73450000Y-118000000D02*
X73800000Y-118350000D01*
X60450000Y-133600000D02*
X58800000Y-133600000D01*
X67550000Y-133600000D02*
X69200000Y-133600000D01*
X60450000Y-132000000D02*
X58800000Y-132000000D01*
X67550000Y-132000000D02*
X69200000Y-132000000D01*
X59400000Y-128450000D02*
X59400000Y-127450000D01*
X58050011Y-129799989D02*
X59400000Y-128450000D01*
X58050011Y-132049989D02*
X58050011Y-129799989D01*
X55550000Y-133600000D02*
X56500000Y-133600000D01*
X56500000Y-133600000D02*
X58050011Y-132049989D01*
X60500000Y-126000000D02*
X61000000Y-126500000D01*
X56500000Y-132000000D02*
X57600000Y-130900000D01*
X57600000Y-127200000D02*
X58800000Y-126000000D01*
X55550000Y-132000000D02*
X56500000Y-132000000D01*
X61000000Y-126500000D02*
X61000000Y-127450000D01*
X57600000Y-130900000D02*
X57600000Y-127200000D01*
X58800000Y-126000000D02*
X60500000Y-126000000D01*
X65400000Y-126500000D02*
X65400000Y-127450000D01*
X61750000Y-125900000D02*
X64800000Y-125900000D01*
X64800000Y-125900000D02*
X65400000Y-126500000D01*
X59400000Y-122550000D02*
X59400000Y-123550000D01*
X59400000Y-123550000D02*
X61750000Y-125900000D01*
X67000000Y-126500000D02*
X67000000Y-127450000D01*
X62900000Y-125400000D02*
X65900000Y-125400000D01*
X65900000Y-125400000D02*
X67000000Y-126500000D01*
X61000000Y-122550000D02*
X61000000Y-123500000D01*
X61000000Y-123500000D02*
X62900000Y-125400000D01*
D20*
X75400000Y-117800000D02*
X75400000Y-119550000D01*
X59600000Y-136800000D02*
X59600000Y-136550000D01*
X59600000Y-138100000D02*
X59600000Y-136800000D01*
X62400000Y-142450000D02*
X62400000Y-140900000D01*
X62400000Y-140900000D02*
X60150000Y-138650000D01*
X60150000Y-138650000D02*
X59600000Y-138100000D01*
X70700000Y-119600000D02*
X70700000Y-119600000D01*
X68600000Y-122550000D02*
X68600000Y-121700000D01*
X68600000Y-121700000D02*
X70700000Y-119600000D01*
X68400000Y-114300000D02*
X68400000Y-113450000D01*
X70700000Y-119600000D02*
X70700000Y-116600000D01*
X70700000Y-116600000D02*
X68400000Y-114300000D01*
X70700000Y-119600000D02*
X72450000Y-119600000D01*
X71400000Y-128300000D02*
X71400000Y-127450000D01*
X67550000Y-130400000D02*
X69300000Y-130400000D01*
X69300000Y-130400000D02*
X69300000Y-130400000D01*
X69300000Y-130400000D02*
X71400000Y-128300000D01*
X70300000Y-134500000D02*
X70300000Y-131500000D01*
X70300000Y-131500000D02*
X69200000Y-130400000D01*
X68650000Y-130400000D02*
X67550000Y-130400000D01*
X71600000Y-135800000D02*
X70300000Y-134500000D01*
X71600000Y-136550000D02*
X71600000Y-135800000D01*
X69200000Y-130400000D02*
X68650000Y-130400000D01*
X75400000Y-135700000D02*
X75400000Y-135450000D01*
X74550000Y-136550000D02*
X75400000Y-135700000D01*
X71600000Y-136550000D02*
X74550000Y-136550000D01*
X65600000Y-107550000D02*
X65600000Y-109100000D01*
X55650000Y-113450000D02*
X56400000Y-113450000D01*
X52600000Y-114550000D02*
X54550000Y-114550000D01*
X54550000Y-114550000D02*
X55650000Y-113450000D01*
X60450000Y-119600000D02*
X59000000Y-119600000D01*
X58500000Y-119600000D02*
X58500000Y-119600000D01*
X56600000Y-121450000D02*
X58450000Y-119600000D01*
X58450000Y-119600000D02*
X59000000Y-119600000D01*
X56600000Y-122550000D02*
X56600000Y-121450000D01*
X57500000Y-115650000D02*
X56400000Y-114550000D01*
X57500000Y-118600000D02*
X57500000Y-115650000D01*
X58500000Y-119600000D02*
X57500000Y-118600000D01*
X59000000Y-119600000D02*
X58500000Y-119600000D01*
X56400000Y-114550000D02*
X56400000Y-113450000D01*
X62600000Y-121450000D02*
X62600000Y-122550000D01*
X60750000Y-119600000D02*
X62600000Y-121450000D01*
X60450000Y-119600000D02*
X60750000Y-119600000D01*
X55400000Y-130550000D02*
X55550000Y-130400000D01*
X52600000Y-130550000D02*
X53950000Y-130550000D01*
X53950000Y-130550000D02*
X55400000Y-130550000D01*
X50600000Y-123400000D02*
X50600000Y-122550000D01*
X51400000Y-124200000D02*
X50600000Y-123400000D01*
X56050000Y-124200000D02*
X51400000Y-124200000D01*
X56600000Y-122550000D02*
X56600000Y-123650000D01*
X56600000Y-123650000D02*
X56050000Y-124200000D01*
X71400000Y-127450000D02*
X71400000Y-125800000D01*
X68600000Y-123000000D02*
X71400000Y-125800000D01*
X68600000Y-122550000D02*
X68600000Y-123000000D01*
X71400000Y-125800000D02*
X71400000Y-125800000D01*
X71400000Y-125800000D02*
X76800000Y-125800000D01*
X77400000Y-126400000D02*
X77400000Y-127450000D01*
X76800000Y-125800000D02*
X77400000Y-126400000D01*
X68400000Y-108550000D02*
X68400000Y-107500000D01*
X68400000Y-107500000D02*
X67700000Y-106800000D01*
X67550000Y-119600000D02*
X66300000Y-119600000D01*
X66300000Y-119600000D02*
X65500000Y-120400000D01*
X71400000Y-123700000D02*
X71400000Y-122550000D01*
X71400000Y-124200000D02*
X71400000Y-123700000D01*
X68600000Y-125900000D02*
X68600000Y-127450000D01*
X72450000Y-130400000D02*
X72450000Y-129550000D01*
X72450000Y-129550000D02*
X73000000Y-129000000D01*
X55550000Y-119600000D02*
X55550000Y-120850000D01*
X55550000Y-120850000D02*
X55600000Y-120900000D01*
X56400000Y-108550000D02*
X55750000Y-108550000D01*
X55750000Y-108550000D02*
X54500000Y-109800000D01*
D19*
X45800000Y-127840000D02*
X37120000Y-136520000D01*
X49000000Y-126600000D02*
X48300000Y-125900000D01*
X46600000Y-125900000D02*
X45800000Y-126700000D01*
X49000000Y-127450000D02*
X49000000Y-126600000D01*
X48300000Y-125900000D02*
X46600000Y-125900000D01*
X45800000Y-126700000D02*
X45800000Y-127840000D01*
X47400000Y-131320000D02*
X37120000Y-141600000D01*
X47400000Y-127450000D02*
X47400000Y-131320000D01*
X70000000Y-107600000D02*
X70000000Y-108550000D01*
X62400000Y-107550000D02*
X62400000Y-106600000D01*
X68400000Y-106000000D02*
X70000000Y-107600000D01*
X63000000Y-106000000D02*
X68400000Y-106000000D01*
X62400000Y-106600000D02*
X63000000Y-106000000D01*
X71000000Y-110000000D02*
X71600000Y-109400000D01*
X65450000Y-110000000D02*
X71000000Y-110000000D01*
X64000000Y-107550000D02*
X64000000Y-108550000D01*
X71600000Y-109400000D02*
X71600000Y-108550000D01*
X64000000Y-108550000D02*
X65450000Y-110000000D01*
X70000000Y-140600000D02*
X70000000Y-141450000D01*
X71500000Y-139100000D02*
X70000000Y-140600000D01*
X75800000Y-139100000D02*
X71500000Y-139100000D01*
X78600000Y-135450000D02*
X78600000Y-136300000D01*
X78600000Y-136300000D02*
X75800000Y-139100000D01*
X68400000Y-140600000D02*
X68400000Y-141450000D01*
X74750011Y-138649989D02*
X70350011Y-138649989D01*
X70350011Y-138649989D02*
X68400000Y-140600000D01*
X77000000Y-135450000D02*
X77000000Y-136400000D01*
X77000000Y-136400000D02*
X74750011Y-138649989D01*
X49650000Y-130550000D02*
X49500000Y-130400000D01*
X49400000Y-130550000D02*
X49650000Y-130550000D01*
X49400000Y-130550000D02*
X49400000Y-129550000D01*
X55000000Y-126500000D02*
X55000000Y-127450000D01*
X54600000Y-126100000D02*
X55000000Y-126500000D01*
X49400000Y-129550000D02*
X50050000Y-128900000D01*
X50050000Y-128900000D02*
X51300000Y-128900000D01*
X52914998Y-126100000D02*
X54600000Y-126100000D01*
X52000000Y-127014998D02*
X52914998Y-126100000D01*
X52000000Y-128200000D02*
X52000000Y-127014998D01*
X51300000Y-128900000D02*
X52000000Y-128200000D01*
X53400000Y-127700000D02*
X53400000Y-127450000D01*
X51000000Y-130100000D02*
X53400000Y-127700000D01*
X51000000Y-130550000D02*
X51000000Y-130100000D01*
X73800000Y-129250000D02*
X73800000Y-131600000D01*
X73400000Y-132000000D02*
X72450000Y-132000000D01*
X74600000Y-127450000D02*
X74600000Y-128450000D01*
X73800000Y-131600000D02*
X73400000Y-132000000D01*
X74600000Y-128450000D02*
X73800000Y-129250000D01*
X73000000Y-127450000D02*
X73000000Y-127700000D01*
X71100000Y-132500000D02*
X72200000Y-133600000D01*
X71100000Y-129600000D02*
X71100000Y-132500000D01*
X73000000Y-127700000D02*
X71100000Y-129600000D01*
X72200000Y-133600000D02*
X72450000Y-133600000D01*
D21*
G36*
X84305000Y-145305000D02*
G01*
X20695000Y-145305000D01*
X20695000Y-128744896D01*
X35545200Y-128744896D01*
X35545200Y-129055104D01*
X35605718Y-129359352D01*
X35724430Y-129645948D01*
X35896773Y-129903877D01*
X36116123Y-130123227D01*
X36186124Y-130170000D01*
X36116123Y-130216773D01*
X35896773Y-130436123D01*
X35724430Y-130694052D01*
X35605718Y-130980648D01*
X35545200Y-131284896D01*
X35545200Y-131595104D01*
X35605718Y-131899352D01*
X35724430Y-132185948D01*
X35896773Y-132443877D01*
X36116123Y-132663227D01*
X36186124Y-132710000D01*
X36116123Y-132756773D01*
X35896773Y-132976123D01*
X35724430Y-133234052D01*
X35605718Y-133520648D01*
X35545200Y-133824896D01*
X35545200Y-134135104D01*
X35605718Y-134439352D01*
X35724430Y-134725948D01*
X35896773Y-134983877D01*
X36116123Y-135203227D01*
X36186124Y-135250000D01*
X36116123Y-135296773D01*
X35896773Y-135516123D01*
X35724430Y-135774052D01*
X35605718Y-136060648D01*
X35545200Y-136364896D01*
X35545200Y-136675104D01*
X35605718Y-136979352D01*
X35724430Y-137265948D01*
X35896773Y-137523877D01*
X36116123Y-137743227D01*
X36186124Y-137790000D01*
X36116123Y-137836773D01*
X35896773Y-138056123D01*
X35724430Y-138314052D01*
X35605718Y-138600648D01*
X35545200Y-138904896D01*
X35545200Y-139215104D01*
X35605718Y-139519352D01*
X35724430Y-139805948D01*
X35896773Y-140063877D01*
X36116123Y-140283227D01*
X36186124Y-140330000D01*
X36116123Y-140376773D01*
X35896773Y-140596123D01*
X35724430Y-140854052D01*
X35605718Y-141140648D01*
X35545200Y-141444896D01*
X35545200Y-141755104D01*
X35605718Y-142059352D01*
X35724430Y-142345948D01*
X35896773Y-142603877D01*
X36116123Y-142823227D01*
X36374052Y-142995570D01*
X36660648Y-143114282D01*
X36964896Y-143174800D01*
X37275104Y-143174800D01*
X37579352Y-143114282D01*
X37865948Y-142995570D01*
X38123877Y-142823227D01*
X38343227Y-142603877D01*
X38515570Y-142345948D01*
X38634282Y-142059352D01*
X38694800Y-141755104D01*
X38694800Y-141444896D01*
X38637579Y-141157222D01*
X47911008Y-131883795D01*
X47940001Y-131860001D01*
X47963795Y-131831008D01*
X47963799Y-131831004D01*
X48031108Y-131748987D01*
X48034974Y-131744276D01*
X48105546Y-131612247D01*
X48149003Y-131468986D01*
X48160000Y-131357333D01*
X48160000Y-131357324D01*
X48163676Y-131320001D01*
X48160000Y-131282678D01*
X48160000Y-128781046D01*
X48200000Y-128759665D01*
X48255820Y-128789502D01*
X48375518Y-128825812D01*
X48500000Y-128838072D01*
X49037127Y-128838072D01*
X48888998Y-128986201D01*
X48860000Y-129009999D01*
X48836202Y-129038997D01*
X48836201Y-129038998D01*
X48765026Y-129125724D01*
X48732078Y-129187365D01*
X48655820Y-129210498D01*
X48545506Y-129269463D01*
X48448815Y-129348815D01*
X48369463Y-129445506D01*
X48310498Y-129555820D01*
X48274188Y-129675518D01*
X48261928Y-129800000D01*
X48261928Y-131300000D01*
X48274188Y-131424482D01*
X48310498Y-131544180D01*
X48369463Y-131654494D01*
X48448815Y-131751185D01*
X48545506Y-131830537D01*
X48655820Y-131889502D01*
X48775518Y-131925812D01*
X48900000Y-131938072D01*
X49900000Y-131938072D01*
X50024482Y-131925812D01*
X50144180Y-131889502D01*
X50200000Y-131859665D01*
X50255820Y-131889502D01*
X50375518Y-131925812D01*
X50500000Y-131938072D01*
X51500000Y-131938072D01*
X51624482Y-131925812D01*
X51744180Y-131889502D01*
X51800000Y-131859665D01*
X51855820Y-131889502D01*
X51975518Y-131925812D01*
X52100000Y-131938072D01*
X53100000Y-131938072D01*
X53224482Y-131925812D01*
X53344180Y-131889502D01*
X53454494Y-131830537D01*
X53551185Y-131751185D01*
X53630537Y-131654494D01*
X53685018Y-131552569D01*
X53848061Y-131585000D01*
X54051939Y-131585000D01*
X54161928Y-131563122D01*
X54161928Y-132500000D01*
X54174188Y-132624482D01*
X54210498Y-132744180D01*
X54240335Y-132800000D01*
X54210498Y-132855820D01*
X54174188Y-132975518D01*
X54161928Y-133100000D01*
X54161928Y-134100000D01*
X54174188Y-134224482D01*
X54210498Y-134344180D01*
X54269463Y-134454494D01*
X54348815Y-134551185D01*
X54445506Y-134630537D01*
X54555820Y-134689502D01*
X54675518Y-134725812D01*
X54800000Y-134738072D01*
X54987125Y-134738072D01*
X53736673Y-135988526D01*
X53735000Y-135735750D01*
X53576250Y-135577000D01*
X52727000Y-135577000D01*
X52727000Y-135597000D01*
X52473000Y-135597000D01*
X52473000Y-135577000D01*
X52453000Y-135577000D01*
X52453000Y-135323000D01*
X52473000Y-135323000D01*
X52473000Y-134223750D01*
X52727000Y-134223750D01*
X52727000Y-135323000D01*
X53576250Y-135323000D01*
X53735000Y-135164250D01*
X53738072Y-134700000D01*
X53725812Y-134575518D01*
X53689502Y-134455820D01*
X53630537Y-134345506D01*
X53551185Y-134248815D01*
X53454494Y-134169463D01*
X53344180Y-134110498D01*
X53224482Y-134074188D01*
X53100000Y-134061928D01*
X52885750Y-134065000D01*
X52727000Y-134223750D01*
X52473000Y-134223750D01*
X52314250Y-134065000D01*
X52100000Y-134061928D01*
X51975518Y-134074188D01*
X51855820Y-134110498D01*
X51800000Y-134140335D01*
X51744180Y-134110498D01*
X51624482Y-134074188D01*
X51500000Y-134061928D01*
X50500000Y-134061928D01*
X50375518Y-134074188D01*
X50255820Y-134110498D01*
X50200000Y-134140335D01*
X50144180Y-134110498D01*
X50024482Y-134074188D01*
X49900000Y-134061928D01*
X48900000Y-134061928D01*
X48775518Y-134074188D01*
X48655820Y-134110498D01*
X48545506Y-134169463D01*
X48448815Y-134248815D01*
X48369463Y-134345506D01*
X48310498Y-134455820D01*
X48274188Y-134575518D01*
X48261928Y-134700000D01*
X48261928Y-136200000D01*
X48274188Y-136324482D01*
X48310498Y-136444180D01*
X48369463Y-136554494D01*
X48448815Y-136651185D01*
X48545506Y-136730537D01*
X48655820Y-136789502D01*
X48700180Y-136802958D01*
X48765026Y-136924276D01*
X48793349Y-136958787D01*
X48859999Y-137040001D01*
X48889002Y-137063804D01*
X49886201Y-138061003D01*
X49909999Y-138090001D01*
X50025724Y-138184974D01*
X50157753Y-138255546D01*
X50301014Y-138299003D01*
X50412667Y-138310000D01*
X50412676Y-138310000D01*
X50449999Y-138313676D01*
X50487322Y-138310000D01*
X54612678Y-138310000D01*
X54650000Y-138313676D01*
X54687322Y-138310000D01*
X54687333Y-138310000D01*
X54798986Y-138299003D01*
X54942247Y-138255546D01*
X55074276Y-138184974D01*
X55190001Y-138090001D01*
X55213804Y-138060998D01*
X55489899Y-137784902D01*
X55545506Y-137830537D01*
X55655820Y-137889502D01*
X55775518Y-137925812D01*
X55900000Y-137938072D01*
X56900000Y-137938072D01*
X57024482Y-137925812D01*
X57144180Y-137889502D01*
X57200000Y-137859665D01*
X57255820Y-137889502D01*
X57375518Y-137925812D01*
X57500000Y-137938072D01*
X58500000Y-137938072D01*
X58624482Y-137925812D01*
X58744180Y-137889502D01*
X58790000Y-137865010D01*
X58790000Y-138060211D01*
X58786081Y-138100000D01*
X58790000Y-138139788D01*
X58790000Y-138139790D01*
X58801720Y-138258787D01*
X58848037Y-138411472D01*
X58848038Y-138411473D01*
X58923251Y-138552189D01*
X58953460Y-138588998D01*
X59024472Y-138675528D01*
X59055387Y-138700899D01*
X59117129Y-138762641D01*
X59154774Y-138951898D01*
X59232795Y-139140256D01*
X59346063Y-139309774D01*
X59490226Y-139453937D01*
X59659744Y-139567205D01*
X59848102Y-139645226D01*
X60037359Y-139682871D01*
X61533667Y-141179179D01*
X61448815Y-141248815D01*
X61369463Y-141345506D01*
X61310498Y-141455820D01*
X61274188Y-141575518D01*
X61261928Y-141700000D01*
X61261928Y-143140000D01*
X59814802Y-143140000D01*
X59412026Y-142737224D01*
X59473000Y-142676250D01*
X59473000Y-141577000D01*
X59727000Y-141577000D01*
X59727000Y-142676250D01*
X59885750Y-142835000D01*
X60100000Y-142838072D01*
X60224482Y-142825812D01*
X60344180Y-142789502D01*
X60454494Y-142730537D01*
X60551185Y-142651185D01*
X60630537Y-142554494D01*
X60689502Y-142444180D01*
X60725812Y-142324482D01*
X60738072Y-142200000D01*
X60735000Y-141735750D01*
X60576250Y-141577000D01*
X59727000Y-141577000D01*
X59473000Y-141577000D01*
X59453000Y-141577000D01*
X59453000Y-141323000D01*
X59473000Y-141323000D01*
X59473000Y-140223750D01*
X59727000Y-140223750D01*
X59727000Y-141323000D01*
X60576250Y-141323000D01*
X60735000Y-141164250D01*
X60738072Y-140700000D01*
X60725812Y-140575518D01*
X60689502Y-140455820D01*
X60630537Y-140345506D01*
X60551185Y-140248815D01*
X60454494Y-140169463D01*
X60344180Y-140110498D01*
X60224482Y-140074188D01*
X60100000Y-140061928D01*
X59885750Y-140065000D01*
X59727000Y-140223750D01*
X59473000Y-140223750D01*
X59314250Y-140065000D01*
X59100000Y-140061928D01*
X58975518Y-140074188D01*
X58855820Y-140110498D01*
X58800000Y-140140335D01*
X58744180Y-140110498D01*
X58624482Y-140074188D01*
X58500000Y-140061928D01*
X57500000Y-140061928D01*
X57375518Y-140074188D01*
X57255820Y-140110498D01*
X57200000Y-140140335D01*
X57144180Y-140110498D01*
X57024482Y-140074188D01*
X56900000Y-140061928D01*
X55900000Y-140061928D01*
X55775518Y-140074188D01*
X55655820Y-140110498D01*
X55545506Y-140169463D01*
X55448815Y-140248815D01*
X55369463Y-140345506D01*
X55310498Y-140455820D01*
X55274188Y-140575518D01*
X55261928Y-140700000D01*
X55261928Y-142200000D01*
X55274188Y-142324482D01*
X55310498Y-142444180D01*
X55369463Y-142554494D01*
X55448815Y-142651185D01*
X55545506Y-142730537D01*
X55655820Y-142789502D01*
X55763975Y-142822311D01*
X55765026Y-142824276D01*
X55794344Y-142860000D01*
X55859999Y-142940001D01*
X55889003Y-142963804D01*
X57786212Y-144861014D01*
X57810010Y-144890012D01*
X57839008Y-144913810D01*
X57925734Y-144984985D01*
X58057764Y-145055557D01*
X58201025Y-145099014D01*
X58312678Y-145110011D01*
X58312688Y-145110011D01*
X58350010Y-145113687D01*
X58387333Y-145110011D01*
X64612667Y-145110011D01*
X64649989Y-145113687D01*
X64687311Y-145110011D01*
X64687322Y-145110011D01*
X64798975Y-145099014D01*
X64942236Y-145055557D01*
X65074265Y-144984985D01*
X65189990Y-144890012D01*
X65213792Y-144861009D01*
X66111008Y-143963795D01*
X66140001Y-143940001D01*
X66163795Y-143911008D01*
X66163799Y-143911004D01*
X66234973Y-143824277D01*
X66236024Y-143822311D01*
X66344180Y-143789502D01*
X66454494Y-143730537D01*
X66551185Y-143651185D01*
X66630537Y-143554494D01*
X66689502Y-143444180D01*
X66725812Y-143324482D01*
X66738072Y-143200000D01*
X66738072Y-141700000D01*
X66725812Y-141575518D01*
X66689502Y-141455820D01*
X66630537Y-141345506D01*
X66551185Y-141248815D01*
X66454494Y-141169463D01*
X66344180Y-141110498D01*
X66224482Y-141074188D01*
X66100000Y-141061928D01*
X65100000Y-141061928D01*
X64975518Y-141074188D01*
X64855820Y-141110498D01*
X64800000Y-141140335D01*
X64744180Y-141110498D01*
X64624482Y-141074188D01*
X64500000Y-141061928D01*
X63500000Y-141061928D01*
X63375518Y-141074188D01*
X63255820Y-141110498D01*
X63210000Y-141134990D01*
X63210000Y-140939791D01*
X63213919Y-140900000D01*
X63198280Y-140741212D01*
X63151963Y-140588526D01*
X63076749Y-140447811D01*
X63000893Y-140355380D01*
X62975528Y-140324472D01*
X62944618Y-140299105D01*
X61182871Y-138537359D01*
X61145226Y-138348102D01*
X61125302Y-138300000D01*
X61261928Y-138300000D01*
X61274188Y-138424482D01*
X61310498Y-138544180D01*
X61369463Y-138654494D01*
X61448815Y-138751185D01*
X61545506Y-138830537D01*
X61655820Y-138889502D01*
X61775518Y-138925812D01*
X61900000Y-138938072D01*
X62114250Y-138935000D01*
X62273000Y-138776250D01*
X62273000Y-137677000D01*
X61423750Y-137677000D01*
X61265000Y-137835750D01*
X61261928Y-138300000D01*
X61125302Y-138300000D01*
X61067205Y-138159744D01*
X60953937Y-137990226D01*
X60809774Y-137846063D01*
X60640256Y-137732795D01*
X60585045Y-137709926D01*
X60630537Y-137654494D01*
X60689502Y-137544180D01*
X60725812Y-137424482D01*
X60738072Y-137300000D01*
X60738072Y-135800000D01*
X60725812Y-135675518D01*
X60689502Y-135555820D01*
X60630537Y-135445506D01*
X60551185Y-135348815D01*
X60454494Y-135269463D01*
X60344180Y-135210498D01*
X60224482Y-135174188D01*
X60100000Y-135161928D01*
X59100000Y-135161928D01*
X58975518Y-135174188D01*
X58855820Y-135210498D01*
X58800000Y-135240335D01*
X58744180Y-135210498D01*
X58624482Y-135174188D01*
X58545241Y-135166384D01*
X58540001Y-135159999D01*
X58510997Y-135136196D01*
X58063804Y-134689003D01*
X58040001Y-134659999D01*
X57924276Y-134565026D01*
X57792247Y-134494454D01*
X57648986Y-134450997D01*
X57537333Y-134440000D01*
X57537322Y-134440000D01*
X57500000Y-134436324D01*
X57462678Y-134440000D01*
X56838284Y-134440000D01*
X56889502Y-134344180D01*
X56922311Y-134236025D01*
X56924276Y-134234974D01*
X57040001Y-134140001D01*
X57063804Y-134110997D01*
X57786915Y-133387887D01*
X57765000Y-133498061D01*
X57765000Y-133701939D01*
X57804774Y-133901898D01*
X57882795Y-134090256D01*
X57996063Y-134259774D01*
X58140226Y-134403937D01*
X58309744Y-134517205D01*
X58498102Y-134595226D01*
X58698061Y-134635000D01*
X58901939Y-134635000D01*
X59101898Y-134595226D01*
X59238517Y-134538636D01*
X59248815Y-134551185D01*
X59345506Y-134630537D01*
X59455820Y-134689502D01*
X59575518Y-134725812D01*
X59700000Y-134738072D01*
X61200000Y-134738072D01*
X61324482Y-134725812D01*
X61444180Y-134689502D01*
X61554494Y-134630537D01*
X61573000Y-134615350D01*
X61573000Y-136254767D01*
X61545506Y-136269463D01*
X61448815Y-136348815D01*
X61369463Y-136445506D01*
X61310498Y-136555820D01*
X61274188Y-136675518D01*
X61261928Y-136800000D01*
X61265000Y-137264250D01*
X61423750Y-137423000D01*
X62273000Y-137423000D01*
X62273000Y-137403000D01*
X62527000Y-137403000D01*
X62527000Y-137423000D01*
X62547000Y-137423000D01*
X62547000Y-137677000D01*
X62527000Y-137677000D01*
X62527000Y-138776250D01*
X62685750Y-138935000D01*
X62900000Y-138938072D01*
X63024482Y-138925812D01*
X63144180Y-138889502D01*
X63200000Y-138859665D01*
X63255820Y-138889502D01*
X63363975Y-138922311D01*
X63365026Y-138924276D01*
X63387695Y-138951898D01*
X63459999Y-139040001D01*
X63489002Y-139063803D01*
X64236201Y-139811002D01*
X64259999Y-139840001D01*
X64375724Y-139934974D01*
X64507753Y-140005546D01*
X64651014Y-140049003D01*
X64762667Y-140060000D01*
X64762677Y-140060000D01*
X64800000Y-140063676D01*
X64837323Y-140060000D01*
X67462678Y-140060000D01*
X67500000Y-140063676D01*
X67537322Y-140060000D01*
X67537333Y-140060000D01*
X67648986Y-140049003D01*
X67792247Y-140005546D01*
X67924276Y-139934974D01*
X68040001Y-139840001D01*
X68063804Y-139810997D01*
X69936730Y-137938072D01*
X70078767Y-137938072D01*
X70057764Y-137944443D01*
X69925734Y-138015015D01*
X69866441Y-138063676D01*
X69810010Y-138109988D01*
X69786212Y-138138986D01*
X67889003Y-140036196D01*
X67859999Y-140059999D01*
X67854759Y-140066384D01*
X67775518Y-140074188D01*
X67655820Y-140110498D01*
X67545506Y-140169463D01*
X67448815Y-140248815D01*
X67369463Y-140345506D01*
X67310498Y-140455820D01*
X67274188Y-140575518D01*
X67261928Y-140700000D01*
X67261928Y-142200000D01*
X67274188Y-142324482D01*
X67310498Y-142444180D01*
X67369463Y-142554494D01*
X67448815Y-142651185D01*
X67545506Y-142730537D01*
X67655820Y-142789502D01*
X67775518Y-142825812D01*
X67900000Y-142838072D01*
X68900000Y-142838072D01*
X69024482Y-142825812D01*
X69144180Y-142789502D01*
X69200000Y-142759665D01*
X69255820Y-142789502D01*
X69375518Y-142825812D01*
X69500000Y-142838072D01*
X70500000Y-142838072D01*
X70624482Y-142825812D01*
X70744180Y-142789502D01*
X70800000Y-142759665D01*
X70855820Y-142789502D01*
X70975518Y-142825812D01*
X71100000Y-142838072D01*
X71314250Y-142835000D01*
X71473000Y-142676250D01*
X71473000Y-141577000D01*
X71727000Y-141577000D01*
X71727000Y-142676250D01*
X71885750Y-142835000D01*
X72100000Y-142838072D01*
X72224482Y-142825812D01*
X72344180Y-142789502D01*
X72454494Y-142730537D01*
X72551185Y-142651185D01*
X72630537Y-142554494D01*
X72689502Y-142444180D01*
X72725812Y-142324482D01*
X72738072Y-142200000D01*
X72735000Y-141735750D01*
X72576250Y-141577000D01*
X71727000Y-141577000D01*
X71473000Y-141577000D01*
X71453000Y-141577000D01*
X71453000Y-141323000D01*
X71473000Y-141323000D01*
X71473000Y-141303000D01*
X71727000Y-141303000D01*
X71727000Y-141323000D01*
X72576250Y-141323000D01*
X72735000Y-141164250D01*
X72738072Y-140700000D01*
X72725812Y-140575518D01*
X72689502Y-140455820D01*
X72630537Y-140345506D01*
X72551185Y-140248815D01*
X72454494Y-140169463D01*
X72344180Y-140110498D01*
X72224482Y-140074188D01*
X72100000Y-140061928D01*
X71885750Y-140065000D01*
X71727002Y-140223748D01*
X71727002Y-140065000D01*
X71609802Y-140065000D01*
X71814802Y-139860000D01*
X75762678Y-139860000D01*
X75800000Y-139863676D01*
X75837322Y-139860000D01*
X75837333Y-139860000D01*
X75948986Y-139849003D01*
X76092247Y-139805546D01*
X76224276Y-139734974D01*
X76340001Y-139640001D01*
X76363804Y-139610997D01*
X79111003Y-136863799D01*
X79140001Y-136840001D01*
X79145241Y-136833616D01*
X79224482Y-136825812D01*
X79344180Y-136789502D01*
X79454494Y-136730537D01*
X79551185Y-136651185D01*
X79630537Y-136554494D01*
X79689502Y-136444180D01*
X79725812Y-136324482D01*
X79738072Y-136200000D01*
X79738072Y-134700000D01*
X79725812Y-134575518D01*
X79689502Y-134455820D01*
X79630537Y-134345506D01*
X79551185Y-134248815D01*
X79454494Y-134169463D01*
X79344180Y-134110498D01*
X79224482Y-134074188D01*
X79100000Y-134061928D01*
X78100000Y-134061928D01*
X77975518Y-134074188D01*
X77855820Y-134110498D01*
X77800000Y-134140335D01*
X77744180Y-134110498D01*
X77624482Y-134074188D01*
X77500000Y-134061928D01*
X76500000Y-134061928D01*
X76375518Y-134074188D01*
X76255820Y-134110498D01*
X76200000Y-134140335D01*
X76144180Y-134110498D01*
X76024482Y-134074188D01*
X75900000Y-134061928D01*
X74900000Y-134061928D01*
X74775518Y-134074188D01*
X74655820Y-134110498D01*
X74545506Y-134169463D01*
X74448815Y-134248815D01*
X74369463Y-134345506D01*
X74310498Y-134455820D01*
X74274188Y-134575518D01*
X74261928Y-134700000D01*
X74261928Y-135692560D01*
X74214488Y-135740000D01*
X72732163Y-135740000D01*
X72725812Y-135675518D01*
X72689502Y-135555820D01*
X72630537Y-135445506D01*
X72551185Y-135348815D01*
X72454494Y-135269463D01*
X72344180Y-135210498D01*
X72224482Y-135174188D01*
X72108254Y-135162741D01*
X71681791Y-134736279D01*
X71700000Y-134738072D01*
X73200000Y-134738072D01*
X73324482Y-134725812D01*
X73444180Y-134689502D01*
X73554494Y-134630537D01*
X73651185Y-134551185D01*
X73730537Y-134454494D01*
X73789502Y-134344180D01*
X73825812Y-134224482D01*
X73838072Y-134100000D01*
X73838072Y-133100000D01*
X73825812Y-132975518D01*
X73789502Y-132855820D01*
X73759665Y-132800000D01*
X73789502Y-132744180D01*
X73822311Y-132636025D01*
X73824276Y-132634974D01*
X73940001Y-132540001D01*
X73963803Y-132510998D01*
X74311002Y-132163800D01*
X74340001Y-132140001D01*
X74434974Y-132024276D01*
X74505546Y-131892247D01*
X74528499Y-131816580D01*
X74545506Y-131830537D01*
X74655820Y-131889502D01*
X74775518Y-131925812D01*
X74900000Y-131938072D01*
X75114250Y-131935000D01*
X75273000Y-131776250D01*
X75273000Y-130677000D01*
X75253000Y-130677000D01*
X75253000Y-130423000D01*
X75273000Y-130423000D01*
X75273000Y-129323750D01*
X75114250Y-129165000D01*
X74961985Y-129162817D01*
X75111002Y-129013799D01*
X75140001Y-128990001D01*
X75234974Y-128874276D01*
X75267923Y-128812634D01*
X75344180Y-128789502D01*
X75454494Y-128730537D01*
X75551185Y-128651185D01*
X75630537Y-128554494D01*
X75689502Y-128444180D01*
X75725812Y-128324482D01*
X75738072Y-128200000D01*
X75738072Y-126700000D01*
X75729208Y-126610000D01*
X76270792Y-126610000D01*
X76261928Y-126700000D01*
X76261928Y-128200000D01*
X76274188Y-128324482D01*
X76310498Y-128444180D01*
X76369463Y-128554494D01*
X76448815Y-128651185D01*
X76545506Y-128730537D01*
X76655820Y-128789502D01*
X76775518Y-128825812D01*
X76900000Y-128838072D01*
X77187127Y-128838072D01*
X76863271Y-129161928D01*
X76500000Y-129161928D01*
X76375518Y-129174188D01*
X76255820Y-129210498D01*
X76200000Y-129240335D01*
X76144180Y-129210498D01*
X76024482Y-129174188D01*
X75900000Y-129161928D01*
X75685750Y-129165000D01*
X75527000Y-129323750D01*
X75527000Y-130423000D01*
X75547000Y-130423000D01*
X75547000Y-130677000D01*
X75527000Y-130677000D01*
X75527000Y-131776250D01*
X75685750Y-131935000D01*
X75900000Y-131938072D01*
X76024482Y-131925812D01*
X76144180Y-131889502D01*
X76200000Y-131859665D01*
X76255820Y-131889502D01*
X76375518Y-131925812D01*
X76500000Y-131938072D01*
X77500000Y-131938072D01*
X77624482Y-131925812D01*
X77744180Y-131889502D01*
X77800000Y-131859665D01*
X77855820Y-131889502D01*
X77975518Y-131925812D01*
X78100000Y-131938072D01*
X79100000Y-131938072D01*
X79224482Y-131925812D01*
X79344180Y-131889502D01*
X79454494Y-131830537D01*
X79551185Y-131751185D01*
X79630537Y-131654494D01*
X79689502Y-131544180D01*
X79725812Y-131424482D01*
X79738072Y-131300000D01*
X79738072Y-131204326D01*
X79774276Y-131184974D01*
X79890001Y-131090001D01*
X79913804Y-131060997D01*
X81111003Y-129863799D01*
X81140001Y-129840001D01*
X81192921Y-129775518D01*
X81234974Y-129724277D01*
X81305546Y-129592247D01*
X81307416Y-129586081D01*
X81349003Y-129448986D01*
X81360000Y-129337333D01*
X81360000Y-129337323D01*
X81363676Y-129300000D01*
X81360000Y-129262677D01*
X81360000Y-128781046D01*
X81454494Y-128730537D01*
X81551185Y-128651185D01*
X81630537Y-128554494D01*
X81689502Y-128444180D01*
X81725812Y-128324482D01*
X81738072Y-128200000D01*
X81738072Y-126700000D01*
X81725812Y-126575518D01*
X81689502Y-126455820D01*
X81630537Y-126345506D01*
X81551185Y-126248815D01*
X81454494Y-126169463D01*
X81344180Y-126110498D01*
X81224482Y-126074188D01*
X81100000Y-126061928D01*
X80100000Y-126061928D01*
X79975518Y-126074188D01*
X79855820Y-126110498D01*
X79800000Y-126140335D01*
X79744180Y-126110498D01*
X79624482Y-126074188D01*
X79500000Y-126061928D01*
X78500000Y-126061928D01*
X78375518Y-126074188D01*
X78255820Y-126110498D01*
X78200000Y-126140335D01*
X78161424Y-126119715D01*
X78151963Y-126088527D01*
X78098764Y-125988998D01*
X78076749Y-125947810D01*
X78031119Y-125892210D01*
X77975528Y-125824472D01*
X77944619Y-125799106D01*
X77400899Y-125255387D01*
X77375528Y-125224472D01*
X77252189Y-125123251D01*
X77111473Y-125048037D01*
X76958788Y-125001720D01*
X76839791Y-124990000D01*
X76839788Y-124990000D01*
X76800000Y-124986081D01*
X76760212Y-124990000D01*
X72050700Y-124990000D01*
X71890256Y-124882795D01*
X71701898Y-124804774D01*
X71512641Y-124767129D01*
X70611122Y-123865610D01*
X70655820Y-123889502D01*
X70775518Y-123925812D01*
X70900000Y-123938072D01*
X71114250Y-123935000D01*
X71273000Y-123776250D01*
X71273000Y-122677000D01*
X70423750Y-122677000D01*
X70265000Y-122835750D01*
X70261928Y-123300000D01*
X70274188Y-123424482D01*
X70310498Y-123544180D01*
X70334390Y-123588878D01*
X69738072Y-122992560D01*
X69738072Y-121800000D01*
X70261928Y-121800000D01*
X70265000Y-122264250D01*
X70423750Y-122423000D01*
X71273000Y-122423000D01*
X71273000Y-121323750D01*
X71114250Y-121165000D01*
X70900000Y-121161928D01*
X70775518Y-121174188D01*
X70655820Y-121210498D01*
X70545506Y-121269463D01*
X70448815Y-121348815D01*
X70369463Y-121445506D01*
X70310498Y-121555820D01*
X70274188Y-121675518D01*
X70261928Y-121800000D01*
X69738072Y-121800000D01*
X69729773Y-121715739D01*
X70812642Y-120632871D01*
X71001898Y-120595226D01*
X71190256Y-120517205D01*
X71210066Y-120503969D01*
X71248815Y-120551185D01*
X71345506Y-120630537D01*
X71455820Y-120689502D01*
X71575518Y-120725812D01*
X71700000Y-120738072D01*
X72737127Y-120738072D01*
X72489002Y-120986197D01*
X72459999Y-121009999D01*
X72415947Y-121063677D01*
X72365026Y-121125724D01*
X72332078Y-121187365D01*
X72255820Y-121210498D01*
X72200000Y-121240335D01*
X72144180Y-121210498D01*
X72024482Y-121174188D01*
X71900000Y-121161928D01*
X71685750Y-121165000D01*
X71527000Y-121323750D01*
X71527000Y-122423000D01*
X71547000Y-122423000D01*
X71547000Y-122677000D01*
X71527000Y-122677000D01*
X71527000Y-123776250D01*
X71685750Y-123935000D01*
X71900000Y-123938072D01*
X72024482Y-123925812D01*
X72144180Y-123889502D01*
X72200000Y-123859665D01*
X72255820Y-123889502D01*
X72375518Y-123925812D01*
X72500000Y-123938072D01*
X73500000Y-123938072D01*
X73624482Y-123925812D01*
X73744180Y-123889502D01*
X73800000Y-123859665D01*
X73855820Y-123889502D01*
X73975518Y-123925812D01*
X74100000Y-123938072D01*
X75100000Y-123938072D01*
X75224482Y-123925812D01*
X75344180Y-123889502D01*
X75454494Y-123830537D01*
X75551185Y-123751185D01*
X75630537Y-123654494D01*
X75689502Y-123544180D01*
X75725812Y-123424482D01*
X75738072Y-123300000D01*
X76261928Y-123300000D01*
X76274188Y-123424482D01*
X76310498Y-123544180D01*
X76369463Y-123654494D01*
X76448815Y-123751185D01*
X76545506Y-123830537D01*
X76655820Y-123889502D01*
X76775518Y-123925812D01*
X76900000Y-123938072D01*
X77114250Y-123935000D01*
X77273000Y-123776250D01*
X77273000Y-122677000D01*
X76423750Y-122677000D01*
X76265000Y-122835750D01*
X76261928Y-123300000D01*
X75738072Y-123300000D01*
X75738072Y-121800000D01*
X75725812Y-121675518D01*
X75689502Y-121555820D01*
X75630537Y-121445506D01*
X75551185Y-121348815D01*
X75454494Y-121269463D01*
X75344180Y-121210498D01*
X75236025Y-121177689D01*
X75234974Y-121175724D01*
X75140001Y-121059999D01*
X75110998Y-121036197D01*
X75110009Y-121035208D01*
X75110009Y-120838072D01*
X75900000Y-120838072D01*
X76024482Y-120825812D01*
X76144180Y-120789502D01*
X76200000Y-120759665D01*
X76255820Y-120789502D01*
X76375518Y-120825812D01*
X76454760Y-120833616D01*
X76460000Y-120840001D01*
X76488998Y-120863799D01*
X76797247Y-121172048D01*
X76775518Y-121174188D01*
X76655820Y-121210498D01*
X76545506Y-121269463D01*
X76448815Y-121348815D01*
X76369463Y-121445506D01*
X76310498Y-121555820D01*
X76274188Y-121675518D01*
X76261928Y-121800000D01*
X76265000Y-122264250D01*
X76423750Y-122423000D01*
X77273000Y-122423000D01*
X77273000Y-122403000D01*
X77527000Y-122403000D01*
X77527000Y-122423000D01*
X77547000Y-122423000D01*
X77547000Y-122677000D01*
X77527000Y-122677000D01*
X77527000Y-123776250D01*
X77685750Y-123935000D01*
X77900000Y-123938072D01*
X78024482Y-123925812D01*
X78144180Y-123889502D01*
X78200000Y-123859665D01*
X78255820Y-123889502D01*
X78375518Y-123925812D01*
X78500000Y-123938072D01*
X79500000Y-123938072D01*
X79624482Y-123925812D01*
X79744180Y-123889502D01*
X79800000Y-123859665D01*
X79855820Y-123889502D01*
X79975518Y-123925812D01*
X80100000Y-123938072D01*
X81100000Y-123938072D01*
X81224482Y-123925812D01*
X81344180Y-123889502D01*
X81454494Y-123830537D01*
X81551185Y-123751185D01*
X81630537Y-123654494D01*
X81689502Y-123544180D01*
X81725812Y-123424482D01*
X81738072Y-123300000D01*
X81738072Y-121800000D01*
X81725812Y-121675518D01*
X81689502Y-121555820D01*
X81630537Y-121445506D01*
X81551185Y-121348815D01*
X81454494Y-121269463D01*
X81360000Y-121218954D01*
X81360000Y-120737323D01*
X81363676Y-120700000D01*
X81360000Y-120662677D01*
X81360000Y-120662667D01*
X81349003Y-120551014D01*
X81305546Y-120407753D01*
X81267905Y-120337333D01*
X81234974Y-120275723D01*
X81163799Y-120188997D01*
X81140001Y-120159999D01*
X81111004Y-120136202D01*
X79913804Y-118939003D01*
X79890001Y-118909999D01*
X79774276Y-118815026D01*
X79738072Y-118795674D01*
X79738072Y-118700000D01*
X79725812Y-118575518D01*
X79689502Y-118455820D01*
X79630537Y-118345506D01*
X79551185Y-118248815D01*
X79454494Y-118169463D01*
X79344180Y-118110498D01*
X79224482Y-118074188D01*
X79100000Y-118061928D01*
X78100000Y-118061928D01*
X77975518Y-118074188D01*
X77855820Y-118110498D01*
X77800000Y-118140335D01*
X77744180Y-118110498D01*
X77624482Y-118074188D01*
X77500000Y-118061928D01*
X76500000Y-118061928D01*
X76401242Y-118071655D01*
X76435000Y-117901939D01*
X76435000Y-117698061D01*
X76395226Y-117498102D01*
X76317205Y-117309744D01*
X76203937Y-117140226D01*
X76059774Y-116996063D01*
X75890256Y-116882795D01*
X75701898Y-116804774D01*
X75501939Y-116765000D01*
X75298061Y-116765000D01*
X75098102Y-116804774D01*
X74970221Y-116857744D01*
X74913808Y-116789006D01*
X74890010Y-116760008D01*
X74861013Y-116736211D01*
X74013803Y-115889002D01*
X73990001Y-115859999D01*
X73874276Y-115765026D01*
X73812634Y-115732077D01*
X73789502Y-115655820D01*
X73730537Y-115545506D01*
X73651185Y-115448815D01*
X73554494Y-115369463D01*
X73444180Y-115310498D01*
X73409573Y-115300000D01*
X74261928Y-115300000D01*
X74274188Y-115424482D01*
X74310498Y-115544180D01*
X74369463Y-115654494D01*
X74448815Y-115751185D01*
X74545506Y-115830537D01*
X74655820Y-115889502D01*
X74775518Y-115925812D01*
X74900000Y-115938072D01*
X75114250Y-115935000D01*
X75273000Y-115776250D01*
X75273000Y-114677000D01*
X74423750Y-114677000D01*
X74265000Y-114835750D01*
X74261928Y-115300000D01*
X73409573Y-115300000D01*
X73324482Y-115274188D01*
X73200000Y-115261928D01*
X72912873Y-115261928D01*
X74262670Y-113912132D01*
X74265000Y-114264250D01*
X74423750Y-114423000D01*
X75273000Y-114423000D01*
X75273000Y-114403000D01*
X75527000Y-114403000D01*
X75527000Y-114423000D01*
X75547000Y-114423000D01*
X75547000Y-114677000D01*
X75527000Y-114677000D01*
X75527000Y-115776250D01*
X75685750Y-115935000D01*
X75900000Y-115938072D01*
X76024482Y-115925812D01*
X76144180Y-115889502D01*
X76200000Y-115859665D01*
X76255820Y-115889502D01*
X76375518Y-115925812D01*
X76500000Y-115938072D01*
X77500000Y-115938072D01*
X77624482Y-115925812D01*
X77744180Y-115889502D01*
X77800000Y-115859665D01*
X77855820Y-115889502D01*
X77975518Y-115925812D01*
X78100000Y-115938072D01*
X79100000Y-115938072D01*
X79224482Y-115925812D01*
X79344180Y-115889502D01*
X79454494Y-115830537D01*
X79551185Y-115751185D01*
X79630537Y-115654494D01*
X79689502Y-115544180D01*
X79725812Y-115424482D01*
X79738072Y-115300000D01*
X79738072Y-113800000D01*
X79725812Y-113675518D01*
X79689502Y-113555820D01*
X79630537Y-113445506D01*
X79551185Y-113348815D01*
X79454494Y-113269463D01*
X79344180Y-113210498D01*
X79236025Y-113177689D01*
X79234974Y-113175724D01*
X79163799Y-113088997D01*
X79163798Y-113088996D01*
X79140001Y-113059999D01*
X79111004Y-113036202D01*
X78013804Y-111939003D01*
X77990001Y-111909999D01*
X77874276Y-111815026D01*
X77742247Y-111744454D01*
X77598986Y-111700997D01*
X77487333Y-111690000D01*
X77487322Y-111690000D01*
X77450000Y-111686324D01*
X77412678Y-111690000D01*
X73387333Y-111690000D01*
X73350000Y-111686323D01*
X73312667Y-111690000D01*
X73201014Y-111700997D01*
X73057753Y-111744454D01*
X72925724Y-111815026D01*
X72809999Y-111909999D01*
X72786201Y-111938997D01*
X72510100Y-112215098D01*
X72454494Y-112169463D01*
X72344180Y-112110498D01*
X72224482Y-112074188D01*
X72100000Y-112061928D01*
X71100000Y-112061928D01*
X70975518Y-112074188D01*
X70855820Y-112110498D01*
X70800000Y-112140335D01*
X70744180Y-112110498D01*
X70624482Y-112074188D01*
X70500000Y-112061928D01*
X69500000Y-112061928D01*
X69375518Y-112074188D01*
X69255820Y-112110498D01*
X69200000Y-112140335D01*
X69144180Y-112110498D01*
X69024482Y-112074188D01*
X68900000Y-112061928D01*
X67900000Y-112061928D01*
X67775518Y-112074188D01*
X67655820Y-112110498D01*
X67545506Y-112169463D01*
X67448815Y-112248815D01*
X67369463Y-112345506D01*
X67310498Y-112455820D01*
X67274188Y-112575518D01*
X67261928Y-112700000D01*
X67261928Y-114200000D01*
X67274188Y-114324482D01*
X67310498Y-114444180D01*
X67369463Y-114554494D01*
X67448815Y-114651185D01*
X67545506Y-114730537D01*
X67655820Y-114789502D01*
X67775518Y-114825812D01*
X67784389Y-114826686D01*
X67824472Y-114875528D01*
X67855387Y-114900899D01*
X68216416Y-115261928D01*
X66800000Y-115261928D01*
X66675518Y-115274188D01*
X66555820Y-115310498D01*
X66445506Y-115369463D01*
X66427000Y-115384650D01*
X66427000Y-113745233D01*
X66454494Y-113730537D01*
X66551185Y-113651185D01*
X66630537Y-113554494D01*
X66689502Y-113444180D01*
X66725812Y-113324482D01*
X66738072Y-113200000D01*
X66735000Y-112735750D01*
X66576250Y-112577000D01*
X65727000Y-112577000D01*
X65727000Y-112597000D01*
X65473000Y-112597000D01*
X65473000Y-112577000D01*
X65453000Y-112577000D01*
X65453000Y-112323000D01*
X65473000Y-112323000D01*
X65473000Y-111223750D01*
X65727000Y-111223750D01*
X65727000Y-112323000D01*
X66576250Y-112323000D01*
X66735000Y-112164250D01*
X66738072Y-111700000D01*
X66725812Y-111575518D01*
X66689502Y-111455820D01*
X66630537Y-111345506D01*
X66551185Y-111248815D01*
X66454494Y-111169463D01*
X66344180Y-111110498D01*
X66224482Y-111074188D01*
X66100000Y-111061928D01*
X65885750Y-111065000D01*
X65727000Y-111223750D01*
X65473000Y-111223750D01*
X65314250Y-111065000D01*
X65100000Y-111061928D01*
X64975518Y-111074188D01*
X64855820Y-111110498D01*
X64800000Y-111140335D01*
X64744180Y-111110498D01*
X64636025Y-111077690D01*
X64634974Y-111075723D01*
X64563799Y-110988997D01*
X64540001Y-110959999D01*
X64511004Y-110936202D01*
X63963803Y-110389002D01*
X63940001Y-110359999D01*
X63824276Y-110265026D01*
X63692247Y-110194454D01*
X63548986Y-110150997D01*
X63437333Y-110140000D01*
X63437322Y-110140000D01*
X63400000Y-110136324D01*
X63362678Y-110140000D01*
X59587322Y-110140000D01*
X59549999Y-110136324D01*
X59512677Y-110140000D01*
X59512667Y-110140000D01*
X59401014Y-110150997D01*
X59257753Y-110194454D01*
X59125723Y-110265026D01*
X59042083Y-110333668D01*
X59009999Y-110359999D01*
X58986201Y-110388997D01*
X57488998Y-111886201D01*
X57460000Y-111909999D01*
X57436202Y-111938997D01*
X57436201Y-111938998D01*
X57365026Y-112025724D01*
X57332078Y-112087365D01*
X57255820Y-112110498D01*
X57200000Y-112140335D01*
X57144180Y-112110498D01*
X57024482Y-112074188D01*
X56900000Y-112061928D01*
X55900000Y-112061928D01*
X55775518Y-112074188D01*
X55655820Y-112110498D01*
X55545506Y-112169463D01*
X55448815Y-112248815D01*
X55369463Y-112345506D01*
X55310498Y-112455820D01*
X55274188Y-112575518D01*
X55261928Y-112700000D01*
X55261928Y-112738980D01*
X55197810Y-112773251D01*
X55133796Y-112825786D01*
X55074472Y-112874472D01*
X55049105Y-112905382D01*
X54214488Y-113740000D01*
X53732163Y-113740000D01*
X53725812Y-113675518D01*
X53689502Y-113555820D01*
X53630537Y-113445506D01*
X53551185Y-113348815D01*
X53454494Y-113269463D01*
X53344180Y-113210498D01*
X53224482Y-113174188D01*
X53100000Y-113161928D01*
X52512873Y-113161928D01*
X53914802Y-111760000D01*
X56462678Y-111760000D01*
X56500000Y-111763676D01*
X56537322Y-111760000D01*
X56537333Y-111760000D01*
X56648986Y-111749003D01*
X56792247Y-111705546D01*
X56924276Y-111634974D01*
X57040001Y-111540001D01*
X57063804Y-111510997D01*
X58511004Y-110063798D01*
X58540001Y-110040001D01*
X58634974Y-109924276D01*
X58636025Y-109922311D01*
X58744180Y-109889502D01*
X58800000Y-109859665D01*
X58855820Y-109889502D01*
X58975518Y-109925812D01*
X59100000Y-109938072D01*
X60100000Y-109938072D01*
X60224482Y-109925812D01*
X60344180Y-109889502D01*
X60454494Y-109830537D01*
X60551185Y-109751185D01*
X60630537Y-109654494D01*
X60689502Y-109544180D01*
X60725812Y-109424482D01*
X60738072Y-109300000D01*
X60738072Y-107800000D01*
X60725812Y-107675518D01*
X60689502Y-107555820D01*
X60630537Y-107445506D01*
X60551185Y-107348815D01*
X60454494Y-107269463D01*
X60344180Y-107210498D01*
X60236025Y-107177690D01*
X60234974Y-107175723D01*
X60163799Y-107088997D01*
X60140001Y-107059999D01*
X60111004Y-107036202D01*
X59874802Y-106800000D01*
X61261928Y-106800000D01*
X61261928Y-108300000D01*
X61274188Y-108424482D01*
X61310498Y-108544180D01*
X61369463Y-108654494D01*
X61448815Y-108751185D01*
X61545506Y-108830537D01*
X61655820Y-108889502D01*
X61775518Y-108925812D01*
X61900000Y-108938072D01*
X62900000Y-108938072D01*
X63024482Y-108925812D01*
X63144180Y-108889502D01*
X63200000Y-108859665D01*
X63255820Y-108889502D01*
X63332078Y-108912635D01*
X63365026Y-108974276D01*
X63407080Y-109025518D01*
X63460000Y-109090001D01*
X63488998Y-109113799D01*
X64886201Y-110511003D01*
X64909999Y-110540001D01*
X65025724Y-110634974D01*
X65157753Y-110705546D01*
X65301014Y-110749003D01*
X65412667Y-110760000D01*
X65412675Y-110760000D01*
X65450000Y-110763676D01*
X65487325Y-110760000D01*
X70962678Y-110760000D01*
X71000000Y-110763676D01*
X71037322Y-110760000D01*
X71037333Y-110760000D01*
X71148986Y-110749003D01*
X71292247Y-110705546D01*
X71424276Y-110634974D01*
X71540001Y-110540001D01*
X71563803Y-110510998D01*
X72111004Y-109963798D01*
X72140001Y-109940001D01*
X72145241Y-109933616D01*
X72224482Y-109925812D01*
X72344180Y-109889502D01*
X72454494Y-109830537D01*
X72551185Y-109751185D01*
X72630537Y-109654494D01*
X72689502Y-109544180D01*
X72725812Y-109424482D01*
X72738072Y-109300000D01*
X72738072Y-107800000D01*
X72725812Y-107675518D01*
X72689502Y-107555820D01*
X72630537Y-107445506D01*
X72551185Y-107348815D01*
X72454494Y-107269463D01*
X72344180Y-107210498D01*
X72224482Y-107174188D01*
X72100000Y-107161928D01*
X71100000Y-107161928D01*
X70975518Y-107174188D01*
X70855820Y-107210498D01*
X70800000Y-107240335D01*
X70744180Y-107210498D01*
X70636025Y-107177689D01*
X70634974Y-107175724D01*
X70540001Y-107059999D01*
X70511004Y-107036202D01*
X68963804Y-105489003D01*
X68940001Y-105459999D01*
X68824276Y-105365026D01*
X68692247Y-105294454D01*
X68548986Y-105250997D01*
X68437333Y-105240000D01*
X68437322Y-105240000D01*
X68400000Y-105236324D01*
X68362678Y-105240000D01*
X63037322Y-105240000D01*
X62999999Y-105236324D01*
X62962676Y-105240000D01*
X62962667Y-105240000D01*
X62851014Y-105250997D01*
X62707753Y-105294454D01*
X62575723Y-105365026D01*
X62492083Y-105433668D01*
X62459999Y-105459999D01*
X62436200Y-105488998D01*
X61888998Y-106036201D01*
X61860000Y-106059999D01*
X61836202Y-106088997D01*
X61836201Y-106088998D01*
X61765026Y-106175724D01*
X61763975Y-106177689D01*
X61655820Y-106210498D01*
X61545506Y-106269463D01*
X61448815Y-106348815D01*
X61369463Y-106445506D01*
X61310498Y-106555820D01*
X61274188Y-106675518D01*
X61261928Y-106800000D01*
X59874802Y-106800000D01*
X59563803Y-106489002D01*
X59540001Y-106459999D01*
X59424276Y-106365026D01*
X59292247Y-106294454D01*
X59148986Y-106250997D01*
X59037333Y-106240000D01*
X59037322Y-106240000D01*
X59000000Y-106236324D01*
X58962678Y-106240000D01*
X55537325Y-106240000D01*
X55500000Y-106236324D01*
X55462675Y-106240000D01*
X55462667Y-106240000D01*
X55351014Y-106250997D01*
X55207753Y-106294454D01*
X55075724Y-106365026D01*
X54959999Y-106459999D01*
X54936201Y-106488997D01*
X48888998Y-112536201D01*
X48860000Y-112559999D01*
X48836202Y-112588997D01*
X48836201Y-112588998D01*
X48765026Y-112675724D01*
X48694454Y-112807754D01*
X48681337Y-112850997D01*
X48650998Y-112951014D01*
X48641348Y-113048987D01*
X48636324Y-113100000D01*
X48640001Y-113137332D01*
X48640001Y-113218954D01*
X48545506Y-113269463D01*
X48448815Y-113348815D01*
X48369463Y-113445506D01*
X48310498Y-113555820D01*
X48274188Y-113675518D01*
X48261928Y-113800000D01*
X48261928Y-115300000D01*
X48274188Y-115424482D01*
X48310498Y-115544180D01*
X48369463Y-115654494D01*
X48448815Y-115751185D01*
X48545506Y-115830537D01*
X48655820Y-115889502D01*
X48775518Y-115925812D01*
X48900000Y-115938072D01*
X49900000Y-115938072D01*
X50024482Y-115925812D01*
X50144180Y-115889502D01*
X50200000Y-115859665D01*
X50255820Y-115889502D01*
X50375518Y-115925812D01*
X50500000Y-115938072D01*
X51500000Y-115938072D01*
X51624482Y-115925812D01*
X51744180Y-115889502D01*
X51800000Y-115859665D01*
X51855820Y-115889502D01*
X51975518Y-115925812D01*
X52100000Y-115938072D01*
X53100000Y-115938072D01*
X53224482Y-115925812D01*
X53344180Y-115889502D01*
X53454494Y-115830537D01*
X53551185Y-115751185D01*
X53630537Y-115654494D01*
X53689502Y-115544180D01*
X53725812Y-115424482D01*
X53732163Y-115360000D01*
X54463210Y-115360000D01*
X54445506Y-115369463D01*
X54348815Y-115448815D01*
X54269463Y-115545506D01*
X54210498Y-115655820D01*
X54177690Y-115763975D01*
X54175723Y-115765026D01*
X54150068Y-115786081D01*
X54059999Y-115859999D01*
X54036201Y-115888997D01*
X53238987Y-116686212D01*
X53209989Y-116710010D01*
X53186191Y-116739008D01*
X53186190Y-116739009D01*
X53115015Y-116825735D01*
X53044443Y-116957765D01*
X53021023Y-117034974D01*
X53000987Y-117101025D01*
X52991151Y-117200892D01*
X52986313Y-117250011D01*
X52989990Y-117287343D01*
X52989990Y-118063505D01*
X52885750Y-118065000D01*
X52727000Y-118223750D01*
X52727000Y-119323000D01*
X52747000Y-119323000D01*
X52747000Y-119577000D01*
X52727000Y-119577000D01*
X52727000Y-120676250D01*
X52885750Y-120835000D01*
X52989989Y-120836495D01*
X52989989Y-120935210D01*
X52888998Y-121036201D01*
X52860000Y-121059999D01*
X52836202Y-121088997D01*
X52836201Y-121088998D01*
X52765026Y-121175724D01*
X52763975Y-121177689D01*
X52655820Y-121210498D01*
X52545506Y-121269463D01*
X52448815Y-121348815D01*
X52369463Y-121445506D01*
X52310498Y-121555820D01*
X52274188Y-121675518D01*
X52261928Y-121800000D01*
X52261928Y-123300000D01*
X52270792Y-123390000D01*
X51735513Y-123390000D01*
X51729773Y-123384261D01*
X51738072Y-123300000D01*
X51738072Y-121800000D01*
X51725812Y-121675518D01*
X51689502Y-121555820D01*
X51630537Y-121445506D01*
X51551185Y-121348815D01*
X51454494Y-121269463D01*
X51344180Y-121210498D01*
X51224482Y-121174188D01*
X51100000Y-121161928D01*
X50612874Y-121161928D01*
X50936730Y-120838072D01*
X51500000Y-120838072D01*
X51624482Y-120825812D01*
X51744180Y-120789502D01*
X51800000Y-120759665D01*
X51855820Y-120789502D01*
X51975518Y-120825812D01*
X52100000Y-120838072D01*
X52314250Y-120835000D01*
X52473000Y-120676250D01*
X52473000Y-119577000D01*
X52453000Y-119577000D01*
X52453000Y-119323000D01*
X52473000Y-119323000D01*
X52473000Y-118223750D01*
X52314250Y-118065000D01*
X52100000Y-118061928D01*
X51975518Y-118074188D01*
X51855820Y-118110498D01*
X51800000Y-118140335D01*
X51744180Y-118110498D01*
X51624482Y-118074188D01*
X51500000Y-118061928D01*
X50500000Y-118061928D01*
X50375518Y-118074188D01*
X50255820Y-118110498D01*
X50200000Y-118140335D01*
X50144180Y-118110498D01*
X50024482Y-118074188D01*
X49900000Y-118061928D01*
X48900000Y-118061928D01*
X48775518Y-118074188D01*
X48655820Y-118110498D01*
X48545506Y-118169463D01*
X48448815Y-118248815D01*
X48369463Y-118345506D01*
X48310498Y-118455820D01*
X48274188Y-118575518D01*
X48261928Y-118700000D01*
X48261928Y-118795674D01*
X48225723Y-118815026D01*
X48177632Y-118854494D01*
X48109999Y-118909999D01*
X48086201Y-118938997D01*
X46888998Y-120136201D01*
X46860000Y-120159999D01*
X46836202Y-120188997D01*
X46836201Y-120188998D01*
X46765026Y-120275724D01*
X46694454Y-120407754D01*
X46677491Y-120463677D01*
X46650998Y-120551014D01*
X46646074Y-120601007D01*
X46636324Y-120700000D01*
X46640001Y-120737332D01*
X46640001Y-121218954D01*
X46545506Y-121269463D01*
X46448815Y-121348815D01*
X46369463Y-121445506D01*
X46310498Y-121555820D01*
X46274188Y-121675518D01*
X46261928Y-121800000D01*
X46261928Y-123300000D01*
X46274188Y-123424482D01*
X46310498Y-123544180D01*
X46369463Y-123654494D01*
X46448815Y-123751185D01*
X46545506Y-123830537D01*
X46655820Y-123889502D01*
X46775518Y-123925812D01*
X46900000Y-123938072D01*
X47900000Y-123938072D01*
X48024482Y-123925812D01*
X48144180Y-123889502D01*
X48200000Y-123859665D01*
X48255820Y-123889502D01*
X48375518Y-123925812D01*
X48500000Y-123938072D01*
X49500000Y-123938072D01*
X49624482Y-123925812D01*
X49744180Y-123889502D01*
X49800000Y-123859665D01*
X49855820Y-123889502D01*
X49975518Y-123925812D01*
X49984389Y-123926686D01*
X50024472Y-123975528D01*
X50055387Y-124000899D01*
X50799105Y-124744618D01*
X50824472Y-124775528D01*
X50855380Y-124800893D01*
X50947810Y-124876749D01*
X50970725Y-124888997D01*
X51088527Y-124951963D01*
X51241212Y-124998280D01*
X51360209Y-125010000D01*
X51360212Y-125010000D01*
X51400000Y-125013919D01*
X51439788Y-125010000D01*
X56010212Y-125010000D01*
X56050000Y-125013919D01*
X56089788Y-125010000D01*
X56089791Y-125010000D01*
X56208788Y-124998280D01*
X56361473Y-124951963D01*
X56502189Y-124876749D01*
X56625528Y-124775528D01*
X56650899Y-124744613D01*
X57144617Y-124250895D01*
X57175528Y-124225528D01*
X57276749Y-124102189D01*
X57351963Y-123961473D01*
X57379527Y-123870608D01*
X57454494Y-123830537D01*
X57551185Y-123751185D01*
X57630537Y-123654494D01*
X57689502Y-123544180D01*
X57725812Y-123424482D01*
X57738072Y-123300000D01*
X57738072Y-121800000D01*
X57725812Y-121675518D01*
X57689502Y-121555820D01*
X57672152Y-121523361D01*
X58560513Y-120635000D01*
X58601939Y-120635000D01*
X58801898Y-120595226D01*
X58990256Y-120517205D01*
X59147001Y-120412472D01*
X59169463Y-120454494D01*
X59248815Y-120551185D01*
X59345506Y-120630537D01*
X59455820Y-120689502D01*
X59575518Y-120725812D01*
X59700000Y-120738072D01*
X60742560Y-120738072D01*
X61166415Y-121161928D01*
X60500000Y-121161928D01*
X60375518Y-121174188D01*
X60255820Y-121210498D01*
X60200000Y-121240335D01*
X60144180Y-121210498D01*
X60024482Y-121174188D01*
X59900000Y-121161928D01*
X58900000Y-121161928D01*
X58775518Y-121174188D01*
X58655820Y-121210498D01*
X58545506Y-121269463D01*
X58448815Y-121348815D01*
X58369463Y-121445506D01*
X58310498Y-121555820D01*
X58274188Y-121675518D01*
X58261928Y-121800000D01*
X58261928Y-123300000D01*
X58274188Y-123424482D01*
X58310498Y-123544180D01*
X58369463Y-123654494D01*
X58448815Y-123751185D01*
X58545506Y-123830537D01*
X58655820Y-123889502D01*
X58732078Y-123912635D01*
X58765026Y-123974276D01*
X58836201Y-124061002D01*
X58860000Y-124090001D01*
X58888998Y-124113799D01*
X60015199Y-125240000D01*
X58837322Y-125240000D01*
X58799999Y-125236324D01*
X58762676Y-125240000D01*
X58762667Y-125240000D01*
X58651014Y-125250997D01*
X58507753Y-125294454D01*
X58375724Y-125365026D01*
X58259999Y-125459999D01*
X58236201Y-125488997D01*
X57510101Y-126215098D01*
X57454494Y-126169463D01*
X57344180Y-126110498D01*
X57224482Y-126074188D01*
X57100000Y-126061928D01*
X56885750Y-126065000D01*
X56727000Y-126223750D01*
X56727000Y-127323000D01*
X56747000Y-127323000D01*
X56747000Y-127577000D01*
X56727000Y-127577000D01*
X56727000Y-128676250D01*
X56840001Y-128789251D01*
X56840000Y-129563210D01*
X56830537Y-129545506D01*
X56751185Y-129448815D01*
X56654494Y-129369463D01*
X56544180Y-129310498D01*
X56424482Y-129274188D01*
X56300000Y-129261928D01*
X54800000Y-129261928D01*
X54675518Y-129274188D01*
X54555820Y-129310498D01*
X54445506Y-129369463D01*
X54348815Y-129448815D01*
X54269463Y-129545506D01*
X54262223Y-129559051D01*
X54251898Y-129554774D01*
X54051939Y-129515000D01*
X53848061Y-129515000D01*
X53685018Y-129547431D01*
X53630537Y-129445506D01*
X53551185Y-129348815D01*
X53454494Y-129269463D01*
X53344180Y-129210498D01*
X53224482Y-129174188D01*
X53100000Y-129161928D01*
X53012874Y-129161928D01*
X53336730Y-128838072D01*
X53900000Y-128838072D01*
X54024482Y-128825812D01*
X54144180Y-128789502D01*
X54200000Y-128759665D01*
X54255820Y-128789502D01*
X54375518Y-128825812D01*
X54500000Y-128838072D01*
X55500000Y-128838072D01*
X55624482Y-128825812D01*
X55744180Y-128789502D01*
X55800000Y-128759665D01*
X55855820Y-128789502D01*
X55975518Y-128825812D01*
X56100000Y-128838072D01*
X56314250Y-128835000D01*
X56473000Y-128676250D01*
X56473000Y-127577000D01*
X56453000Y-127577000D01*
X56453000Y-127323000D01*
X56473000Y-127323000D01*
X56473000Y-126223750D01*
X56314250Y-126065000D01*
X56100000Y-126061928D01*
X55975518Y-126074188D01*
X55855820Y-126110498D01*
X55800000Y-126140335D01*
X55744180Y-126110498D01*
X55636025Y-126077689D01*
X55634974Y-126075724D01*
X55540001Y-125959999D01*
X55511003Y-125936201D01*
X55163803Y-125589002D01*
X55140001Y-125559999D01*
X55024276Y-125465026D01*
X54892247Y-125394454D01*
X54748986Y-125350997D01*
X54637333Y-125340000D01*
X54637322Y-125340000D01*
X54600000Y-125336324D01*
X54562678Y-125340000D01*
X52952331Y-125340000D01*
X52914998Y-125336323D01*
X52877665Y-125340000D01*
X52766012Y-125350997D01*
X52622751Y-125394454D01*
X52490722Y-125465026D01*
X52374997Y-125559999D01*
X52351199Y-125588997D01*
X51614379Y-126325818D01*
X51551185Y-126248815D01*
X51454494Y-126169463D01*
X51344180Y-126110498D01*
X51224482Y-126074188D01*
X51100000Y-126061928D01*
X50885750Y-126065000D01*
X50727000Y-126223750D01*
X50727000Y-127323000D01*
X50747000Y-127323000D01*
X50747000Y-127577000D01*
X50727000Y-127577000D01*
X50727000Y-127597000D01*
X50473000Y-127597000D01*
X50473000Y-127577000D01*
X50453000Y-127577000D01*
X50453000Y-127323000D01*
X50473000Y-127323000D01*
X50473000Y-126223750D01*
X50314250Y-126065000D01*
X50100000Y-126061928D01*
X49975518Y-126074188D01*
X49855820Y-126110498D01*
X49800000Y-126140335D01*
X49744180Y-126110498D01*
X49624482Y-126074188D01*
X49545241Y-126066384D01*
X49540001Y-126059999D01*
X49511008Y-126036205D01*
X48863803Y-125389002D01*
X48840001Y-125359999D01*
X48724276Y-125265026D01*
X48592247Y-125194454D01*
X48448986Y-125150997D01*
X48337333Y-125140000D01*
X48337322Y-125140000D01*
X48300000Y-125136324D01*
X48262678Y-125140000D01*
X46637323Y-125140000D01*
X46600000Y-125136324D01*
X46562677Y-125140000D01*
X46562667Y-125140000D01*
X46451014Y-125150997D01*
X46307753Y-125194454D01*
X46175724Y-125265026D01*
X46059999Y-125359999D01*
X46036201Y-125388997D01*
X45289002Y-126136197D01*
X45259999Y-126159999D01*
X45220809Y-126207753D01*
X45165026Y-126275724D01*
X45124782Y-126351015D01*
X45094454Y-126407754D01*
X45050997Y-126551015D01*
X45040000Y-126662668D01*
X45040000Y-126662678D01*
X45036324Y-126700000D01*
X45040000Y-126737323D01*
X45040001Y-127525197D01*
X38694800Y-133870399D01*
X38694800Y-133824896D01*
X38634282Y-133520648D01*
X38515570Y-133234052D01*
X38343227Y-132976123D01*
X38123877Y-132756773D01*
X38053876Y-132710000D01*
X38123877Y-132663227D01*
X38343227Y-132443877D01*
X38515570Y-132185948D01*
X38634282Y-131899352D01*
X38694800Y-131595104D01*
X38694800Y-131284896D01*
X38634282Y-130980648D01*
X38515570Y-130694052D01*
X38343227Y-130436123D01*
X38123877Y-130216773D01*
X38053876Y-130170000D01*
X38123877Y-130123227D01*
X38343227Y-129903877D01*
X38515570Y-129645948D01*
X38634282Y-129359352D01*
X38694800Y-129055104D01*
X38694800Y-128744896D01*
X38634282Y-128440648D01*
X38515570Y-128154052D01*
X38343227Y-127896123D01*
X38123877Y-127676773D01*
X37865948Y-127504430D01*
X37579352Y-127385718D01*
X37275104Y-127325200D01*
X36964896Y-127325200D01*
X36660648Y-127385718D01*
X36374052Y-127504430D01*
X36116123Y-127676773D01*
X35896773Y-127896123D01*
X35724430Y-128154052D01*
X35605718Y-128440648D01*
X35545200Y-128744896D01*
X20695000Y-128744896D01*
X20695000Y-113504896D01*
X21575200Y-113504896D01*
X21575200Y-113815104D01*
X21635718Y-114119352D01*
X21754430Y-114405948D01*
X21926773Y-114663877D01*
X22146123Y-114883227D01*
X22404052Y-115055570D01*
X22690648Y-115174282D01*
X22994896Y-115234800D01*
X23305104Y-115234800D01*
X23609352Y-115174282D01*
X23895948Y-115055570D01*
X24153877Y-114883227D01*
X24373227Y-114663877D01*
X24420000Y-114593876D01*
X24466773Y-114663877D01*
X24686123Y-114883227D01*
X24944052Y-115055570D01*
X25230648Y-115174282D01*
X25534896Y-115234800D01*
X25845104Y-115234800D01*
X26149352Y-115174282D01*
X26435948Y-115055570D01*
X26693877Y-114883227D01*
X26913227Y-114663877D01*
X26960000Y-114593876D01*
X27006773Y-114663877D01*
X27226123Y-114883227D01*
X27484052Y-115055570D01*
X27770648Y-115174282D01*
X28074896Y-115234800D01*
X28385104Y-115234800D01*
X28689352Y-115174282D01*
X28975948Y-115055570D01*
X29233877Y-114883227D01*
X29453227Y-114663877D01*
X29500000Y-114593876D01*
X29546773Y-114663877D01*
X29766123Y-114883227D01*
X30024052Y-115055570D01*
X30310648Y-115174282D01*
X30614896Y-115234800D01*
X30925104Y-115234800D01*
X31229352Y-115174282D01*
X31515948Y-115055570D01*
X31773877Y-114883227D01*
X31904628Y-114752476D01*
X32397129Y-114752476D01*
X32485623Y-115010723D01*
X32764976Y-115145597D01*
X33065275Y-115223381D01*
X33374977Y-115241084D01*
X33682184Y-115198027D01*
X33975086Y-115095865D01*
X34134377Y-115010723D01*
X34222871Y-114752476D01*
X34937129Y-114752476D01*
X35025623Y-115010723D01*
X35304976Y-115145597D01*
X35605275Y-115223381D01*
X35914977Y-115241084D01*
X36222184Y-115198027D01*
X36515086Y-115095865D01*
X36674377Y-115010723D01*
X36762871Y-114752476D01*
X35850000Y-113839605D01*
X34937129Y-114752476D01*
X34222871Y-114752476D01*
X33310000Y-113839605D01*
X32397129Y-114752476D01*
X31904628Y-114752476D01*
X31993227Y-114663877D01*
X32084495Y-114527286D01*
X32217524Y-114572871D01*
X33130395Y-113660000D01*
X33489605Y-113660000D01*
X34402476Y-114572871D01*
X34580000Y-114512039D01*
X34757524Y-114572871D01*
X35670395Y-113660000D01*
X36029605Y-113660000D01*
X36942476Y-114572871D01*
X37200723Y-114484377D01*
X37335597Y-114205024D01*
X37413381Y-113904725D01*
X37431084Y-113595023D01*
X37388027Y-113287816D01*
X37285865Y-112994914D01*
X37200723Y-112835623D01*
X36942476Y-112747129D01*
X36029605Y-113660000D01*
X35670395Y-113660000D01*
X34757524Y-112747129D01*
X34580000Y-112807961D01*
X34402476Y-112747129D01*
X33489605Y-113660000D01*
X33130395Y-113660000D01*
X32217524Y-112747129D01*
X32084495Y-112792714D01*
X31993227Y-112656123D01*
X31904628Y-112567524D01*
X32397129Y-112567524D01*
X33310000Y-113480395D01*
X34222871Y-112567524D01*
X34937129Y-112567524D01*
X35850000Y-113480395D01*
X36762871Y-112567524D01*
X36674377Y-112309277D01*
X36395024Y-112174403D01*
X36094725Y-112096619D01*
X35785023Y-112078916D01*
X35477816Y-112121973D01*
X35184914Y-112224135D01*
X35025623Y-112309277D01*
X34937129Y-112567524D01*
X34222871Y-112567524D01*
X34134377Y-112309277D01*
X33855024Y-112174403D01*
X33554725Y-112096619D01*
X33245023Y-112078916D01*
X32937816Y-112121973D01*
X32644914Y-112224135D01*
X32485623Y-112309277D01*
X32397129Y-112567524D01*
X31904628Y-112567524D01*
X31773877Y-112436773D01*
X31515948Y-112264430D01*
X31229352Y-112145718D01*
X30925104Y-112085200D01*
X30614896Y-112085200D01*
X30310648Y-112145718D01*
X30024052Y-112264430D01*
X29766123Y-112436773D01*
X29546773Y-112656123D01*
X29500000Y-112726124D01*
X29453227Y-112656123D01*
X29233877Y-112436773D01*
X28975948Y-112264430D01*
X28689352Y-112145718D01*
X28385104Y-112085200D01*
X28074896Y-112085200D01*
X27770648Y-112145718D01*
X27484052Y-112264430D01*
X27226123Y-112436773D01*
X27006773Y-112656123D01*
X26960000Y-112726124D01*
X26913227Y-112656123D01*
X26693877Y-112436773D01*
X26435948Y-112264430D01*
X26149352Y-112145718D01*
X25845104Y-112085200D01*
X25534896Y-112085200D01*
X25230648Y-112145718D01*
X24944052Y-112264430D01*
X24686123Y-112436773D01*
X24466773Y-112656123D01*
X24420000Y-112726124D01*
X24373227Y-112656123D01*
X24153877Y-112436773D01*
X23895948Y-112264430D01*
X23609352Y-112145718D01*
X23305104Y-112085200D01*
X22994896Y-112085200D01*
X22690648Y-112145718D01*
X22404052Y-112264430D01*
X22146123Y-112436773D01*
X21926773Y-112656123D01*
X21754430Y-112914052D01*
X21635718Y-113200648D01*
X21575200Y-113504896D01*
X20695000Y-113504896D01*
X20695000Y-110820980D01*
X20699294Y-110829014D01*
X20884866Y-111055134D01*
X21110986Y-111240706D01*
X21368966Y-111378599D01*
X21648889Y-111463513D01*
X21867050Y-111485000D01*
X22012950Y-111485000D01*
X22231111Y-111463513D01*
X22511034Y-111378599D01*
X22769014Y-111240706D01*
X22995134Y-111055134D01*
X23180706Y-110829014D01*
X23210000Y-110774209D01*
X23239294Y-110829014D01*
X23424866Y-111055134D01*
X23650986Y-111240706D01*
X23908966Y-111378599D01*
X24188889Y-111463513D01*
X24407050Y-111485000D01*
X24552950Y-111485000D01*
X24771111Y-111463513D01*
X25051034Y-111378599D01*
X25309014Y-111240706D01*
X25535134Y-111055134D01*
X25720706Y-110829014D01*
X25750000Y-110774209D01*
X25779294Y-110829014D01*
X25964866Y-111055134D01*
X26190986Y-111240706D01*
X26448966Y-111378599D01*
X26728889Y-111463513D01*
X26947050Y-111485000D01*
X27092950Y-111485000D01*
X27311111Y-111463513D01*
X27591034Y-111378599D01*
X27849014Y-111240706D01*
X28075134Y-111055134D01*
X28260706Y-110829014D01*
X28290000Y-110774209D01*
X28319294Y-110829014D01*
X28504866Y-111055134D01*
X28730986Y-111240706D01*
X28988966Y-111378599D01*
X29268889Y-111463513D01*
X29487050Y-111485000D01*
X29632950Y-111485000D01*
X29851111Y-111463513D01*
X30131034Y-111378599D01*
X30389014Y-111240706D01*
X30615134Y-111055134D01*
X30639607Y-111025313D01*
X30660498Y-111094180D01*
X30719463Y-111204494D01*
X30798815Y-111301185D01*
X30895506Y-111380537D01*
X31005820Y-111439502D01*
X31125518Y-111475812D01*
X31250000Y-111488072D01*
X31814250Y-111485000D01*
X31973000Y-111326250D01*
X31973000Y-110127000D01*
X32227000Y-110127000D01*
X32227000Y-111326250D01*
X32385750Y-111485000D01*
X32950000Y-111488072D01*
X33074482Y-111475812D01*
X33194180Y-111439502D01*
X33304494Y-111380537D01*
X33401185Y-111301185D01*
X33480537Y-111204494D01*
X33539502Y-111094180D01*
X33575812Y-110974482D01*
X33588072Y-110850000D01*
X33585000Y-110285750D01*
X33426250Y-110127000D01*
X32227000Y-110127000D01*
X31973000Y-110127000D01*
X31953000Y-110127000D01*
X31953000Y-109873000D01*
X31973000Y-109873000D01*
X31973000Y-108673750D01*
X32227000Y-108673750D01*
X32227000Y-109873000D01*
X33426250Y-109873000D01*
X33585000Y-109714250D01*
X33587477Y-109259267D01*
X36233680Y-109259267D01*
X36307558Y-109540830D01*
X36434947Y-109802570D01*
X36610951Y-110034429D01*
X36828807Y-110227496D01*
X37080142Y-110374352D01*
X37343110Y-110466476D01*
X37573000Y-110345155D01*
X37573000Y-109027000D01*
X36373835Y-109027000D01*
X36233680Y-109259267D01*
X33587477Y-109259267D01*
X33588072Y-109150000D01*
X33575812Y-109025518D01*
X33539502Y-108905820D01*
X33480537Y-108795506D01*
X33401185Y-108698815D01*
X33304494Y-108619463D01*
X33194180Y-108560498D01*
X33129024Y-108540733D01*
X36233680Y-108540733D01*
X36373835Y-108773000D01*
X37573000Y-108773000D01*
X37573000Y-107454845D01*
X37827000Y-107454845D01*
X37827000Y-108773000D01*
X37847000Y-108773000D01*
X37847000Y-109027000D01*
X37827000Y-109027000D01*
X37827000Y-110345155D01*
X38056890Y-110466476D01*
X38319858Y-110374352D01*
X38571193Y-110227496D01*
X38789049Y-110034429D01*
X38945538Y-109828278D01*
X38959294Y-109854013D01*
X39144866Y-110080134D01*
X39370986Y-110265706D01*
X39628966Y-110403599D01*
X39908889Y-110488513D01*
X40200000Y-110517185D01*
X40491110Y-110488513D01*
X40771033Y-110403599D01*
X41029013Y-110265706D01*
X41255134Y-110080134D01*
X41440706Y-109854014D01*
X41450000Y-109836626D01*
X41459294Y-109854013D01*
X41644866Y-110080134D01*
X41870986Y-110265706D01*
X42128966Y-110403599D01*
X42408889Y-110488513D01*
X42700000Y-110517185D01*
X42991110Y-110488513D01*
X43271033Y-110403599D01*
X43529013Y-110265706D01*
X43755134Y-110080134D01*
X43807223Y-110016663D01*
X43861595Y-110118386D01*
X43972038Y-110252962D01*
X44106614Y-110363405D01*
X44260150Y-110445472D01*
X44426746Y-110496008D01*
X44600000Y-110513072D01*
X45800000Y-110513072D01*
X45973254Y-110496008D01*
X46139850Y-110445472D01*
X46293386Y-110363405D01*
X46427962Y-110252962D01*
X46538405Y-110118386D01*
X46620472Y-109964850D01*
X46671008Y-109798254D01*
X46688072Y-109625000D01*
X46688072Y-108175000D01*
X46671008Y-108001746D01*
X46620472Y-107835150D01*
X46538405Y-107681614D01*
X46427962Y-107547038D01*
X46293386Y-107436595D01*
X46139850Y-107354528D01*
X45973254Y-107303992D01*
X45800000Y-107286928D01*
X44600000Y-107286928D01*
X44426746Y-107303992D01*
X44260150Y-107354528D01*
X44106614Y-107436595D01*
X43972038Y-107547038D01*
X43861595Y-107681614D01*
X43807223Y-107783337D01*
X43755134Y-107719866D01*
X43529014Y-107534294D01*
X43271034Y-107396401D01*
X42991111Y-107311487D01*
X42700000Y-107282815D01*
X42408890Y-107311487D01*
X42128967Y-107396401D01*
X41870987Y-107534294D01*
X41644866Y-107719866D01*
X41459294Y-107945986D01*
X41450000Y-107963374D01*
X41440706Y-107945986D01*
X41255134Y-107719866D01*
X41029014Y-107534294D01*
X40771034Y-107396401D01*
X40491111Y-107311487D01*
X40200000Y-107282815D01*
X39908890Y-107311487D01*
X39628967Y-107396401D01*
X39370987Y-107534294D01*
X39144866Y-107719866D01*
X38959294Y-107945986D01*
X38945538Y-107971722D01*
X38789049Y-107765571D01*
X38571193Y-107572504D01*
X38319858Y-107425648D01*
X38056890Y-107333524D01*
X37827000Y-107454845D01*
X37573000Y-107454845D01*
X37343110Y-107333524D01*
X37080142Y-107425648D01*
X36828807Y-107572504D01*
X36610951Y-107765571D01*
X36434947Y-107997430D01*
X36307558Y-108259170D01*
X36233680Y-108540733D01*
X33129024Y-108540733D01*
X33074482Y-108524188D01*
X32950000Y-108511928D01*
X32385750Y-108515000D01*
X32227000Y-108673750D01*
X31973000Y-108673750D01*
X31814250Y-108515000D01*
X31250000Y-108511928D01*
X31125518Y-108524188D01*
X31005820Y-108560498D01*
X30895506Y-108619463D01*
X30798815Y-108698815D01*
X30719463Y-108795506D01*
X30660498Y-108905820D01*
X30639607Y-108974687D01*
X30615134Y-108944866D01*
X30389014Y-108759294D01*
X30131034Y-108621401D01*
X29851111Y-108536487D01*
X29632950Y-108515000D01*
X29487050Y-108515000D01*
X29268889Y-108536487D01*
X28988966Y-108621401D01*
X28730986Y-108759294D01*
X28504866Y-108944866D01*
X28319294Y-109170986D01*
X28290000Y-109225791D01*
X28260706Y-109170986D01*
X28075134Y-108944866D01*
X27849014Y-108759294D01*
X27591034Y-108621401D01*
X27311111Y-108536487D01*
X27092950Y-108515000D01*
X26947050Y-108515000D01*
X26728889Y-108536487D01*
X26448966Y-108621401D01*
X26190986Y-108759294D01*
X25964866Y-108944866D01*
X25779294Y-109170986D01*
X25750000Y-109225791D01*
X25720706Y-109170986D01*
X25535134Y-108944866D01*
X25309014Y-108759294D01*
X25051034Y-108621401D01*
X24771111Y-108536487D01*
X24552950Y-108515000D01*
X24407050Y-108515000D01*
X24188889Y-108536487D01*
X23908966Y-108621401D01*
X23650986Y-108759294D01*
X23424866Y-108944866D01*
X23239294Y-109170986D01*
X23210000Y-109225791D01*
X23180706Y-109170986D01*
X22995134Y-108944866D01*
X22769014Y-108759294D01*
X22511034Y-108621401D01*
X22231111Y-108536487D01*
X22012950Y-108515000D01*
X21867050Y-108515000D01*
X21648889Y-108536487D01*
X21368966Y-108621401D01*
X21110986Y-108759294D01*
X20884866Y-108944866D01*
X20699294Y-109170986D01*
X20695000Y-109179020D01*
X20695000Y-104695000D01*
X84305001Y-104695000D01*
X84305000Y-145305000D01*
X84305000Y-145305000D01*
G37*
X84305000Y-145305000D02*
X20695000Y-145305000D01*
X20695000Y-128744896D01*
X35545200Y-128744896D01*
X35545200Y-129055104D01*
X35605718Y-129359352D01*
X35724430Y-129645948D01*
X35896773Y-129903877D01*
X36116123Y-130123227D01*
X36186124Y-130170000D01*
X36116123Y-130216773D01*
X35896773Y-130436123D01*
X35724430Y-130694052D01*
X35605718Y-130980648D01*
X35545200Y-131284896D01*
X35545200Y-131595104D01*
X35605718Y-131899352D01*
X35724430Y-132185948D01*
X35896773Y-132443877D01*
X36116123Y-132663227D01*
X36186124Y-132710000D01*
X36116123Y-132756773D01*
X35896773Y-132976123D01*
X35724430Y-133234052D01*
X35605718Y-133520648D01*
X35545200Y-133824896D01*
X35545200Y-134135104D01*
X35605718Y-134439352D01*
X35724430Y-134725948D01*
X35896773Y-134983877D01*
X36116123Y-135203227D01*
X36186124Y-135250000D01*
X36116123Y-135296773D01*
X35896773Y-135516123D01*
X35724430Y-135774052D01*
X35605718Y-136060648D01*
X35545200Y-136364896D01*
X35545200Y-136675104D01*
X35605718Y-136979352D01*
X35724430Y-137265948D01*
X35896773Y-137523877D01*
X36116123Y-137743227D01*
X36186124Y-137790000D01*
X36116123Y-137836773D01*
X35896773Y-138056123D01*
X35724430Y-138314052D01*
X35605718Y-138600648D01*
X35545200Y-138904896D01*
X35545200Y-139215104D01*
X35605718Y-139519352D01*
X35724430Y-139805948D01*
X35896773Y-140063877D01*
X36116123Y-140283227D01*
X36186124Y-140330000D01*
X36116123Y-140376773D01*
X35896773Y-140596123D01*
X35724430Y-140854052D01*
X35605718Y-141140648D01*
X35545200Y-141444896D01*
X35545200Y-141755104D01*
X35605718Y-142059352D01*
X35724430Y-142345948D01*
X35896773Y-142603877D01*
X36116123Y-142823227D01*
X36374052Y-142995570D01*
X36660648Y-143114282D01*
X36964896Y-143174800D01*
X37275104Y-143174800D01*
X37579352Y-143114282D01*
X37865948Y-142995570D01*
X38123877Y-142823227D01*
X38343227Y-142603877D01*
X38515570Y-142345948D01*
X38634282Y-142059352D01*
X38694800Y-141755104D01*
X38694800Y-141444896D01*
X38637579Y-141157222D01*
X47911008Y-131883795D01*
X47940001Y-131860001D01*
X47963795Y-131831008D01*
X47963799Y-131831004D01*
X48031108Y-131748987D01*
X48034974Y-131744276D01*
X48105546Y-131612247D01*
X48149003Y-131468986D01*
X48160000Y-131357333D01*
X48160000Y-131357324D01*
X48163676Y-131320001D01*
X48160000Y-131282678D01*
X48160000Y-128781046D01*
X48200000Y-128759665D01*
X48255820Y-128789502D01*
X48375518Y-128825812D01*
X48500000Y-128838072D01*
X49037127Y-128838072D01*
X48888998Y-128986201D01*
X48860000Y-129009999D01*
X48836202Y-129038997D01*
X48836201Y-129038998D01*
X48765026Y-129125724D01*
X48732078Y-129187365D01*
X48655820Y-129210498D01*
X48545506Y-129269463D01*
X48448815Y-129348815D01*
X48369463Y-129445506D01*
X48310498Y-129555820D01*
X48274188Y-129675518D01*
X48261928Y-129800000D01*
X48261928Y-131300000D01*
X48274188Y-131424482D01*
X48310498Y-131544180D01*
X48369463Y-131654494D01*
X48448815Y-131751185D01*
X48545506Y-131830537D01*
X48655820Y-131889502D01*
X48775518Y-131925812D01*
X48900000Y-131938072D01*
X49900000Y-131938072D01*
X50024482Y-131925812D01*
X50144180Y-131889502D01*
X50200000Y-131859665D01*
X50255820Y-131889502D01*
X50375518Y-131925812D01*
X50500000Y-131938072D01*
X51500000Y-131938072D01*
X51624482Y-131925812D01*
X51744180Y-131889502D01*
X51800000Y-131859665D01*
X51855820Y-131889502D01*
X51975518Y-131925812D01*
X52100000Y-131938072D01*
X53100000Y-131938072D01*
X53224482Y-131925812D01*
X53344180Y-131889502D01*
X53454494Y-131830537D01*
X53551185Y-131751185D01*
X53630537Y-131654494D01*
X53685018Y-131552569D01*
X53848061Y-131585000D01*
X54051939Y-131585000D01*
X54161928Y-131563122D01*
X54161928Y-132500000D01*
X54174188Y-132624482D01*
X54210498Y-132744180D01*
X54240335Y-132800000D01*
X54210498Y-132855820D01*
X54174188Y-132975518D01*
X54161928Y-133100000D01*
X54161928Y-134100000D01*
X54174188Y-134224482D01*
X54210498Y-134344180D01*
X54269463Y-134454494D01*
X54348815Y-134551185D01*
X54445506Y-134630537D01*
X54555820Y-134689502D01*
X54675518Y-134725812D01*
X54800000Y-134738072D01*
X54987125Y-134738072D01*
X53736673Y-135988526D01*
X53735000Y-135735750D01*
X53576250Y-135577000D01*
X52727000Y-135577000D01*
X52727000Y-135597000D01*
X52473000Y-135597000D01*
X52473000Y-135577000D01*
X52453000Y-135577000D01*
X52453000Y-135323000D01*
X52473000Y-135323000D01*
X52473000Y-134223750D01*
X52727000Y-134223750D01*
X52727000Y-135323000D01*
X53576250Y-135323000D01*
X53735000Y-135164250D01*
X53738072Y-134700000D01*
X53725812Y-134575518D01*
X53689502Y-134455820D01*
X53630537Y-134345506D01*
X53551185Y-134248815D01*
X53454494Y-134169463D01*
X53344180Y-134110498D01*
X53224482Y-134074188D01*
X53100000Y-134061928D01*
X52885750Y-134065000D01*
X52727000Y-134223750D01*
X52473000Y-134223750D01*
X52314250Y-134065000D01*
X52100000Y-134061928D01*
X51975518Y-134074188D01*
X51855820Y-134110498D01*
X51800000Y-134140335D01*
X51744180Y-134110498D01*
X51624482Y-134074188D01*
X51500000Y-134061928D01*
X50500000Y-134061928D01*
X50375518Y-134074188D01*
X50255820Y-134110498D01*
X50200000Y-134140335D01*
X50144180Y-134110498D01*
X50024482Y-134074188D01*
X49900000Y-134061928D01*
X48900000Y-134061928D01*
X48775518Y-134074188D01*
X48655820Y-134110498D01*
X48545506Y-134169463D01*
X48448815Y-134248815D01*
X48369463Y-134345506D01*
X48310498Y-134455820D01*
X48274188Y-134575518D01*
X48261928Y-134700000D01*
X48261928Y-136200000D01*
X48274188Y-136324482D01*
X48310498Y-136444180D01*
X48369463Y-136554494D01*
X48448815Y-136651185D01*
X48545506Y-136730537D01*
X48655820Y-136789502D01*
X48700180Y-136802958D01*
X48765026Y-136924276D01*
X48793349Y-136958787D01*
X48859999Y-137040001D01*
X48889002Y-137063804D01*
X49886201Y-138061003D01*
X49909999Y-138090001D01*
X50025724Y-138184974D01*
X50157753Y-138255546D01*
X50301014Y-138299003D01*
X50412667Y-138310000D01*
X50412676Y-138310000D01*
X50449999Y-138313676D01*
X50487322Y-138310000D01*
X54612678Y-138310000D01*
X54650000Y-138313676D01*
X54687322Y-138310000D01*
X54687333Y-138310000D01*
X54798986Y-138299003D01*
X54942247Y-138255546D01*
X55074276Y-138184974D01*
X55190001Y-138090001D01*
X55213804Y-138060998D01*
X55489899Y-137784902D01*
X55545506Y-137830537D01*
X55655820Y-137889502D01*
X55775518Y-137925812D01*
X55900000Y-137938072D01*
X56900000Y-137938072D01*
X57024482Y-137925812D01*
X57144180Y-137889502D01*
X57200000Y-137859665D01*
X57255820Y-137889502D01*
X57375518Y-137925812D01*
X57500000Y-137938072D01*
X58500000Y-137938072D01*
X58624482Y-137925812D01*
X58744180Y-137889502D01*
X58790000Y-137865010D01*
X58790000Y-138060211D01*
X58786081Y-138100000D01*
X58790000Y-138139788D01*
X58790000Y-138139790D01*
X58801720Y-138258787D01*
X58848037Y-138411472D01*
X58848038Y-138411473D01*
X58923251Y-138552189D01*
X58953460Y-138588998D01*
X59024472Y-138675528D01*
X59055387Y-138700899D01*
X59117129Y-138762641D01*
X59154774Y-138951898D01*
X59232795Y-139140256D01*
X59346063Y-139309774D01*
X59490226Y-139453937D01*
X59659744Y-139567205D01*
X59848102Y-139645226D01*
X60037359Y-139682871D01*
X61533667Y-141179179D01*
X61448815Y-141248815D01*
X61369463Y-141345506D01*
X61310498Y-141455820D01*
X61274188Y-141575518D01*
X61261928Y-141700000D01*
X61261928Y-143140000D01*
X59814802Y-143140000D01*
X59412026Y-142737224D01*
X59473000Y-142676250D01*
X59473000Y-141577000D01*
X59727000Y-141577000D01*
X59727000Y-142676250D01*
X59885750Y-142835000D01*
X60100000Y-142838072D01*
X60224482Y-142825812D01*
X60344180Y-142789502D01*
X60454494Y-142730537D01*
X60551185Y-142651185D01*
X60630537Y-142554494D01*
X60689502Y-142444180D01*
X60725812Y-142324482D01*
X60738072Y-142200000D01*
X60735000Y-141735750D01*
X60576250Y-141577000D01*
X59727000Y-141577000D01*
X59473000Y-141577000D01*
X59453000Y-141577000D01*
X59453000Y-141323000D01*
X59473000Y-141323000D01*
X59473000Y-140223750D01*
X59727000Y-140223750D01*
X59727000Y-141323000D01*
X60576250Y-141323000D01*
X60735000Y-141164250D01*
X60738072Y-140700000D01*
X60725812Y-140575518D01*
X60689502Y-140455820D01*
X60630537Y-140345506D01*
X60551185Y-140248815D01*
X60454494Y-140169463D01*
X60344180Y-140110498D01*
X60224482Y-140074188D01*
X60100000Y-140061928D01*
X59885750Y-140065000D01*
X59727000Y-140223750D01*
X59473000Y-140223750D01*
X59314250Y-140065000D01*
X59100000Y-140061928D01*
X58975518Y-140074188D01*
X58855820Y-140110498D01*
X58800000Y-140140335D01*
X58744180Y-140110498D01*
X58624482Y-140074188D01*
X58500000Y-140061928D01*
X57500000Y-140061928D01*
X57375518Y-140074188D01*
X57255820Y-140110498D01*
X57200000Y-140140335D01*
X57144180Y-140110498D01*
X57024482Y-140074188D01*
X56900000Y-140061928D01*
X55900000Y-140061928D01*
X55775518Y-140074188D01*
X55655820Y-140110498D01*
X55545506Y-140169463D01*
X55448815Y-140248815D01*
X55369463Y-140345506D01*
X55310498Y-140455820D01*
X55274188Y-140575518D01*
X55261928Y-140700000D01*
X55261928Y-142200000D01*
X55274188Y-142324482D01*
X55310498Y-142444180D01*
X55369463Y-142554494D01*
X55448815Y-142651185D01*
X55545506Y-142730537D01*
X55655820Y-142789502D01*
X55763975Y-142822311D01*
X55765026Y-142824276D01*
X55794344Y-142860000D01*
X55859999Y-142940001D01*
X55889003Y-142963804D01*
X57786212Y-144861014D01*
X57810010Y-144890012D01*
X57839008Y-144913810D01*
X57925734Y-144984985D01*
X58057764Y-145055557D01*
X58201025Y-145099014D01*
X58312678Y-145110011D01*
X58312688Y-145110011D01*
X58350010Y-145113687D01*
X58387333Y-145110011D01*
X64612667Y-145110011D01*
X64649989Y-145113687D01*
X64687311Y-145110011D01*
X64687322Y-145110011D01*
X64798975Y-145099014D01*
X64942236Y-145055557D01*
X65074265Y-144984985D01*
X65189990Y-144890012D01*
X65213792Y-144861009D01*
X66111008Y-143963795D01*
X66140001Y-143940001D01*
X66163795Y-143911008D01*
X66163799Y-143911004D01*
X66234973Y-143824277D01*
X66236024Y-143822311D01*
X66344180Y-143789502D01*
X66454494Y-143730537D01*
X66551185Y-143651185D01*
X66630537Y-143554494D01*
X66689502Y-143444180D01*
X66725812Y-143324482D01*
X66738072Y-143200000D01*
X66738072Y-141700000D01*
X66725812Y-141575518D01*
X66689502Y-141455820D01*
X66630537Y-141345506D01*
X66551185Y-141248815D01*
X66454494Y-141169463D01*
X66344180Y-141110498D01*
X66224482Y-141074188D01*
X66100000Y-141061928D01*
X65100000Y-141061928D01*
X64975518Y-141074188D01*
X64855820Y-141110498D01*
X64800000Y-141140335D01*
X64744180Y-141110498D01*
X64624482Y-141074188D01*
X64500000Y-141061928D01*
X63500000Y-141061928D01*
X63375518Y-141074188D01*
X63255820Y-141110498D01*
X63210000Y-141134990D01*
X63210000Y-140939791D01*
X63213919Y-140900000D01*
X63198280Y-140741212D01*
X63151963Y-140588526D01*
X63076749Y-140447811D01*
X63000893Y-140355380D01*
X62975528Y-140324472D01*
X62944618Y-140299105D01*
X61182871Y-138537359D01*
X61145226Y-138348102D01*
X61125302Y-138300000D01*
X61261928Y-138300000D01*
X61274188Y-138424482D01*
X61310498Y-138544180D01*
X61369463Y-138654494D01*
X61448815Y-138751185D01*
X61545506Y-138830537D01*
X61655820Y-138889502D01*
X61775518Y-138925812D01*
X61900000Y-138938072D01*
X62114250Y-138935000D01*
X62273000Y-138776250D01*
X62273000Y-137677000D01*
X61423750Y-137677000D01*
X61265000Y-137835750D01*
X61261928Y-138300000D01*
X61125302Y-138300000D01*
X61067205Y-138159744D01*
X60953937Y-137990226D01*
X60809774Y-137846063D01*
X60640256Y-137732795D01*
X60585045Y-137709926D01*
X60630537Y-137654494D01*
X60689502Y-137544180D01*
X60725812Y-137424482D01*
X60738072Y-137300000D01*
X60738072Y-135800000D01*
X60725812Y-135675518D01*
X60689502Y-135555820D01*
X60630537Y-135445506D01*
X60551185Y-135348815D01*
X60454494Y-135269463D01*
X60344180Y-135210498D01*
X60224482Y-135174188D01*
X60100000Y-135161928D01*
X59100000Y-135161928D01*
X58975518Y-135174188D01*
X58855820Y-135210498D01*
X58800000Y-135240335D01*
X58744180Y-135210498D01*
X58624482Y-135174188D01*
X58545241Y-135166384D01*
X58540001Y-135159999D01*
X58510997Y-135136196D01*
X58063804Y-134689003D01*
X58040001Y-134659999D01*
X57924276Y-134565026D01*
X57792247Y-134494454D01*
X57648986Y-134450997D01*
X57537333Y-134440000D01*
X57537322Y-134440000D01*
X57500000Y-134436324D01*
X57462678Y-134440000D01*
X56838284Y-134440000D01*
X56889502Y-134344180D01*
X56922311Y-134236025D01*
X56924276Y-134234974D01*
X57040001Y-134140001D01*
X57063804Y-134110997D01*
X57786915Y-133387887D01*
X57765000Y-133498061D01*
X57765000Y-133701939D01*
X57804774Y-133901898D01*
X57882795Y-134090256D01*
X57996063Y-134259774D01*
X58140226Y-134403937D01*
X58309744Y-134517205D01*
X58498102Y-134595226D01*
X58698061Y-134635000D01*
X58901939Y-134635000D01*
X59101898Y-134595226D01*
X59238517Y-134538636D01*
X59248815Y-134551185D01*
X59345506Y-134630537D01*
X59455820Y-134689502D01*
X59575518Y-134725812D01*
X59700000Y-134738072D01*
X61200000Y-134738072D01*
X61324482Y-134725812D01*
X61444180Y-134689502D01*
X61554494Y-134630537D01*
X61573000Y-134615350D01*
X61573000Y-136254767D01*
X61545506Y-136269463D01*
X61448815Y-136348815D01*
X61369463Y-136445506D01*
X61310498Y-136555820D01*
X61274188Y-136675518D01*
X61261928Y-136800000D01*
X61265000Y-137264250D01*
X61423750Y-137423000D01*
X62273000Y-137423000D01*
X62273000Y-137403000D01*
X62527000Y-137403000D01*
X62527000Y-137423000D01*
X62547000Y-137423000D01*
X62547000Y-137677000D01*
X62527000Y-137677000D01*
X62527000Y-138776250D01*
X62685750Y-138935000D01*
X62900000Y-138938072D01*
X63024482Y-138925812D01*
X63144180Y-138889502D01*
X63200000Y-138859665D01*
X63255820Y-138889502D01*
X63363975Y-138922311D01*
X63365026Y-138924276D01*
X63387695Y-138951898D01*
X63459999Y-139040001D01*
X63489002Y-139063803D01*
X64236201Y-139811002D01*
X64259999Y-139840001D01*
X64375724Y-139934974D01*
X64507753Y-140005546D01*
X64651014Y-140049003D01*
X64762667Y-140060000D01*
X64762677Y-140060000D01*
X64800000Y-140063676D01*
X64837323Y-140060000D01*
X67462678Y-140060000D01*
X67500000Y-140063676D01*
X67537322Y-140060000D01*
X67537333Y-140060000D01*
X67648986Y-140049003D01*
X67792247Y-140005546D01*
X67924276Y-139934974D01*
X68040001Y-139840001D01*
X68063804Y-139810997D01*
X69936730Y-137938072D01*
X70078767Y-137938072D01*
X70057764Y-137944443D01*
X69925734Y-138015015D01*
X69866441Y-138063676D01*
X69810010Y-138109988D01*
X69786212Y-138138986D01*
X67889003Y-140036196D01*
X67859999Y-140059999D01*
X67854759Y-140066384D01*
X67775518Y-140074188D01*
X67655820Y-140110498D01*
X67545506Y-140169463D01*
X67448815Y-140248815D01*
X67369463Y-140345506D01*
X67310498Y-140455820D01*
X67274188Y-140575518D01*
X67261928Y-140700000D01*
X67261928Y-142200000D01*
X67274188Y-142324482D01*
X67310498Y-142444180D01*
X67369463Y-142554494D01*
X67448815Y-142651185D01*
X67545506Y-142730537D01*
X67655820Y-142789502D01*
X67775518Y-142825812D01*
X67900000Y-142838072D01*
X68900000Y-142838072D01*
X69024482Y-142825812D01*
X69144180Y-142789502D01*
X69200000Y-142759665D01*
X69255820Y-142789502D01*
X69375518Y-142825812D01*
X69500000Y-142838072D01*
X70500000Y-142838072D01*
X70624482Y-142825812D01*
X70744180Y-142789502D01*
X70800000Y-142759665D01*
X70855820Y-142789502D01*
X70975518Y-142825812D01*
X71100000Y-142838072D01*
X71314250Y-142835000D01*
X71473000Y-142676250D01*
X71473000Y-141577000D01*
X71727000Y-141577000D01*
X71727000Y-142676250D01*
X71885750Y-142835000D01*
X72100000Y-142838072D01*
X72224482Y-142825812D01*
X72344180Y-142789502D01*
X72454494Y-142730537D01*
X72551185Y-142651185D01*
X72630537Y-142554494D01*
X72689502Y-142444180D01*
X72725812Y-142324482D01*
X72738072Y-142200000D01*
X72735000Y-141735750D01*
X72576250Y-141577000D01*
X71727000Y-141577000D01*
X71473000Y-141577000D01*
X71453000Y-141577000D01*
X71453000Y-141323000D01*
X71473000Y-141323000D01*
X71473000Y-141303000D01*
X71727000Y-141303000D01*
X71727000Y-141323000D01*
X72576250Y-141323000D01*
X72735000Y-141164250D01*
X72738072Y-140700000D01*
X72725812Y-140575518D01*
X72689502Y-140455820D01*
X72630537Y-140345506D01*
X72551185Y-140248815D01*
X72454494Y-140169463D01*
X72344180Y-140110498D01*
X72224482Y-140074188D01*
X72100000Y-140061928D01*
X71885750Y-140065000D01*
X71727002Y-140223748D01*
X71727002Y-140065000D01*
X71609802Y-140065000D01*
X71814802Y-139860000D01*
X75762678Y-139860000D01*
X75800000Y-139863676D01*
X75837322Y-139860000D01*
X75837333Y-139860000D01*
X75948986Y-139849003D01*
X76092247Y-139805546D01*
X76224276Y-139734974D01*
X76340001Y-139640001D01*
X76363804Y-139610997D01*
X79111003Y-136863799D01*
X79140001Y-136840001D01*
X79145241Y-136833616D01*
X79224482Y-136825812D01*
X79344180Y-136789502D01*
X79454494Y-136730537D01*
X79551185Y-136651185D01*
X79630537Y-136554494D01*
X79689502Y-136444180D01*
X79725812Y-136324482D01*
X79738072Y-136200000D01*
X79738072Y-134700000D01*
X79725812Y-134575518D01*
X79689502Y-134455820D01*
X79630537Y-134345506D01*
X79551185Y-134248815D01*
X79454494Y-134169463D01*
X79344180Y-134110498D01*
X79224482Y-134074188D01*
X79100000Y-134061928D01*
X78100000Y-134061928D01*
X77975518Y-134074188D01*
X77855820Y-134110498D01*
X77800000Y-134140335D01*
X77744180Y-134110498D01*
X77624482Y-134074188D01*
X77500000Y-134061928D01*
X76500000Y-134061928D01*
X76375518Y-134074188D01*
X76255820Y-134110498D01*
X76200000Y-134140335D01*
X76144180Y-134110498D01*
X76024482Y-134074188D01*
X75900000Y-134061928D01*
X74900000Y-134061928D01*
X74775518Y-134074188D01*
X74655820Y-134110498D01*
X74545506Y-134169463D01*
X74448815Y-134248815D01*
X74369463Y-134345506D01*
X74310498Y-134455820D01*
X74274188Y-134575518D01*
X74261928Y-134700000D01*
X74261928Y-135692560D01*
X74214488Y-135740000D01*
X72732163Y-135740000D01*
X72725812Y-135675518D01*
X72689502Y-135555820D01*
X72630537Y-135445506D01*
X72551185Y-135348815D01*
X72454494Y-135269463D01*
X72344180Y-135210498D01*
X72224482Y-135174188D01*
X72108254Y-135162741D01*
X71681791Y-134736279D01*
X71700000Y-134738072D01*
X73200000Y-134738072D01*
X73324482Y-134725812D01*
X73444180Y-134689502D01*
X73554494Y-134630537D01*
X73651185Y-134551185D01*
X73730537Y-134454494D01*
X73789502Y-134344180D01*
X73825812Y-134224482D01*
X73838072Y-134100000D01*
X73838072Y-133100000D01*
X73825812Y-132975518D01*
X73789502Y-132855820D01*
X73759665Y-132800000D01*
X73789502Y-132744180D01*
X73822311Y-132636025D01*
X73824276Y-132634974D01*
X73940001Y-132540001D01*
X73963803Y-132510998D01*
X74311002Y-132163800D01*
X74340001Y-132140001D01*
X74434974Y-132024276D01*
X74505546Y-131892247D01*
X74528499Y-131816580D01*
X74545506Y-131830537D01*
X74655820Y-131889502D01*
X74775518Y-131925812D01*
X74900000Y-131938072D01*
X75114250Y-131935000D01*
X75273000Y-131776250D01*
X75273000Y-130677000D01*
X75253000Y-130677000D01*
X75253000Y-130423000D01*
X75273000Y-130423000D01*
X75273000Y-129323750D01*
X75114250Y-129165000D01*
X74961985Y-129162817D01*
X75111002Y-129013799D01*
X75140001Y-128990001D01*
X75234974Y-128874276D01*
X75267923Y-128812634D01*
X75344180Y-128789502D01*
X75454494Y-128730537D01*
X75551185Y-128651185D01*
X75630537Y-128554494D01*
X75689502Y-128444180D01*
X75725812Y-128324482D01*
X75738072Y-128200000D01*
X75738072Y-126700000D01*
X75729208Y-126610000D01*
X76270792Y-126610000D01*
X76261928Y-126700000D01*
X76261928Y-128200000D01*
X76274188Y-128324482D01*
X76310498Y-128444180D01*
X76369463Y-128554494D01*
X76448815Y-128651185D01*
X76545506Y-128730537D01*
X76655820Y-128789502D01*
X76775518Y-128825812D01*
X76900000Y-128838072D01*
X77187127Y-128838072D01*
X76863271Y-129161928D01*
X76500000Y-129161928D01*
X76375518Y-129174188D01*
X76255820Y-129210498D01*
X76200000Y-129240335D01*
X76144180Y-129210498D01*
X76024482Y-129174188D01*
X75900000Y-129161928D01*
X75685750Y-129165000D01*
X75527000Y-129323750D01*
X75527000Y-130423000D01*
X75547000Y-130423000D01*
X75547000Y-130677000D01*
X75527000Y-130677000D01*
X75527000Y-131776250D01*
X75685750Y-131935000D01*
X75900000Y-131938072D01*
X76024482Y-131925812D01*
X76144180Y-131889502D01*
X76200000Y-131859665D01*
X76255820Y-131889502D01*
X76375518Y-131925812D01*
X76500000Y-131938072D01*
X77500000Y-131938072D01*
X77624482Y-131925812D01*
X77744180Y-131889502D01*
X77800000Y-131859665D01*
X77855820Y-131889502D01*
X77975518Y-131925812D01*
X78100000Y-131938072D01*
X79100000Y-131938072D01*
X79224482Y-131925812D01*
X79344180Y-131889502D01*
X79454494Y-131830537D01*
X79551185Y-131751185D01*
X79630537Y-131654494D01*
X79689502Y-131544180D01*
X79725812Y-131424482D01*
X79738072Y-131300000D01*
X79738072Y-131204326D01*
X79774276Y-131184974D01*
X79890001Y-131090001D01*
X79913804Y-131060997D01*
X81111003Y-129863799D01*
X81140001Y-129840001D01*
X81192921Y-129775518D01*
X81234974Y-129724277D01*
X81305546Y-129592247D01*
X81307416Y-129586081D01*
X81349003Y-129448986D01*
X81360000Y-129337333D01*
X81360000Y-129337323D01*
X81363676Y-129300000D01*
X81360000Y-129262677D01*
X81360000Y-128781046D01*
X81454494Y-128730537D01*
X81551185Y-128651185D01*
X81630537Y-128554494D01*
X81689502Y-128444180D01*
X81725812Y-128324482D01*
X81738072Y-128200000D01*
X81738072Y-126700000D01*
X81725812Y-126575518D01*
X81689502Y-126455820D01*
X81630537Y-126345506D01*
X81551185Y-126248815D01*
X81454494Y-126169463D01*
X81344180Y-126110498D01*
X81224482Y-126074188D01*
X81100000Y-126061928D01*
X80100000Y-126061928D01*
X79975518Y-126074188D01*
X79855820Y-126110498D01*
X79800000Y-126140335D01*
X79744180Y-126110498D01*
X79624482Y-126074188D01*
X79500000Y-126061928D01*
X78500000Y-126061928D01*
X78375518Y-126074188D01*
X78255820Y-126110498D01*
X78200000Y-126140335D01*
X78161424Y-126119715D01*
X78151963Y-126088527D01*
X78098764Y-125988998D01*
X78076749Y-125947810D01*
X78031119Y-125892210D01*
X77975528Y-125824472D01*
X77944619Y-125799106D01*
X77400899Y-125255387D01*
X77375528Y-125224472D01*
X77252189Y-125123251D01*
X77111473Y-125048037D01*
X76958788Y-125001720D01*
X76839791Y-124990000D01*
X76839788Y-124990000D01*
X76800000Y-124986081D01*
X76760212Y-124990000D01*
X72050700Y-124990000D01*
X71890256Y-124882795D01*
X71701898Y-124804774D01*
X71512641Y-124767129D01*
X70611122Y-123865610D01*
X70655820Y-123889502D01*
X70775518Y-123925812D01*
X70900000Y-123938072D01*
X71114250Y-123935000D01*
X71273000Y-123776250D01*
X71273000Y-122677000D01*
X70423750Y-122677000D01*
X70265000Y-122835750D01*
X70261928Y-123300000D01*
X70274188Y-123424482D01*
X70310498Y-123544180D01*
X70334390Y-123588878D01*
X69738072Y-122992560D01*
X69738072Y-121800000D01*
X70261928Y-121800000D01*
X70265000Y-122264250D01*
X70423750Y-122423000D01*
X71273000Y-122423000D01*
X71273000Y-121323750D01*
X71114250Y-121165000D01*
X70900000Y-121161928D01*
X70775518Y-121174188D01*
X70655820Y-121210498D01*
X70545506Y-121269463D01*
X70448815Y-121348815D01*
X70369463Y-121445506D01*
X70310498Y-121555820D01*
X70274188Y-121675518D01*
X70261928Y-121800000D01*
X69738072Y-121800000D01*
X69729773Y-121715739D01*
X70812642Y-120632871D01*
X71001898Y-120595226D01*
X71190256Y-120517205D01*
X71210066Y-120503969D01*
X71248815Y-120551185D01*
X71345506Y-120630537D01*
X71455820Y-120689502D01*
X71575518Y-120725812D01*
X71700000Y-120738072D01*
X72737127Y-120738072D01*
X72489002Y-120986197D01*
X72459999Y-121009999D01*
X72415947Y-121063677D01*
X72365026Y-121125724D01*
X72332078Y-121187365D01*
X72255820Y-121210498D01*
X72200000Y-121240335D01*
X72144180Y-121210498D01*
X72024482Y-121174188D01*
X71900000Y-121161928D01*
X71685750Y-121165000D01*
X71527000Y-121323750D01*
X71527000Y-122423000D01*
X71547000Y-122423000D01*
X71547000Y-122677000D01*
X71527000Y-122677000D01*
X71527000Y-123776250D01*
X71685750Y-123935000D01*
X71900000Y-123938072D01*
X72024482Y-123925812D01*
X72144180Y-123889502D01*
X72200000Y-123859665D01*
X72255820Y-123889502D01*
X72375518Y-123925812D01*
X72500000Y-123938072D01*
X73500000Y-123938072D01*
X73624482Y-123925812D01*
X73744180Y-123889502D01*
X73800000Y-123859665D01*
X73855820Y-123889502D01*
X73975518Y-123925812D01*
X74100000Y-123938072D01*
X75100000Y-123938072D01*
X75224482Y-123925812D01*
X75344180Y-123889502D01*
X75454494Y-123830537D01*
X75551185Y-123751185D01*
X75630537Y-123654494D01*
X75689502Y-123544180D01*
X75725812Y-123424482D01*
X75738072Y-123300000D01*
X76261928Y-123300000D01*
X76274188Y-123424482D01*
X76310498Y-123544180D01*
X76369463Y-123654494D01*
X76448815Y-123751185D01*
X76545506Y-123830537D01*
X76655820Y-123889502D01*
X76775518Y-123925812D01*
X76900000Y-123938072D01*
X77114250Y-123935000D01*
X77273000Y-123776250D01*
X77273000Y-122677000D01*
X76423750Y-122677000D01*
X76265000Y-122835750D01*
X76261928Y-123300000D01*
X75738072Y-123300000D01*
X75738072Y-121800000D01*
X75725812Y-121675518D01*
X75689502Y-121555820D01*
X75630537Y-121445506D01*
X75551185Y-121348815D01*
X75454494Y-121269463D01*
X75344180Y-121210498D01*
X75236025Y-121177689D01*
X75234974Y-121175724D01*
X75140001Y-121059999D01*
X75110998Y-121036197D01*
X75110009Y-121035208D01*
X75110009Y-120838072D01*
X75900000Y-120838072D01*
X76024482Y-120825812D01*
X76144180Y-120789502D01*
X76200000Y-120759665D01*
X76255820Y-120789502D01*
X76375518Y-120825812D01*
X76454760Y-120833616D01*
X76460000Y-120840001D01*
X76488998Y-120863799D01*
X76797247Y-121172048D01*
X76775518Y-121174188D01*
X76655820Y-121210498D01*
X76545506Y-121269463D01*
X76448815Y-121348815D01*
X76369463Y-121445506D01*
X76310498Y-121555820D01*
X76274188Y-121675518D01*
X76261928Y-121800000D01*
X76265000Y-122264250D01*
X76423750Y-122423000D01*
X77273000Y-122423000D01*
X77273000Y-122403000D01*
X77527000Y-122403000D01*
X77527000Y-122423000D01*
X77547000Y-122423000D01*
X77547000Y-122677000D01*
X77527000Y-122677000D01*
X77527000Y-123776250D01*
X77685750Y-123935000D01*
X77900000Y-123938072D01*
X78024482Y-123925812D01*
X78144180Y-123889502D01*
X78200000Y-123859665D01*
X78255820Y-123889502D01*
X78375518Y-123925812D01*
X78500000Y-123938072D01*
X79500000Y-123938072D01*
X79624482Y-123925812D01*
X79744180Y-123889502D01*
X79800000Y-123859665D01*
X79855820Y-123889502D01*
X79975518Y-123925812D01*
X80100000Y-123938072D01*
X81100000Y-123938072D01*
X81224482Y-123925812D01*
X81344180Y-123889502D01*
X81454494Y-123830537D01*
X81551185Y-123751185D01*
X81630537Y-123654494D01*
X81689502Y-123544180D01*
X81725812Y-123424482D01*
X81738072Y-123300000D01*
X81738072Y-121800000D01*
X81725812Y-121675518D01*
X81689502Y-121555820D01*
X81630537Y-121445506D01*
X81551185Y-121348815D01*
X81454494Y-121269463D01*
X81360000Y-121218954D01*
X81360000Y-120737323D01*
X81363676Y-120700000D01*
X81360000Y-120662677D01*
X81360000Y-120662667D01*
X81349003Y-120551014D01*
X81305546Y-120407753D01*
X81267905Y-120337333D01*
X81234974Y-120275723D01*
X81163799Y-120188997D01*
X81140001Y-120159999D01*
X81111004Y-120136202D01*
X79913804Y-118939003D01*
X79890001Y-118909999D01*
X79774276Y-118815026D01*
X79738072Y-118795674D01*
X79738072Y-118700000D01*
X79725812Y-118575518D01*
X79689502Y-118455820D01*
X79630537Y-118345506D01*
X79551185Y-118248815D01*
X79454494Y-118169463D01*
X79344180Y-118110498D01*
X79224482Y-118074188D01*
X79100000Y-118061928D01*
X78100000Y-118061928D01*
X77975518Y-118074188D01*
X77855820Y-118110498D01*
X77800000Y-118140335D01*
X77744180Y-118110498D01*
X77624482Y-118074188D01*
X77500000Y-118061928D01*
X76500000Y-118061928D01*
X76401242Y-118071655D01*
X76435000Y-117901939D01*
X76435000Y-117698061D01*
X76395226Y-117498102D01*
X76317205Y-117309744D01*
X76203937Y-117140226D01*
X76059774Y-116996063D01*
X75890256Y-116882795D01*
X75701898Y-116804774D01*
X75501939Y-116765000D01*
X75298061Y-116765000D01*
X75098102Y-116804774D01*
X74970221Y-116857744D01*
X74913808Y-116789006D01*
X74890010Y-116760008D01*
X74861013Y-116736211D01*
X74013803Y-115889002D01*
X73990001Y-115859999D01*
X73874276Y-115765026D01*
X73812634Y-115732077D01*
X73789502Y-115655820D01*
X73730537Y-115545506D01*
X73651185Y-115448815D01*
X73554494Y-115369463D01*
X73444180Y-115310498D01*
X73409573Y-115300000D01*
X74261928Y-115300000D01*
X74274188Y-115424482D01*
X74310498Y-115544180D01*
X74369463Y-115654494D01*
X74448815Y-115751185D01*
X74545506Y-115830537D01*
X74655820Y-115889502D01*
X74775518Y-115925812D01*
X74900000Y-115938072D01*
X75114250Y-115935000D01*
X75273000Y-115776250D01*
X75273000Y-114677000D01*
X74423750Y-114677000D01*
X74265000Y-114835750D01*
X74261928Y-115300000D01*
X73409573Y-115300000D01*
X73324482Y-115274188D01*
X73200000Y-115261928D01*
X72912873Y-115261928D01*
X74262670Y-113912132D01*
X74265000Y-114264250D01*
X74423750Y-114423000D01*
X75273000Y-114423000D01*
X75273000Y-114403000D01*
X75527000Y-114403000D01*
X75527000Y-114423000D01*
X75547000Y-114423000D01*
X75547000Y-114677000D01*
X75527000Y-114677000D01*
X75527000Y-115776250D01*
X75685750Y-115935000D01*
X75900000Y-115938072D01*
X76024482Y-115925812D01*
X76144180Y-115889502D01*
X76200000Y-115859665D01*
X76255820Y-115889502D01*
X76375518Y-115925812D01*
X76500000Y-115938072D01*
X77500000Y-115938072D01*
X77624482Y-115925812D01*
X77744180Y-115889502D01*
X77800000Y-115859665D01*
X77855820Y-115889502D01*
X77975518Y-115925812D01*
X78100000Y-115938072D01*
X79100000Y-115938072D01*
X79224482Y-115925812D01*
X79344180Y-115889502D01*
X79454494Y-115830537D01*
X79551185Y-115751185D01*
X79630537Y-115654494D01*
X79689502Y-115544180D01*
X79725812Y-115424482D01*
X79738072Y-115300000D01*
X79738072Y-113800000D01*
X79725812Y-113675518D01*
X79689502Y-113555820D01*
X79630537Y-113445506D01*
X79551185Y-113348815D01*
X79454494Y-113269463D01*
X79344180Y-113210498D01*
X79236025Y-113177689D01*
X79234974Y-113175724D01*
X79163799Y-113088997D01*
X79163798Y-113088996D01*
X79140001Y-113059999D01*
X79111004Y-113036202D01*
X78013804Y-111939003D01*
X77990001Y-111909999D01*
X77874276Y-111815026D01*
X77742247Y-111744454D01*
X77598986Y-111700997D01*
X77487333Y-111690000D01*
X77487322Y-111690000D01*
X77450000Y-111686324D01*
X77412678Y-111690000D01*
X73387333Y-111690000D01*
X73350000Y-111686323D01*
X73312667Y-111690000D01*
X73201014Y-111700997D01*
X73057753Y-111744454D01*
X72925724Y-111815026D01*
X72809999Y-111909999D01*
X72786201Y-111938997D01*
X72510100Y-112215098D01*
X72454494Y-112169463D01*
X72344180Y-112110498D01*
X72224482Y-112074188D01*
X72100000Y-112061928D01*
X71100000Y-112061928D01*
X70975518Y-112074188D01*
X70855820Y-112110498D01*
X70800000Y-112140335D01*
X70744180Y-112110498D01*
X70624482Y-112074188D01*
X70500000Y-112061928D01*
X69500000Y-112061928D01*
X69375518Y-112074188D01*
X69255820Y-112110498D01*
X69200000Y-112140335D01*
X69144180Y-112110498D01*
X69024482Y-112074188D01*
X68900000Y-112061928D01*
X67900000Y-112061928D01*
X67775518Y-112074188D01*
X67655820Y-112110498D01*
X67545506Y-112169463D01*
X67448815Y-112248815D01*
X67369463Y-112345506D01*
X67310498Y-112455820D01*
X67274188Y-112575518D01*
X67261928Y-112700000D01*
X67261928Y-114200000D01*
X67274188Y-114324482D01*
X67310498Y-114444180D01*
X67369463Y-114554494D01*
X67448815Y-114651185D01*
X67545506Y-114730537D01*
X67655820Y-114789502D01*
X67775518Y-114825812D01*
X67784389Y-114826686D01*
X67824472Y-114875528D01*
X67855387Y-114900899D01*
X68216416Y-115261928D01*
X66800000Y-115261928D01*
X66675518Y-115274188D01*
X66555820Y-115310498D01*
X66445506Y-115369463D01*
X66427000Y-115384650D01*
X66427000Y-113745233D01*
X66454494Y-113730537D01*
X66551185Y-113651185D01*
X66630537Y-113554494D01*
X66689502Y-113444180D01*
X66725812Y-113324482D01*
X66738072Y-113200000D01*
X66735000Y-112735750D01*
X66576250Y-112577000D01*
X65727000Y-112577000D01*
X65727000Y-112597000D01*
X65473000Y-112597000D01*
X65473000Y-112577000D01*
X65453000Y-112577000D01*
X65453000Y-112323000D01*
X65473000Y-112323000D01*
X65473000Y-111223750D01*
X65727000Y-111223750D01*
X65727000Y-112323000D01*
X66576250Y-112323000D01*
X66735000Y-112164250D01*
X66738072Y-111700000D01*
X66725812Y-111575518D01*
X66689502Y-111455820D01*
X66630537Y-111345506D01*
X66551185Y-111248815D01*
X66454494Y-111169463D01*
X66344180Y-111110498D01*
X66224482Y-111074188D01*
X66100000Y-111061928D01*
X65885750Y-111065000D01*
X65727000Y-111223750D01*
X65473000Y-111223750D01*
X65314250Y-111065000D01*
X65100000Y-111061928D01*
X64975518Y-111074188D01*
X64855820Y-111110498D01*
X64800000Y-111140335D01*
X64744180Y-111110498D01*
X64636025Y-111077690D01*
X64634974Y-111075723D01*
X64563799Y-110988997D01*
X64540001Y-110959999D01*
X64511004Y-110936202D01*
X63963803Y-110389002D01*
X63940001Y-110359999D01*
X63824276Y-110265026D01*
X63692247Y-110194454D01*
X63548986Y-110150997D01*
X63437333Y-110140000D01*
X63437322Y-110140000D01*
X63400000Y-110136324D01*
X63362678Y-110140000D01*
X59587322Y-110140000D01*
X59549999Y-110136324D01*
X59512677Y-110140000D01*
X59512667Y-110140000D01*
X59401014Y-110150997D01*
X59257753Y-110194454D01*
X59125723Y-110265026D01*
X59042083Y-110333668D01*
X59009999Y-110359999D01*
X58986201Y-110388997D01*
X57488998Y-111886201D01*
X57460000Y-111909999D01*
X57436202Y-111938997D01*
X57436201Y-111938998D01*
X57365026Y-112025724D01*
X57332078Y-112087365D01*
X57255820Y-112110498D01*
X57200000Y-112140335D01*
X57144180Y-112110498D01*
X57024482Y-112074188D01*
X56900000Y-112061928D01*
X55900000Y-112061928D01*
X55775518Y-112074188D01*
X55655820Y-112110498D01*
X55545506Y-112169463D01*
X55448815Y-112248815D01*
X55369463Y-112345506D01*
X55310498Y-112455820D01*
X55274188Y-112575518D01*
X55261928Y-112700000D01*
X55261928Y-112738980D01*
X55197810Y-112773251D01*
X55133796Y-112825786D01*
X55074472Y-112874472D01*
X55049105Y-112905382D01*
X54214488Y-113740000D01*
X53732163Y-113740000D01*
X53725812Y-113675518D01*
X53689502Y-113555820D01*
X53630537Y-113445506D01*
X53551185Y-113348815D01*
X53454494Y-113269463D01*
X53344180Y-113210498D01*
X53224482Y-113174188D01*
X53100000Y-113161928D01*
X52512873Y-113161928D01*
X53914802Y-111760000D01*
X56462678Y-111760000D01*
X56500000Y-111763676D01*
X56537322Y-111760000D01*
X56537333Y-111760000D01*
X56648986Y-111749003D01*
X56792247Y-111705546D01*
X56924276Y-111634974D01*
X57040001Y-111540001D01*
X57063804Y-111510997D01*
X58511004Y-110063798D01*
X58540001Y-110040001D01*
X58634974Y-109924276D01*
X58636025Y-109922311D01*
X58744180Y-109889502D01*
X58800000Y-109859665D01*
X58855820Y-109889502D01*
X58975518Y-109925812D01*
X59100000Y-109938072D01*
X60100000Y-109938072D01*
X60224482Y-109925812D01*
X60344180Y-109889502D01*
X60454494Y-109830537D01*
X60551185Y-109751185D01*
X60630537Y-109654494D01*
X60689502Y-109544180D01*
X60725812Y-109424482D01*
X60738072Y-109300000D01*
X60738072Y-107800000D01*
X60725812Y-107675518D01*
X60689502Y-107555820D01*
X60630537Y-107445506D01*
X60551185Y-107348815D01*
X60454494Y-107269463D01*
X60344180Y-107210498D01*
X60236025Y-107177690D01*
X60234974Y-107175723D01*
X60163799Y-107088997D01*
X60140001Y-107059999D01*
X60111004Y-107036202D01*
X59874802Y-106800000D01*
X61261928Y-106800000D01*
X61261928Y-108300000D01*
X61274188Y-108424482D01*
X61310498Y-108544180D01*
X61369463Y-108654494D01*
X61448815Y-108751185D01*
X61545506Y-108830537D01*
X61655820Y-108889502D01*
X61775518Y-108925812D01*
X61900000Y-108938072D01*
X62900000Y-108938072D01*
X63024482Y-108925812D01*
X63144180Y-108889502D01*
X63200000Y-108859665D01*
X63255820Y-108889502D01*
X63332078Y-108912635D01*
X63365026Y-108974276D01*
X63407080Y-109025518D01*
X63460000Y-109090001D01*
X63488998Y-109113799D01*
X64886201Y-110511003D01*
X64909999Y-110540001D01*
X65025724Y-110634974D01*
X65157753Y-110705546D01*
X65301014Y-110749003D01*
X65412667Y-110760000D01*
X65412675Y-110760000D01*
X65450000Y-110763676D01*
X65487325Y-110760000D01*
X70962678Y-110760000D01*
X71000000Y-110763676D01*
X71037322Y-110760000D01*
X71037333Y-110760000D01*
X71148986Y-110749003D01*
X71292247Y-110705546D01*
X71424276Y-110634974D01*
X71540001Y-110540001D01*
X71563803Y-110510998D01*
X72111004Y-109963798D01*
X72140001Y-109940001D01*
X72145241Y-109933616D01*
X72224482Y-109925812D01*
X72344180Y-109889502D01*
X72454494Y-109830537D01*
X72551185Y-109751185D01*
X72630537Y-109654494D01*
X72689502Y-109544180D01*
X72725812Y-109424482D01*
X72738072Y-109300000D01*
X72738072Y-107800000D01*
X72725812Y-107675518D01*
X72689502Y-107555820D01*
X72630537Y-107445506D01*
X72551185Y-107348815D01*
X72454494Y-107269463D01*
X72344180Y-107210498D01*
X72224482Y-107174188D01*
X72100000Y-107161928D01*
X71100000Y-107161928D01*
X70975518Y-107174188D01*
X70855820Y-107210498D01*
X70800000Y-107240335D01*
X70744180Y-107210498D01*
X70636025Y-107177689D01*
X70634974Y-107175724D01*
X70540001Y-107059999D01*
X70511004Y-107036202D01*
X68963804Y-105489003D01*
X68940001Y-105459999D01*
X68824276Y-105365026D01*
X68692247Y-105294454D01*
X68548986Y-105250997D01*
X68437333Y-105240000D01*
X68437322Y-105240000D01*
X68400000Y-105236324D01*
X68362678Y-105240000D01*
X63037322Y-105240000D01*
X62999999Y-105236324D01*
X62962676Y-105240000D01*
X62962667Y-105240000D01*
X62851014Y-105250997D01*
X62707753Y-105294454D01*
X62575723Y-105365026D01*
X62492083Y-105433668D01*
X62459999Y-105459999D01*
X62436200Y-105488998D01*
X61888998Y-106036201D01*
X61860000Y-106059999D01*
X61836202Y-106088997D01*
X61836201Y-106088998D01*
X61765026Y-106175724D01*
X61763975Y-106177689D01*
X61655820Y-106210498D01*
X61545506Y-106269463D01*
X61448815Y-106348815D01*
X61369463Y-106445506D01*
X61310498Y-106555820D01*
X61274188Y-106675518D01*
X61261928Y-106800000D01*
X59874802Y-106800000D01*
X59563803Y-106489002D01*
X59540001Y-106459999D01*
X59424276Y-106365026D01*
X59292247Y-106294454D01*
X59148986Y-106250997D01*
X59037333Y-106240000D01*
X59037322Y-106240000D01*
X59000000Y-106236324D01*
X58962678Y-106240000D01*
X55537325Y-106240000D01*
X55500000Y-106236324D01*
X55462675Y-106240000D01*
X55462667Y-106240000D01*
X55351014Y-106250997D01*
X55207753Y-106294454D01*
X55075724Y-106365026D01*
X54959999Y-106459999D01*
X54936201Y-106488997D01*
X48888998Y-112536201D01*
X48860000Y-112559999D01*
X48836202Y-112588997D01*
X48836201Y-112588998D01*
X48765026Y-112675724D01*
X48694454Y-112807754D01*
X48681337Y-112850997D01*
X48650998Y-112951014D01*
X48641348Y-113048987D01*
X48636324Y-113100000D01*
X48640001Y-113137332D01*
X48640001Y-113218954D01*
X48545506Y-113269463D01*
X48448815Y-113348815D01*
X48369463Y-113445506D01*
X48310498Y-113555820D01*
X48274188Y-113675518D01*
X48261928Y-113800000D01*
X48261928Y-115300000D01*
X48274188Y-115424482D01*
X48310498Y-115544180D01*
X48369463Y-115654494D01*
X48448815Y-115751185D01*
X48545506Y-115830537D01*
X48655820Y-115889502D01*
X48775518Y-115925812D01*
X48900000Y-115938072D01*
X49900000Y-115938072D01*
X50024482Y-115925812D01*
X50144180Y-115889502D01*
X50200000Y-115859665D01*
X50255820Y-115889502D01*
X50375518Y-115925812D01*
X50500000Y-115938072D01*
X51500000Y-115938072D01*
X51624482Y-115925812D01*
X51744180Y-115889502D01*
X51800000Y-115859665D01*
X51855820Y-115889502D01*
X51975518Y-115925812D01*
X52100000Y-115938072D01*
X53100000Y-115938072D01*
X53224482Y-115925812D01*
X53344180Y-115889502D01*
X53454494Y-115830537D01*
X53551185Y-115751185D01*
X53630537Y-115654494D01*
X53689502Y-115544180D01*
X53725812Y-115424482D01*
X53732163Y-115360000D01*
X54463210Y-115360000D01*
X54445506Y-115369463D01*
X54348815Y-115448815D01*
X54269463Y-115545506D01*
X54210498Y-115655820D01*
X54177690Y-115763975D01*
X54175723Y-115765026D01*
X54150068Y-115786081D01*
X54059999Y-115859999D01*
X54036201Y-115888997D01*
X53238987Y-116686212D01*
X53209989Y-116710010D01*
X53186191Y-116739008D01*
X53186190Y-116739009D01*
X53115015Y-116825735D01*
X53044443Y-116957765D01*
X53021023Y-117034974D01*
X53000987Y-117101025D01*
X52991151Y-117200892D01*
X52986313Y-117250011D01*
X52989990Y-117287343D01*
X52989990Y-118063505D01*
X52885750Y-118065000D01*
X52727000Y-118223750D01*
X52727000Y-119323000D01*
X52747000Y-119323000D01*
X52747000Y-119577000D01*
X52727000Y-119577000D01*
X52727000Y-120676250D01*
X52885750Y-120835000D01*
X52989989Y-120836495D01*
X52989989Y-120935210D01*
X52888998Y-121036201D01*
X52860000Y-121059999D01*
X52836202Y-121088997D01*
X52836201Y-121088998D01*
X52765026Y-121175724D01*
X52763975Y-121177689D01*
X52655820Y-121210498D01*
X52545506Y-121269463D01*
X52448815Y-121348815D01*
X52369463Y-121445506D01*
X52310498Y-121555820D01*
X52274188Y-121675518D01*
X52261928Y-121800000D01*
X52261928Y-123300000D01*
X52270792Y-123390000D01*
X51735513Y-123390000D01*
X51729773Y-123384261D01*
X51738072Y-123300000D01*
X51738072Y-121800000D01*
X51725812Y-121675518D01*
X51689502Y-121555820D01*
X51630537Y-121445506D01*
X51551185Y-121348815D01*
X51454494Y-121269463D01*
X51344180Y-121210498D01*
X51224482Y-121174188D01*
X51100000Y-121161928D01*
X50612874Y-121161928D01*
X50936730Y-120838072D01*
X51500000Y-120838072D01*
X51624482Y-120825812D01*
X51744180Y-120789502D01*
X51800000Y-120759665D01*
X51855820Y-120789502D01*
X51975518Y-120825812D01*
X52100000Y-120838072D01*
X52314250Y-120835000D01*
X52473000Y-120676250D01*
X52473000Y-119577000D01*
X52453000Y-119577000D01*
X52453000Y-119323000D01*
X52473000Y-119323000D01*
X52473000Y-118223750D01*
X52314250Y-118065000D01*
X52100000Y-118061928D01*
X51975518Y-118074188D01*
X51855820Y-118110498D01*
X51800000Y-118140335D01*
X51744180Y-118110498D01*
X51624482Y-118074188D01*
X51500000Y-118061928D01*
X50500000Y-118061928D01*
X50375518Y-118074188D01*
X50255820Y-118110498D01*
X50200000Y-118140335D01*
X50144180Y-118110498D01*
X50024482Y-118074188D01*
X49900000Y-118061928D01*
X48900000Y-118061928D01*
X48775518Y-118074188D01*
X48655820Y-118110498D01*
X48545506Y-118169463D01*
X48448815Y-118248815D01*
X48369463Y-118345506D01*
X48310498Y-118455820D01*
X48274188Y-118575518D01*
X48261928Y-118700000D01*
X48261928Y-118795674D01*
X48225723Y-118815026D01*
X48177632Y-118854494D01*
X48109999Y-118909999D01*
X48086201Y-118938997D01*
X46888998Y-120136201D01*
X46860000Y-120159999D01*
X46836202Y-120188997D01*
X46836201Y-120188998D01*
X46765026Y-120275724D01*
X46694454Y-120407754D01*
X46677491Y-120463677D01*
X46650998Y-120551014D01*
X46646074Y-120601007D01*
X46636324Y-120700000D01*
X46640001Y-120737332D01*
X46640001Y-121218954D01*
X46545506Y-121269463D01*
X46448815Y-121348815D01*
X46369463Y-121445506D01*
X46310498Y-121555820D01*
X46274188Y-121675518D01*
X46261928Y-121800000D01*
X46261928Y-123300000D01*
X46274188Y-123424482D01*
X46310498Y-123544180D01*
X46369463Y-123654494D01*
X46448815Y-123751185D01*
X46545506Y-123830537D01*
X46655820Y-123889502D01*
X46775518Y-123925812D01*
X46900000Y-123938072D01*
X47900000Y-123938072D01*
X48024482Y-123925812D01*
X48144180Y-123889502D01*
X48200000Y-123859665D01*
X48255820Y-123889502D01*
X48375518Y-123925812D01*
X48500000Y-123938072D01*
X49500000Y-123938072D01*
X49624482Y-123925812D01*
X49744180Y-123889502D01*
X49800000Y-123859665D01*
X49855820Y-123889502D01*
X49975518Y-123925812D01*
X49984389Y-123926686D01*
X50024472Y-123975528D01*
X50055387Y-124000899D01*
X50799105Y-124744618D01*
X50824472Y-124775528D01*
X50855380Y-124800893D01*
X50947810Y-124876749D01*
X50970725Y-124888997D01*
X51088527Y-124951963D01*
X51241212Y-124998280D01*
X51360209Y-125010000D01*
X51360212Y-125010000D01*
X51400000Y-125013919D01*
X51439788Y-125010000D01*
X56010212Y-125010000D01*
X56050000Y-125013919D01*
X56089788Y-125010000D01*
X56089791Y-125010000D01*
X56208788Y-124998280D01*
X56361473Y-124951963D01*
X56502189Y-124876749D01*
X56625528Y-124775528D01*
X56650899Y-124744613D01*
X57144617Y-124250895D01*
X57175528Y-124225528D01*
X57276749Y-124102189D01*
X57351963Y-123961473D01*
X57379527Y-123870608D01*
X57454494Y-123830537D01*
X57551185Y-123751185D01*
X57630537Y-123654494D01*
X57689502Y-123544180D01*
X57725812Y-123424482D01*
X57738072Y-123300000D01*
X57738072Y-121800000D01*
X57725812Y-121675518D01*
X57689502Y-121555820D01*
X57672152Y-121523361D01*
X58560513Y-120635000D01*
X58601939Y-120635000D01*
X58801898Y-120595226D01*
X58990256Y-120517205D01*
X59147001Y-120412472D01*
X59169463Y-120454494D01*
X59248815Y-120551185D01*
X59345506Y-120630537D01*
X59455820Y-120689502D01*
X59575518Y-120725812D01*
X59700000Y-120738072D01*
X60742560Y-120738072D01*
X61166415Y-121161928D01*
X60500000Y-121161928D01*
X60375518Y-121174188D01*
X60255820Y-121210498D01*
X60200000Y-121240335D01*
X60144180Y-121210498D01*
X60024482Y-121174188D01*
X59900000Y-121161928D01*
X58900000Y-121161928D01*
X58775518Y-121174188D01*
X58655820Y-121210498D01*
X58545506Y-121269463D01*
X58448815Y-121348815D01*
X58369463Y-121445506D01*
X58310498Y-121555820D01*
X58274188Y-121675518D01*
X58261928Y-121800000D01*
X58261928Y-123300000D01*
X58274188Y-123424482D01*
X58310498Y-123544180D01*
X58369463Y-123654494D01*
X58448815Y-123751185D01*
X58545506Y-123830537D01*
X58655820Y-123889502D01*
X58732078Y-123912635D01*
X58765026Y-123974276D01*
X58836201Y-124061002D01*
X58860000Y-124090001D01*
X58888998Y-124113799D01*
X60015199Y-125240000D01*
X58837322Y-125240000D01*
X58799999Y-125236324D01*
X58762676Y-125240000D01*
X58762667Y-125240000D01*
X58651014Y-125250997D01*
X58507753Y-125294454D01*
X58375724Y-125365026D01*
X58259999Y-125459999D01*
X58236201Y-125488997D01*
X57510101Y-126215098D01*
X57454494Y-126169463D01*
X57344180Y-126110498D01*
X57224482Y-126074188D01*
X57100000Y-126061928D01*
X56885750Y-126065000D01*
X56727000Y-126223750D01*
X56727000Y-127323000D01*
X56747000Y-127323000D01*
X56747000Y-127577000D01*
X56727000Y-127577000D01*
X56727000Y-128676250D01*
X56840001Y-128789251D01*
X56840000Y-129563210D01*
X56830537Y-129545506D01*
X56751185Y-129448815D01*
X56654494Y-129369463D01*
X56544180Y-129310498D01*
X56424482Y-129274188D01*
X56300000Y-129261928D01*
X54800000Y-129261928D01*
X54675518Y-129274188D01*
X54555820Y-129310498D01*
X54445506Y-129369463D01*
X54348815Y-129448815D01*
X54269463Y-129545506D01*
X54262223Y-129559051D01*
X54251898Y-129554774D01*
X54051939Y-129515000D01*
X53848061Y-129515000D01*
X53685018Y-129547431D01*
X53630537Y-129445506D01*
X53551185Y-129348815D01*
X53454494Y-129269463D01*
X53344180Y-129210498D01*
X53224482Y-129174188D01*
X53100000Y-129161928D01*
X53012874Y-129161928D01*
X53336730Y-128838072D01*
X53900000Y-128838072D01*
X54024482Y-128825812D01*
X54144180Y-128789502D01*
X54200000Y-128759665D01*
X54255820Y-128789502D01*
X54375518Y-128825812D01*
X54500000Y-128838072D01*
X55500000Y-128838072D01*
X55624482Y-128825812D01*
X55744180Y-128789502D01*
X55800000Y-128759665D01*
X55855820Y-128789502D01*
X55975518Y-128825812D01*
X56100000Y-128838072D01*
X56314250Y-128835000D01*
X56473000Y-128676250D01*
X56473000Y-127577000D01*
X56453000Y-127577000D01*
X56453000Y-127323000D01*
X56473000Y-127323000D01*
X56473000Y-126223750D01*
X56314250Y-126065000D01*
X56100000Y-126061928D01*
X55975518Y-126074188D01*
X55855820Y-126110498D01*
X55800000Y-126140335D01*
X55744180Y-126110498D01*
X55636025Y-126077689D01*
X55634974Y-126075724D01*
X55540001Y-125959999D01*
X55511003Y-125936201D01*
X55163803Y-125589002D01*
X55140001Y-125559999D01*
X55024276Y-125465026D01*
X54892247Y-125394454D01*
X54748986Y-125350997D01*
X54637333Y-125340000D01*
X54637322Y-125340000D01*
X54600000Y-125336324D01*
X54562678Y-125340000D01*
X52952331Y-125340000D01*
X52914998Y-125336323D01*
X52877665Y-125340000D01*
X52766012Y-125350997D01*
X52622751Y-125394454D01*
X52490722Y-125465026D01*
X52374997Y-125559999D01*
X52351199Y-125588997D01*
X51614379Y-126325818D01*
X51551185Y-126248815D01*
X51454494Y-126169463D01*
X51344180Y-126110498D01*
X51224482Y-126074188D01*
X51100000Y-126061928D01*
X50885750Y-126065000D01*
X50727000Y-126223750D01*
X50727000Y-127323000D01*
X50747000Y-127323000D01*
X50747000Y-127577000D01*
X50727000Y-127577000D01*
X50727000Y-127597000D01*
X50473000Y-127597000D01*
X50473000Y-127577000D01*
X50453000Y-127577000D01*
X50453000Y-127323000D01*
X50473000Y-127323000D01*
X50473000Y-126223750D01*
X50314250Y-126065000D01*
X50100000Y-126061928D01*
X49975518Y-126074188D01*
X49855820Y-126110498D01*
X49800000Y-126140335D01*
X49744180Y-126110498D01*
X49624482Y-126074188D01*
X49545241Y-126066384D01*
X49540001Y-126059999D01*
X49511008Y-126036205D01*
X48863803Y-125389002D01*
X48840001Y-125359999D01*
X48724276Y-125265026D01*
X48592247Y-125194454D01*
X48448986Y-125150997D01*
X48337333Y-125140000D01*
X48337322Y-125140000D01*
X48300000Y-125136324D01*
X48262678Y-125140000D01*
X46637323Y-125140000D01*
X46600000Y-125136324D01*
X46562677Y-125140000D01*
X46562667Y-125140000D01*
X46451014Y-125150997D01*
X46307753Y-125194454D01*
X46175724Y-125265026D01*
X46059999Y-125359999D01*
X46036201Y-125388997D01*
X45289002Y-126136197D01*
X45259999Y-126159999D01*
X45220809Y-126207753D01*
X45165026Y-126275724D01*
X45124782Y-126351015D01*
X45094454Y-126407754D01*
X45050997Y-126551015D01*
X45040000Y-126662668D01*
X45040000Y-126662678D01*
X45036324Y-126700000D01*
X45040000Y-126737323D01*
X45040001Y-127525197D01*
X38694800Y-133870399D01*
X38694800Y-133824896D01*
X38634282Y-133520648D01*
X38515570Y-133234052D01*
X38343227Y-132976123D01*
X38123877Y-132756773D01*
X38053876Y-132710000D01*
X38123877Y-132663227D01*
X38343227Y-132443877D01*
X38515570Y-132185948D01*
X38634282Y-131899352D01*
X38694800Y-131595104D01*
X38694800Y-131284896D01*
X38634282Y-130980648D01*
X38515570Y-130694052D01*
X38343227Y-130436123D01*
X38123877Y-130216773D01*
X38053876Y-130170000D01*
X38123877Y-130123227D01*
X38343227Y-129903877D01*
X38515570Y-129645948D01*
X38634282Y-129359352D01*
X38694800Y-129055104D01*
X38694800Y-128744896D01*
X38634282Y-128440648D01*
X38515570Y-128154052D01*
X38343227Y-127896123D01*
X38123877Y-127676773D01*
X37865948Y-127504430D01*
X37579352Y-127385718D01*
X37275104Y-127325200D01*
X36964896Y-127325200D01*
X36660648Y-127385718D01*
X36374052Y-127504430D01*
X36116123Y-127676773D01*
X35896773Y-127896123D01*
X35724430Y-128154052D01*
X35605718Y-128440648D01*
X35545200Y-128744896D01*
X20695000Y-128744896D01*
X20695000Y-113504896D01*
X21575200Y-113504896D01*
X21575200Y-113815104D01*
X21635718Y-114119352D01*
X21754430Y-114405948D01*
X21926773Y-114663877D01*
X22146123Y-114883227D01*
X22404052Y-115055570D01*
X22690648Y-115174282D01*
X22994896Y-115234800D01*
X23305104Y-115234800D01*
X23609352Y-115174282D01*
X23895948Y-115055570D01*
X24153877Y-114883227D01*
X24373227Y-114663877D01*
X24420000Y-114593876D01*
X24466773Y-114663877D01*
X24686123Y-114883227D01*
X24944052Y-115055570D01*
X25230648Y-115174282D01*
X25534896Y-115234800D01*
X25845104Y-115234800D01*
X26149352Y-115174282D01*
X26435948Y-115055570D01*
X26693877Y-114883227D01*
X26913227Y-114663877D01*
X26960000Y-114593876D01*
X27006773Y-114663877D01*
X27226123Y-114883227D01*
X27484052Y-115055570D01*
X27770648Y-115174282D01*
X28074896Y-115234800D01*
X28385104Y-115234800D01*
X28689352Y-115174282D01*
X28975948Y-115055570D01*
X29233877Y-114883227D01*
X29453227Y-114663877D01*
X29500000Y-114593876D01*
X29546773Y-114663877D01*
X29766123Y-114883227D01*
X30024052Y-115055570D01*
X30310648Y-115174282D01*
X30614896Y-115234800D01*
X30925104Y-115234800D01*
X31229352Y-115174282D01*
X31515948Y-115055570D01*
X31773877Y-114883227D01*
X31904628Y-114752476D01*
X32397129Y-114752476D01*
X32485623Y-115010723D01*
X32764976Y-115145597D01*
X33065275Y-115223381D01*
X33374977Y-115241084D01*
X33682184Y-115198027D01*
X33975086Y-115095865D01*
X34134377Y-115010723D01*
X34222871Y-114752476D01*
X34937129Y-114752476D01*
X35025623Y-115010723D01*
X35304976Y-115145597D01*
X35605275Y-115223381D01*
X35914977Y-115241084D01*
X36222184Y-115198027D01*
X36515086Y-115095865D01*
X36674377Y-115010723D01*
X36762871Y-114752476D01*
X35850000Y-113839605D01*
X34937129Y-114752476D01*
X34222871Y-114752476D01*
X33310000Y-113839605D01*
X32397129Y-114752476D01*
X31904628Y-114752476D01*
X31993227Y-114663877D01*
X32084495Y-114527286D01*
X32217524Y-114572871D01*
X33130395Y-113660000D01*
X33489605Y-113660000D01*
X34402476Y-114572871D01*
X34580000Y-114512039D01*
X34757524Y-114572871D01*
X35670395Y-113660000D01*
X36029605Y-113660000D01*
X36942476Y-114572871D01*
X37200723Y-114484377D01*
X37335597Y-114205024D01*
X37413381Y-113904725D01*
X37431084Y-113595023D01*
X37388027Y-113287816D01*
X37285865Y-112994914D01*
X37200723Y-112835623D01*
X36942476Y-112747129D01*
X36029605Y-113660000D01*
X35670395Y-113660000D01*
X34757524Y-112747129D01*
X34580000Y-112807961D01*
X34402476Y-112747129D01*
X33489605Y-113660000D01*
X33130395Y-113660000D01*
X32217524Y-112747129D01*
X32084495Y-112792714D01*
X31993227Y-112656123D01*
X31904628Y-112567524D01*
X32397129Y-112567524D01*
X33310000Y-113480395D01*
X34222871Y-112567524D01*
X34937129Y-112567524D01*
X35850000Y-113480395D01*
X36762871Y-112567524D01*
X36674377Y-112309277D01*
X36395024Y-112174403D01*
X36094725Y-112096619D01*
X35785023Y-112078916D01*
X35477816Y-112121973D01*
X35184914Y-112224135D01*
X35025623Y-112309277D01*
X34937129Y-112567524D01*
X34222871Y-112567524D01*
X34134377Y-112309277D01*
X33855024Y-112174403D01*
X33554725Y-112096619D01*
X33245023Y-112078916D01*
X32937816Y-112121973D01*
X32644914Y-112224135D01*
X32485623Y-112309277D01*
X32397129Y-112567524D01*
X31904628Y-112567524D01*
X31773877Y-112436773D01*
X31515948Y-112264430D01*
X31229352Y-112145718D01*
X30925104Y-112085200D01*
X30614896Y-112085200D01*
X30310648Y-112145718D01*
X30024052Y-112264430D01*
X29766123Y-112436773D01*
X29546773Y-112656123D01*
X29500000Y-112726124D01*
X29453227Y-112656123D01*
X29233877Y-112436773D01*
X28975948Y-112264430D01*
X28689352Y-112145718D01*
X28385104Y-112085200D01*
X28074896Y-112085200D01*
X27770648Y-112145718D01*
X27484052Y-112264430D01*
X27226123Y-112436773D01*
X27006773Y-112656123D01*
X26960000Y-112726124D01*
X26913227Y-112656123D01*
X26693877Y-112436773D01*
X26435948Y-112264430D01*
X26149352Y-112145718D01*
X25845104Y-112085200D01*
X25534896Y-112085200D01*
X25230648Y-112145718D01*
X24944052Y-112264430D01*
X24686123Y-112436773D01*
X24466773Y-112656123D01*
X24420000Y-112726124D01*
X24373227Y-112656123D01*
X24153877Y-112436773D01*
X23895948Y-112264430D01*
X23609352Y-112145718D01*
X23305104Y-112085200D01*
X22994896Y-112085200D01*
X22690648Y-112145718D01*
X22404052Y-112264430D01*
X22146123Y-112436773D01*
X21926773Y-112656123D01*
X21754430Y-112914052D01*
X21635718Y-113200648D01*
X21575200Y-113504896D01*
X20695000Y-113504896D01*
X20695000Y-110820980D01*
X20699294Y-110829014D01*
X20884866Y-111055134D01*
X21110986Y-111240706D01*
X21368966Y-111378599D01*
X21648889Y-111463513D01*
X21867050Y-111485000D01*
X22012950Y-111485000D01*
X22231111Y-111463513D01*
X22511034Y-111378599D01*
X22769014Y-111240706D01*
X22995134Y-111055134D01*
X23180706Y-110829014D01*
X23210000Y-110774209D01*
X23239294Y-110829014D01*
X23424866Y-111055134D01*
X23650986Y-111240706D01*
X23908966Y-111378599D01*
X24188889Y-111463513D01*
X24407050Y-111485000D01*
X24552950Y-111485000D01*
X24771111Y-111463513D01*
X25051034Y-111378599D01*
X25309014Y-111240706D01*
X25535134Y-111055134D01*
X25720706Y-110829014D01*
X25750000Y-110774209D01*
X25779294Y-110829014D01*
X25964866Y-111055134D01*
X26190986Y-111240706D01*
X26448966Y-111378599D01*
X26728889Y-111463513D01*
X26947050Y-111485000D01*
X27092950Y-111485000D01*
X27311111Y-111463513D01*
X27591034Y-111378599D01*
X27849014Y-111240706D01*
X28075134Y-111055134D01*
X28260706Y-110829014D01*
X28290000Y-110774209D01*
X28319294Y-110829014D01*
X28504866Y-111055134D01*
X28730986Y-111240706D01*
X28988966Y-111378599D01*
X29268889Y-111463513D01*
X29487050Y-111485000D01*
X29632950Y-111485000D01*
X29851111Y-111463513D01*
X30131034Y-111378599D01*
X30389014Y-111240706D01*
X30615134Y-111055134D01*
X30639607Y-111025313D01*
X30660498Y-111094180D01*
X30719463Y-111204494D01*
X30798815Y-111301185D01*
X30895506Y-111380537D01*
X31005820Y-111439502D01*
X31125518Y-111475812D01*
X31250000Y-111488072D01*
X31814250Y-111485000D01*
X31973000Y-111326250D01*
X31973000Y-110127000D01*
X32227000Y-110127000D01*
X32227000Y-111326250D01*
X32385750Y-111485000D01*
X32950000Y-111488072D01*
X33074482Y-111475812D01*
X33194180Y-111439502D01*
X33304494Y-111380537D01*
X33401185Y-111301185D01*
X33480537Y-111204494D01*
X33539502Y-111094180D01*
X33575812Y-110974482D01*
X33588072Y-110850000D01*
X33585000Y-110285750D01*
X33426250Y-110127000D01*
X32227000Y-110127000D01*
X31973000Y-110127000D01*
X31953000Y-110127000D01*
X31953000Y-109873000D01*
X31973000Y-109873000D01*
X31973000Y-108673750D01*
X32227000Y-108673750D01*
X32227000Y-109873000D01*
X33426250Y-109873000D01*
X33585000Y-109714250D01*
X33587477Y-109259267D01*
X36233680Y-109259267D01*
X36307558Y-109540830D01*
X36434947Y-109802570D01*
X36610951Y-110034429D01*
X36828807Y-110227496D01*
X37080142Y-110374352D01*
X37343110Y-110466476D01*
X37573000Y-110345155D01*
X37573000Y-109027000D01*
X36373835Y-109027000D01*
X36233680Y-109259267D01*
X33587477Y-109259267D01*
X33588072Y-109150000D01*
X33575812Y-109025518D01*
X33539502Y-108905820D01*
X33480537Y-108795506D01*
X33401185Y-108698815D01*
X33304494Y-108619463D01*
X33194180Y-108560498D01*
X33129024Y-108540733D01*
X36233680Y-108540733D01*
X36373835Y-108773000D01*
X37573000Y-108773000D01*
X37573000Y-107454845D01*
X37827000Y-107454845D01*
X37827000Y-108773000D01*
X37847000Y-108773000D01*
X37847000Y-109027000D01*
X37827000Y-109027000D01*
X37827000Y-110345155D01*
X38056890Y-110466476D01*
X38319858Y-110374352D01*
X38571193Y-110227496D01*
X38789049Y-110034429D01*
X38945538Y-109828278D01*
X38959294Y-109854013D01*
X39144866Y-110080134D01*
X39370986Y-110265706D01*
X39628966Y-110403599D01*
X39908889Y-110488513D01*
X40200000Y-110517185D01*
X40491110Y-110488513D01*
X40771033Y-110403599D01*
X41029013Y-110265706D01*
X41255134Y-110080134D01*
X41440706Y-109854014D01*
X41450000Y-109836626D01*
X41459294Y-109854013D01*
X41644866Y-110080134D01*
X41870986Y-110265706D01*
X42128966Y-110403599D01*
X42408889Y-110488513D01*
X42700000Y-110517185D01*
X42991110Y-110488513D01*
X43271033Y-110403599D01*
X43529013Y-110265706D01*
X43755134Y-110080134D01*
X43807223Y-110016663D01*
X43861595Y-110118386D01*
X43972038Y-110252962D01*
X44106614Y-110363405D01*
X44260150Y-110445472D01*
X44426746Y-110496008D01*
X44600000Y-110513072D01*
X45800000Y-110513072D01*
X45973254Y-110496008D01*
X46139850Y-110445472D01*
X46293386Y-110363405D01*
X46427962Y-110252962D01*
X46538405Y-110118386D01*
X46620472Y-109964850D01*
X46671008Y-109798254D01*
X46688072Y-109625000D01*
X46688072Y-108175000D01*
X46671008Y-108001746D01*
X46620472Y-107835150D01*
X46538405Y-107681614D01*
X46427962Y-107547038D01*
X46293386Y-107436595D01*
X46139850Y-107354528D01*
X45973254Y-107303992D01*
X45800000Y-107286928D01*
X44600000Y-107286928D01*
X44426746Y-107303992D01*
X44260150Y-107354528D01*
X44106614Y-107436595D01*
X43972038Y-107547038D01*
X43861595Y-107681614D01*
X43807223Y-107783337D01*
X43755134Y-107719866D01*
X43529014Y-107534294D01*
X43271034Y-107396401D01*
X42991111Y-107311487D01*
X42700000Y-107282815D01*
X42408890Y-107311487D01*
X42128967Y-107396401D01*
X41870987Y-107534294D01*
X41644866Y-107719866D01*
X41459294Y-107945986D01*
X41450000Y-107963374D01*
X41440706Y-107945986D01*
X41255134Y-107719866D01*
X41029014Y-107534294D01*
X40771034Y-107396401D01*
X40491111Y-107311487D01*
X40200000Y-107282815D01*
X39908890Y-107311487D01*
X39628967Y-107396401D01*
X39370987Y-107534294D01*
X39144866Y-107719866D01*
X38959294Y-107945986D01*
X38945538Y-107971722D01*
X38789049Y-107765571D01*
X38571193Y-107572504D01*
X38319858Y-107425648D01*
X38056890Y-107333524D01*
X37827000Y-107454845D01*
X37573000Y-107454845D01*
X37343110Y-107333524D01*
X37080142Y-107425648D01*
X36828807Y-107572504D01*
X36610951Y-107765571D01*
X36434947Y-107997430D01*
X36307558Y-108259170D01*
X36233680Y-108540733D01*
X33129024Y-108540733D01*
X33074482Y-108524188D01*
X32950000Y-108511928D01*
X32385750Y-108515000D01*
X32227000Y-108673750D01*
X31973000Y-108673750D01*
X31814250Y-108515000D01*
X31250000Y-108511928D01*
X31125518Y-108524188D01*
X31005820Y-108560498D01*
X30895506Y-108619463D01*
X30798815Y-108698815D01*
X30719463Y-108795506D01*
X30660498Y-108905820D01*
X30639607Y-108974687D01*
X30615134Y-108944866D01*
X30389014Y-108759294D01*
X30131034Y-108621401D01*
X29851111Y-108536487D01*
X29632950Y-108515000D01*
X29487050Y-108515000D01*
X29268889Y-108536487D01*
X28988966Y-108621401D01*
X28730986Y-108759294D01*
X28504866Y-108944866D01*
X28319294Y-109170986D01*
X28290000Y-109225791D01*
X28260706Y-109170986D01*
X28075134Y-108944866D01*
X27849014Y-108759294D01*
X27591034Y-108621401D01*
X27311111Y-108536487D01*
X27092950Y-108515000D01*
X26947050Y-108515000D01*
X26728889Y-108536487D01*
X26448966Y-108621401D01*
X26190986Y-108759294D01*
X25964866Y-108944866D01*
X25779294Y-109170986D01*
X25750000Y-109225791D01*
X25720706Y-109170986D01*
X25535134Y-108944866D01*
X25309014Y-108759294D01*
X25051034Y-108621401D01*
X24771111Y-108536487D01*
X24552950Y-108515000D01*
X24407050Y-108515000D01*
X24188889Y-108536487D01*
X23908966Y-108621401D01*
X23650986Y-108759294D01*
X23424866Y-108944866D01*
X23239294Y-109170986D01*
X23210000Y-109225791D01*
X23180706Y-109170986D01*
X22995134Y-108944866D01*
X22769014Y-108759294D01*
X22511034Y-108621401D01*
X22231111Y-108536487D01*
X22012950Y-108515000D01*
X21867050Y-108515000D01*
X21648889Y-108536487D01*
X21368966Y-108621401D01*
X21110986Y-108759294D01*
X20884866Y-108944866D01*
X20699294Y-109170986D01*
X20695000Y-109179020D01*
X20695000Y-104695000D01*
X84305001Y-104695000D01*
X84305000Y-145305000D01*
G36*
X66161928Y-118500000D02*
G01*
X66174188Y-118624482D01*
X66210498Y-118744180D01*
X66240335Y-118800000D01*
X66210498Y-118855820D01*
X66174188Y-118975518D01*
X66161928Y-119100000D01*
X66165000Y-119314250D01*
X66323750Y-119473000D01*
X67423000Y-119473000D01*
X67423000Y-119453000D01*
X67677000Y-119453000D01*
X67677000Y-119473000D01*
X68776250Y-119473000D01*
X68935000Y-119314250D01*
X68938072Y-119100000D01*
X68928345Y-119001242D01*
X69098061Y-119035000D01*
X69301939Y-119035000D01*
X69501898Y-118995226D01*
X69690256Y-118917205D01*
X69859774Y-118803937D01*
X69890000Y-118773711D01*
X69890000Y-118949300D01*
X69782795Y-119109744D01*
X69704774Y-119298102D01*
X69667129Y-119487358D01*
X68923986Y-120230502D01*
X68925812Y-120224482D01*
X68938072Y-120100000D01*
X68935000Y-119885750D01*
X68776250Y-119727000D01*
X67677000Y-119727000D01*
X67677000Y-120576250D01*
X67835750Y-120735000D01*
X68300000Y-120738072D01*
X68424482Y-120725812D01*
X68430502Y-120723986D01*
X68055383Y-121099105D01*
X68024473Y-121124472D01*
X67984389Y-121173314D01*
X67975518Y-121174188D01*
X67855820Y-121210498D01*
X67800000Y-121240335D01*
X67744180Y-121210498D01*
X67624482Y-121174188D01*
X67500000Y-121161928D01*
X66500000Y-121161928D01*
X66375518Y-121174188D01*
X66255820Y-121210498D01*
X66200000Y-121240335D01*
X66144180Y-121210498D01*
X66024482Y-121174188D01*
X65900000Y-121161928D01*
X64900000Y-121161928D01*
X64775518Y-121174188D01*
X64655820Y-121210498D01*
X64545506Y-121269463D01*
X64448815Y-121348815D01*
X64369463Y-121445506D01*
X64310498Y-121555820D01*
X64274188Y-121675518D01*
X64261928Y-121800000D01*
X64261928Y-123300000D01*
X64274188Y-123424482D01*
X64310498Y-123544180D01*
X64369463Y-123654494D01*
X64448815Y-123751185D01*
X64545506Y-123830537D01*
X64655820Y-123889502D01*
X64775518Y-123925812D01*
X64900000Y-123938072D01*
X65900000Y-123938072D01*
X66024482Y-123925812D01*
X66144180Y-123889502D01*
X66200000Y-123859665D01*
X66255820Y-123889502D01*
X66375518Y-123925812D01*
X66500000Y-123938072D01*
X67500000Y-123938072D01*
X67624482Y-123925812D01*
X67744180Y-123889502D01*
X67800000Y-123859665D01*
X67855820Y-123889502D01*
X67975518Y-123925812D01*
X68100000Y-123938072D01*
X68392560Y-123938072D01*
X70367129Y-125912641D01*
X70404774Y-126101898D01*
X70461364Y-126238517D01*
X70448815Y-126248815D01*
X70369463Y-126345506D01*
X70310498Y-126455820D01*
X70274188Y-126575518D01*
X70261928Y-126700000D01*
X70261928Y-128200000D01*
X70270227Y-128284261D01*
X69187359Y-129367129D01*
X68998102Y-129404774D01*
X68809744Y-129482795D01*
X68789934Y-129496031D01*
X68751185Y-129448815D01*
X68654494Y-129369463D01*
X68544180Y-129310498D01*
X68424482Y-129274188D01*
X68300000Y-129261928D01*
X66800000Y-129261928D01*
X66675518Y-129274188D01*
X66555820Y-129310498D01*
X66445506Y-129369463D01*
X66348815Y-129448815D01*
X66269463Y-129545506D01*
X66210498Y-129655820D01*
X66174188Y-129775518D01*
X66161928Y-129900000D01*
X66161928Y-130900000D01*
X66174188Y-131024482D01*
X66210498Y-131144180D01*
X66240335Y-131200000D01*
X66210498Y-131255820D01*
X66174188Y-131375518D01*
X66161928Y-131500000D01*
X66161928Y-131573000D01*
X61838072Y-131573000D01*
X61838072Y-131500000D01*
X61825812Y-131375518D01*
X61789502Y-131255820D01*
X61759665Y-131200000D01*
X61789502Y-131144180D01*
X61825812Y-131024482D01*
X61838072Y-130900000D01*
X61835000Y-130685750D01*
X61676250Y-130527000D01*
X60577000Y-130527000D01*
X60577000Y-130547000D01*
X60323000Y-130547000D01*
X60323000Y-130527000D01*
X59223750Y-130527000D01*
X59065000Y-130685750D01*
X59061928Y-130900000D01*
X59071655Y-130998758D01*
X58901939Y-130965000D01*
X58810011Y-130965000D01*
X58810011Y-130114790D01*
X59065984Y-129858817D01*
X59061928Y-129900000D01*
X59065000Y-130114250D01*
X59223750Y-130273000D01*
X60323000Y-130273000D01*
X60323000Y-129423750D01*
X60577000Y-129423750D01*
X60577000Y-130273000D01*
X61676250Y-130273000D01*
X61835000Y-130114250D01*
X61838072Y-129900000D01*
X61825812Y-129775518D01*
X61789502Y-129655820D01*
X61730537Y-129545506D01*
X61651185Y-129448815D01*
X61554494Y-129369463D01*
X61444180Y-129310498D01*
X61324482Y-129274188D01*
X61200000Y-129261928D01*
X60735750Y-129265000D01*
X60577000Y-129423750D01*
X60323000Y-129423750D01*
X60164250Y-129265000D01*
X59700000Y-129261928D01*
X59658818Y-129265984D01*
X59911004Y-129013798D01*
X59940001Y-128990001D01*
X60034974Y-128874276D01*
X60067923Y-128812634D01*
X60144180Y-128789502D01*
X60200000Y-128759665D01*
X60255820Y-128789502D01*
X60375518Y-128825812D01*
X60500000Y-128838072D01*
X61500000Y-128838072D01*
X61624482Y-128825812D01*
X61744180Y-128789502D01*
X61800000Y-128759665D01*
X61855820Y-128789502D01*
X61975518Y-128825812D01*
X62100000Y-128838072D01*
X62314250Y-128835000D01*
X62473000Y-128676250D01*
X62473000Y-127577000D01*
X62727000Y-127577000D01*
X62727000Y-128676250D01*
X62885750Y-128835000D01*
X63100000Y-128838072D01*
X63224482Y-128825812D01*
X63344180Y-128789502D01*
X63454494Y-128730537D01*
X63551185Y-128651185D01*
X63630537Y-128554494D01*
X63689502Y-128444180D01*
X63725812Y-128324482D01*
X63738072Y-128200000D01*
X63735000Y-127735750D01*
X63576250Y-127577000D01*
X62727000Y-127577000D01*
X62473000Y-127577000D01*
X62453000Y-127577000D01*
X62453000Y-127323000D01*
X62473000Y-127323000D01*
X62473000Y-127303000D01*
X62727000Y-127303000D01*
X62727000Y-127323000D01*
X63576250Y-127323000D01*
X63735000Y-127164250D01*
X63738072Y-126700000D01*
X63734132Y-126660000D01*
X64265868Y-126660000D01*
X64261928Y-126700000D01*
X64261928Y-128200000D01*
X64274188Y-128324482D01*
X64310498Y-128444180D01*
X64369463Y-128554494D01*
X64448815Y-128651185D01*
X64545506Y-128730537D01*
X64655820Y-128789502D01*
X64775518Y-128825812D01*
X64900000Y-128838072D01*
X65900000Y-128838072D01*
X66024482Y-128825812D01*
X66144180Y-128789502D01*
X66200000Y-128759665D01*
X66255820Y-128789502D01*
X66375518Y-128825812D01*
X66500000Y-128838072D01*
X67500000Y-128838072D01*
X67624482Y-128825812D01*
X67744180Y-128789502D01*
X67800000Y-128759665D01*
X67855820Y-128789502D01*
X67975518Y-128825812D01*
X68100000Y-128838072D01*
X68314250Y-128835000D01*
X68473000Y-128676250D01*
X68473000Y-127577000D01*
X68727000Y-127577000D01*
X68727000Y-128676250D01*
X68885750Y-128835000D01*
X69100000Y-128838072D01*
X69224482Y-128825812D01*
X69344180Y-128789502D01*
X69454494Y-128730537D01*
X69551185Y-128651185D01*
X69630537Y-128554494D01*
X69689502Y-128444180D01*
X69725812Y-128324482D01*
X69738072Y-128200000D01*
X69735000Y-127735750D01*
X69576250Y-127577000D01*
X68727000Y-127577000D01*
X68473000Y-127577000D01*
X68453000Y-127577000D01*
X68453000Y-127323000D01*
X68473000Y-127323000D01*
X68473000Y-126223750D01*
X68727000Y-126223750D01*
X68727000Y-127323000D01*
X69576250Y-127323000D01*
X69735000Y-127164250D01*
X69738072Y-126700000D01*
X69725812Y-126575518D01*
X69689502Y-126455820D01*
X69630537Y-126345506D01*
X69551185Y-126248815D01*
X69454494Y-126169463D01*
X69344180Y-126110498D01*
X69224482Y-126074188D01*
X69100000Y-126061928D01*
X68885750Y-126065000D01*
X68727000Y-126223750D01*
X68473000Y-126223750D01*
X68314250Y-126065000D01*
X68100000Y-126061928D01*
X67975518Y-126074188D01*
X67855820Y-126110498D01*
X67800000Y-126140335D01*
X67744180Y-126110498D01*
X67636025Y-126077690D01*
X67634974Y-126075723D01*
X67563799Y-125988997D01*
X67540001Y-125959999D01*
X67511004Y-125936202D01*
X66463804Y-124889002D01*
X66440001Y-124859999D01*
X66324276Y-124765026D01*
X66192247Y-124694454D01*
X66048986Y-124650997D01*
X65937333Y-124640000D01*
X65937322Y-124640000D01*
X65900000Y-124636324D01*
X65862678Y-124640000D01*
X63214802Y-124640000D01*
X62512874Y-123938072D01*
X63100000Y-123938072D01*
X63224482Y-123925812D01*
X63344180Y-123889502D01*
X63454494Y-123830537D01*
X63551185Y-123751185D01*
X63630537Y-123654494D01*
X63689502Y-123544180D01*
X63725812Y-123424482D01*
X63738072Y-123300000D01*
X63738072Y-121800000D01*
X63725812Y-121675518D01*
X63689502Y-121555820D01*
X63630537Y-121445506D01*
X63551185Y-121348815D01*
X63454494Y-121269463D01*
X63379527Y-121229392D01*
X63351963Y-121138527D01*
X63304112Y-121049003D01*
X63276749Y-120997810D01*
X63225180Y-120934974D01*
X63175528Y-120874472D01*
X63144619Y-120849106D01*
X62395513Y-120100000D01*
X66161928Y-120100000D01*
X66174188Y-120224482D01*
X66210498Y-120344180D01*
X66269463Y-120454494D01*
X66348815Y-120551185D01*
X66445506Y-120630537D01*
X66555820Y-120689502D01*
X66675518Y-120725812D01*
X66800000Y-120738072D01*
X67264250Y-120735000D01*
X67423000Y-120576250D01*
X67423000Y-119727000D01*
X66323750Y-119727000D01*
X66165000Y-119885750D01*
X66161928Y-120100000D01*
X62395513Y-120100000D01*
X61838072Y-119542560D01*
X61838072Y-119100000D01*
X61825812Y-118975518D01*
X61789502Y-118855820D01*
X61759665Y-118800000D01*
X61789502Y-118744180D01*
X61825812Y-118624482D01*
X61838072Y-118500000D01*
X61838072Y-118427000D01*
X66161928Y-118427000D01*
X66161928Y-118500000D01*
X66161928Y-118500000D01*
G37*
X66161928Y-118500000D02*
X66174188Y-118624482D01*
X66210498Y-118744180D01*
X66240335Y-118800000D01*
X66210498Y-118855820D01*
X66174188Y-118975518D01*
X66161928Y-119100000D01*
X66165000Y-119314250D01*
X66323750Y-119473000D01*
X67423000Y-119473000D01*
X67423000Y-119453000D01*
X67677000Y-119453000D01*
X67677000Y-119473000D01*
X68776250Y-119473000D01*
X68935000Y-119314250D01*
X68938072Y-119100000D01*
X68928345Y-119001242D01*
X69098061Y-119035000D01*
X69301939Y-119035000D01*
X69501898Y-118995226D01*
X69690256Y-118917205D01*
X69859774Y-118803937D01*
X69890000Y-118773711D01*
X69890000Y-118949300D01*
X69782795Y-119109744D01*
X69704774Y-119298102D01*
X69667129Y-119487358D01*
X68923986Y-120230502D01*
X68925812Y-120224482D01*
X68938072Y-120100000D01*
X68935000Y-119885750D01*
X68776250Y-119727000D01*
X67677000Y-119727000D01*
X67677000Y-120576250D01*
X67835750Y-120735000D01*
X68300000Y-120738072D01*
X68424482Y-120725812D01*
X68430502Y-120723986D01*
X68055383Y-121099105D01*
X68024473Y-121124472D01*
X67984389Y-121173314D01*
X67975518Y-121174188D01*
X67855820Y-121210498D01*
X67800000Y-121240335D01*
X67744180Y-121210498D01*
X67624482Y-121174188D01*
X67500000Y-121161928D01*
X66500000Y-121161928D01*
X66375518Y-121174188D01*
X66255820Y-121210498D01*
X66200000Y-121240335D01*
X66144180Y-121210498D01*
X66024482Y-121174188D01*
X65900000Y-121161928D01*
X64900000Y-121161928D01*
X64775518Y-121174188D01*
X64655820Y-121210498D01*
X64545506Y-121269463D01*
X64448815Y-121348815D01*
X64369463Y-121445506D01*
X64310498Y-121555820D01*
X64274188Y-121675518D01*
X64261928Y-121800000D01*
X64261928Y-123300000D01*
X64274188Y-123424482D01*
X64310498Y-123544180D01*
X64369463Y-123654494D01*
X64448815Y-123751185D01*
X64545506Y-123830537D01*
X64655820Y-123889502D01*
X64775518Y-123925812D01*
X64900000Y-123938072D01*
X65900000Y-123938072D01*
X66024482Y-123925812D01*
X66144180Y-123889502D01*
X66200000Y-123859665D01*
X66255820Y-123889502D01*
X66375518Y-123925812D01*
X66500000Y-123938072D01*
X67500000Y-123938072D01*
X67624482Y-123925812D01*
X67744180Y-123889502D01*
X67800000Y-123859665D01*
X67855820Y-123889502D01*
X67975518Y-123925812D01*
X68100000Y-123938072D01*
X68392560Y-123938072D01*
X70367129Y-125912641D01*
X70404774Y-126101898D01*
X70461364Y-126238517D01*
X70448815Y-126248815D01*
X70369463Y-126345506D01*
X70310498Y-126455820D01*
X70274188Y-126575518D01*
X70261928Y-126700000D01*
X70261928Y-128200000D01*
X70270227Y-128284261D01*
X69187359Y-129367129D01*
X68998102Y-129404774D01*
X68809744Y-129482795D01*
X68789934Y-129496031D01*
X68751185Y-129448815D01*
X68654494Y-129369463D01*
X68544180Y-129310498D01*
X68424482Y-129274188D01*
X68300000Y-129261928D01*
X66800000Y-129261928D01*
X66675518Y-129274188D01*
X66555820Y-129310498D01*
X66445506Y-129369463D01*
X66348815Y-129448815D01*
X66269463Y-129545506D01*
X66210498Y-129655820D01*
X66174188Y-129775518D01*
X66161928Y-129900000D01*
X66161928Y-130900000D01*
X66174188Y-131024482D01*
X66210498Y-131144180D01*
X66240335Y-131200000D01*
X66210498Y-131255820D01*
X66174188Y-131375518D01*
X66161928Y-131500000D01*
X66161928Y-131573000D01*
X61838072Y-131573000D01*
X61838072Y-131500000D01*
X61825812Y-131375518D01*
X61789502Y-131255820D01*
X61759665Y-131200000D01*
X61789502Y-131144180D01*
X61825812Y-131024482D01*
X61838072Y-130900000D01*
X61835000Y-130685750D01*
X61676250Y-130527000D01*
X60577000Y-130527000D01*
X60577000Y-130547000D01*
X60323000Y-130547000D01*
X60323000Y-130527000D01*
X59223750Y-130527000D01*
X59065000Y-130685750D01*
X59061928Y-130900000D01*
X59071655Y-130998758D01*
X58901939Y-130965000D01*
X58810011Y-130965000D01*
X58810011Y-130114790D01*
X59065984Y-129858817D01*
X59061928Y-129900000D01*
X59065000Y-130114250D01*
X59223750Y-130273000D01*
X60323000Y-130273000D01*
X60323000Y-129423750D01*
X60577000Y-129423750D01*
X60577000Y-130273000D01*
X61676250Y-130273000D01*
X61835000Y-130114250D01*
X61838072Y-129900000D01*
X61825812Y-129775518D01*
X61789502Y-129655820D01*
X61730537Y-129545506D01*
X61651185Y-129448815D01*
X61554494Y-129369463D01*
X61444180Y-129310498D01*
X61324482Y-129274188D01*
X61200000Y-129261928D01*
X60735750Y-129265000D01*
X60577000Y-129423750D01*
X60323000Y-129423750D01*
X60164250Y-129265000D01*
X59700000Y-129261928D01*
X59658818Y-129265984D01*
X59911004Y-129013798D01*
X59940001Y-128990001D01*
X60034974Y-128874276D01*
X60067923Y-128812634D01*
X60144180Y-128789502D01*
X60200000Y-128759665D01*
X60255820Y-128789502D01*
X60375518Y-128825812D01*
X60500000Y-128838072D01*
X61500000Y-128838072D01*
X61624482Y-128825812D01*
X61744180Y-128789502D01*
X61800000Y-128759665D01*
X61855820Y-128789502D01*
X61975518Y-128825812D01*
X62100000Y-128838072D01*
X62314250Y-128835000D01*
X62473000Y-128676250D01*
X62473000Y-127577000D01*
X62727000Y-127577000D01*
X62727000Y-128676250D01*
X62885750Y-128835000D01*
X63100000Y-128838072D01*
X63224482Y-128825812D01*
X63344180Y-128789502D01*
X63454494Y-128730537D01*
X63551185Y-128651185D01*
X63630537Y-128554494D01*
X63689502Y-128444180D01*
X63725812Y-128324482D01*
X63738072Y-128200000D01*
X63735000Y-127735750D01*
X63576250Y-127577000D01*
X62727000Y-127577000D01*
X62473000Y-127577000D01*
X62453000Y-127577000D01*
X62453000Y-127323000D01*
X62473000Y-127323000D01*
X62473000Y-127303000D01*
X62727000Y-127303000D01*
X62727000Y-127323000D01*
X63576250Y-127323000D01*
X63735000Y-127164250D01*
X63738072Y-126700000D01*
X63734132Y-126660000D01*
X64265868Y-126660000D01*
X64261928Y-126700000D01*
X64261928Y-128200000D01*
X64274188Y-128324482D01*
X64310498Y-128444180D01*
X64369463Y-128554494D01*
X64448815Y-128651185D01*
X64545506Y-128730537D01*
X64655820Y-128789502D01*
X64775518Y-128825812D01*
X64900000Y-128838072D01*
X65900000Y-128838072D01*
X66024482Y-128825812D01*
X66144180Y-128789502D01*
X66200000Y-128759665D01*
X66255820Y-128789502D01*
X66375518Y-128825812D01*
X66500000Y-128838072D01*
X67500000Y-128838072D01*
X67624482Y-128825812D01*
X67744180Y-128789502D01*
X67800000Y-128759665D01*
X67855820Y-128789502D01*
X67975518Y-128825812D01*
X68100000Y-128838072D01*
X68314250Y-128835000D01*
X68473000Y-128676250D01*
X68473000Y-127577000D01*
X68727000Y-127577000D01*
X68727000Y-128676250D01*
X68885750Y-128835000D01*
X69100000Y-128838072D01*
X69224482Y-128825812D01*
X69344180Y-128789502D01*
X69454494Y-128730537D01*
X69551185Y-128651185D01*
X69630537Y-128554494D01*
X69689502Y-128444180D01*
X69725812Y-128324482D01*
X69738072Y-128200000D01*
X69735000Y-127735750D01*
X69576250Y-127577000D01*
X68727000Y-127577000D01*
X68473000Y-127577000D01*
X68453000Y-127577000D01*
X68453000Y-127323000D01*
X68473000Y-127323000D01*
X68473000Y-126223750D01*
X68727000Y-126223750D01*
X68727000Y-127323000D01*
X69576250Y-127323000D01*
X69735000Y-127164250D01*
X69738072Y-126700000D01*
X69725812Y-126575518D01*
X69689502Y-126455820D01*
X69630537Y-126345506D01*
X69551185Y-126248815D01*
X69454494Y-126169463D01*
X69344180Y-126110498D01*
X69224482Y-126074188D01*
X69100000Y-126061928D01*
X68885750Y-126065000D01*
X68727000Y-126223750D01*
X68473000Y-126223750D01*
X68314250Y-126065000D01*
X68100000Y-126061928D01*
X67975518Y-126074188D01*
X67855820Y-126110498D01*
X67800000Y-126140335D01*
X67744180Y-126110498D01*
X67636025Y-126077690D01*
X67634974Y-126075723D01*
X67563799Y-125988997D01*
X67540001Y-125959999D01*
X67511004Y-125936202D01*
X66463804Y-124889002D01*
X66440001Y-124859999D01*
X66324276Y-124765026D01*
X66192247Y-124694454D01*
X66048986Y-124650997D01*
X65937333Y-124640000D01*
X65937322Y-124640000D01*
X65900000Y-124636324D01*
X65862678Y-124640000D01*
X63214802Y-124640000D01*
X62512874Y-123938072D01*
X63100000Y-123938072D01*
X63224482Y-123925812D01*
X63344180Y-123889502D01*
X63454494Y-123830537D01*
X63551185Y-123751185D01*
X63630537Y-123654494D01*
X63689502Y-123544180D01*
X63725812Y-123424482D01*
X63738072Y-123300000D01*
X63738072Y-121800000D01*
X63725812Y-121675518D01*
X63689502Y-121555820D01*
X63630537Y-121445506D01*
X63551185Y-121348815D01*
X63454494Y-121269463D01*
X63379527Y-121229392D01*
X63351963Y-121138527D01*
X63304112Y-121049003D01*
X63276749Y-120997810D01*
X63225180Y-120934974D01*
X63175528Y-120874472D01*
X63144619Y-120849106D01*
X62395513Y-120100000D01*
X66161928Y-120100000D01*
X66174188Y-120224482D01*
X66210498Y-120344180D01*
X66269463Y-120454494D01*
X66348815Y-120551185D01*
X66445506Y-120630537D01*
X66555820Y-120689502D01*
X66675518Y-120725812D01*
X66800000Y-120738072D01*
X67264250Y-120735000D01*
X67423000Y-120576250D01*
X67423000Y-119727000D01*
X66323750Y-119727000D01*
X66165000Y-119885750D01*
X66161928Y-120100000D01*
X62395513Y-120100000D01*
X61838072Y-119542560D01*
X61838072Y-119100000D01*
X61825812Y-118975518D01*
X61789502Y-118855820D01*
X61759665Y-118800000D01*
X61789502Y-118744180D01*
X61825812Y-118624482D01*
X61838072Y-118500000D01*
X61838072Y-118427000D01*
X66161928Y-118427000D01*
X66161928Y-118500000D01*
G36*
X72577000Y-130273000D02*
G01*
X72597000Y-130273000D01*
X72597000Y-130527000D01*
X72577000Y-130527000D01*
X72577000Y-130547000D01*
X72323000Y-130547000D01*
X72323000Y-130527000D01*
X72303000Y-130527000D01*
X72303000Y-130273000D01*
X72323000Y-130273000D01*
X72323000Y-130253000D01*
X72577000Y-130253000D01*
X72577000Y-130273000D01*
X72577000Y-130273000D01*
G37*
X72577000Y-130273000D02*
X72597000Y-130273000D01*
X72597000Y-130527000D01*
X72577000Y-130527000D01*
X72577000Y-130547000D01*
X72323000Y-130547000D01*
X72323000Y-130527000D01*
X72303000Y-130527000D01*
X72303000Y-130273000D01*
X72323000Y-130273000D01*
X72323000Y-130253000D01*
X72577000Y-130253000D01*
X72577000Y-130273000D01*
G36*
X73122360Y-128905546D02*
G01*
X73094454Y-128957754D01*
X73050997Y-129101015D01*
X73040000Y-129212668D01*
X73040000Y-129212678D01*
X73036324Y-129250000D01*
X73037605Y-129263003D01*
X72735750Y-129265000D01*
X72577002Y-129423748D01*
X72577002Y-129265000D01*
X72509801Y-129265000D01*
X72936730Y-128838072D01*
X73158426Y-128838072D01*
X73122360Y-128905546D01*
X73122360Y-128905546D01*
G37*
X73122360Y-128905546D02*
X73094454Y-128957754D01*
X73050997Y-129101015D01*
X73040000Y-129212668D01*
X73040000Y-129212678D01*
X73036324Y-129250000D01*
X73037605Y-129263003D01*
X72735750Y-129265000D01*
X72577002Y-129423748D01*
X72577002Y-129265000D01*
X72509801Y-129265000D01*
X72936730Y-128838072D01*
X73158426Y-128838072D01*
X73122360Y-128905546D01*
G36*
X56955387Y-119200899D02*
G01*
X57329487Y-119575000D01*
X56936184Y-119968304D01*
X56935000Y-119885750D01*
X56776250Y-119727000D01*
X55677000Y-119727000D01*
X55677000Y-120576250D01*
X55835750Y-120735000D01*
X56167294Y-120737194D01*
X56055383Y-120849105D01*
X56024473Y-120874472D01*
X55978852Y-120930061D01*
X55923251Y-120997811D01*
X55854881Y-121125724D01*
X55848038Y-121138527D01*
X55820474Y-121229391D01*
X55800000Y-121240335D01*
X55744180Y-121210498D01*
X55636025Y-121177689D01*
X55634974Y-121175724D01*
X55540001Y-121059999D01*
X55511002Y-121036201D01*
X55210160Y-120735358D01*
X55264250Y-120735000D01*
X55423000Y-120576250D01*
X55423000Y-119727000D01*
X55403000Y-119727000D01*
X55403000Y-119473000D01*
X55423000Y-119473000D01*
X55423000Y-119453000D01*
X55677000Y-119453000D01*
X55677000Y-119473000D01*
X56776250Y-119473000D01*
X56935000Y-119314250D01*
X56936843Y-119185681D01*
X56955387Y-119200899D01*
X56955387Y-119200899D01*
G37*
X56955387Y-119200899D02*
X57329487Y-119575000D01*
X56936184Y-119968304D01*
X56935000Y-119885750D01*
X56776250Y-119727000D01*
X55677000Y-119727000D01*
X55677000Y-120576250D01*
X55835750Y-120735000D01*
X56167294Y-120737194D01*
X56055383Y-120849105D01*
X56024473Y-120874472D01*
X55978852Y-120930061D01*
X55923251Y-120997811D01*
X55854881Y-121125724D01*
X55848038Y-121138527D01*
X55820474Y-121229391D01*
X55800000Y-121240335D01*
X55744180Y-121210498D01*
X55636025Y-121177689D01*
X55634974Y-121175724D01*
X55540001Y-121059999D01*
X55511002Y-121036201D01*
X55210160Y-120735358D01*
X55264250Y-120735000D01*
X55423000Y-120576250D01*
X55423000Y-119727000D01*
X55403000Y-119727000D01*
X55403000Y-119473000D01*
X55423000Y-119473000D01*
X55423000Y-119453000D01*
X55677000Y-119453000D01*
X55677000Y-119473000D01*
X56776250Y-119473000D01*
X56935000Y-119314250D01*
X56936843Y-119185681D01*
X56955387Y-119200899D01*
G36*
X55423750Y-108423000D02*
G01*
X56273000Y-108423000D01*
X56273000Y-108403000D01*
X56527000Y-108403000D01*
X56527000Y-108423000D01*
X56547000Y-108423000D01*
X56547000Y-108677000D01*
X56527000Y-108677000D01*
X56527000Y-109776250D01*
X56587974Y-109837224D01*
X56185199Y-110240000D01*
X53637322Y-110240000D01*
X53599999Y-110236324D01*
X53562676Y-110240000D01*
X53562667Y-110240000D01*
X53451014Y-110250997D01*
X53307753Y-110294454D01*
X53248877Y-110325924D01*
X54274801Y-109300000D01*
X55261928Y-109300000D01*
X55274188Y-109424482D01*
X55310498Y-109544180D01*
X55369463Y-109654494D01*
X55448815Y-109751185D01*
X55545506Y-109830537D01*
X55655820Y-109889502D01*
X55775518Y-109925812D01*
X55900000Y-109938072D01*
X56114250Y-109935000D01*
X56273000Y-109776250D01*
X56273000Y-108677000D01*
X55423750Y-108677000D01*
X55265000Y-108835750D01*
X55261928Y-109300000D01*
X54274801Y-109300000D01*
X55287776Y-108287026D01*
X55423750Y-108423000D01*
X55423750Y-108423000D01*
G37*
X55423750Y-108423000D02*
X56273000Y-108423000D01*
X56273000Y-108403000D01*
X56527000Y-108403000D01*
X56527000Y-108423000D01*
X56547000Y-108423000D01*
X56547000Y-108677000D01*
X56527000Y-108677000D01*
X56527000Y-109776250D01*
X56587974Y-109837224D01*
X56185199Y-110240000D01*
X53637322Y-110240000D01*
X53599999Y-110236324D01*
X53562676Y-110240000D01*
X53562667Y-110240000D01*
X53451014Y-110250997D01*
X53307753Y-110294454D01*
X53248877Y-110325924D01*
X54274801Y-109300000D01*
X55261928Y-109300000D01*
X55274188Y-109424482D01*
X55310498Y-109544180D01*
X55369463Y-109654494D01*
X55448815Y-109751185D01*
X55545506Y-109830537D01*
X55655820Y-109889502D01*
X55775518Y-109925812D01*
X55900000Y-109938072D01*
X56114250Y-109935000D01*
X56273000Y-109776250D01*
X56273000Y-108677000D01*
X55423750Y-108677000D01*
X55265000Y-108835750D01*
X55261928Y-109300000D01*
X54274801Y-109300000D01*
X55287776Y-108287026D01*
X55423750Y-108423000D01*
G36*
X68587974Y-107262776D02*
G01*
X68527000Y-107323750D01*
X68527000Y-108423000D01*
X68547000Y-108423000D01*
X68547000Y-108677000D01*
X68527000Y-108677000D01*
X68527000Y-108697000D01*
X68273000Y-108697000D01*
X68273000Y-108677000D01*
X67423750Y-108677000D01*
X67265000Y-108835750D01*
X67262325Y-109240000D01*
X66627429Y-109240000D01*
X66635000Y-109201939D01*
X66635000Y-108998061D01*
X66595226Y-108798102D01*
X66567538Y-108731258D01*
X66630537Y-108654494D01*
X66689502Y-108544180D01*
X66725812Y-108424482D01*
X66738072Y-108300000D01*
X66738072Y-107800000D01*
X67261928Y-107800000D01*
X67265000Y-108264250D01*
X67423750Y-108423000D01*
X68273000Y-108423000D01*
X68273000Y-107323750D01*
X68114250Y-107165000D01*
X67900000Y-107161928D01*
X67775518Y-107174188D01*
X67655820Y-107210498D01*
X67545506Y-107269463D01*
X67448815Y-107348815D01*
X67369463Y-107445506D01*
X67310498Y-107555820D01*
X67274188Y-107675518D01*
X67261928Y-107800000D01*
X66738072Y-107800000D01*
X66738072Y-106800000D01*
X66734132Y-106760000D01*
X68085199Y-106760000D01*
X68587974Y-107262776D01*
X68587974Y-107262776D01*
G37*
X68587974Y-107262776D02*
X68527000Y-107323750D01*
X68527000Y-108423000D01*
X68547000Y-108423000D01*
X68547000Y-108677000D01*
X68527000Y-108677000D01*
X68527000Y-108697000D01*
X68273000Y-108697000D01*
X68273000Y-108677000D01*
X67423750Y-108677000D01*
X67265000Y-108835750D01*
X67262325Y-109240000D01*
X66627429Y-109240000D01*
X66635000Y-109201939D01*
X66635000Y-108998061D01*
X66595226Y-108798102D01*
X66567538Y-108731258D01*
X66630537Y-108654494D01*
X66689502Y-108544180D01*
X66725812Y-108424482D01*
X66738072Y-108300000D01*
X66738072Y-107800000D01*
X67261928Y-107800000D01*
X67265000Y-108264250D01*
X67423750Y-108423000D01*
X68273000Y-108423000D01*
X68273000Y-107323750D01*
X68114250Y-107165000D01*
X67900000Y-107161928D01*
X67775518Y-107174188D01*
X67655820Y-107210498D01*
X67545506Y-107269463D01*
X67448815Y-107348815D01*
X67369463Y-107445506D01*
X67310498Y-107555820D01*
X67274188Y-107675518D01*
X67261928Y-107800000D01*
X66738072Y-107800000D01*
X66738072Y-106800000D01*
X66734132Y-106760000D01*
X68085199Y-106760000D01*
X68587974Y-107262776D01*
M02*
