M48
; DRILL file {KiCad 5.1.4} date di 19 nov 2019 13:40:21 CET
; FORMAT={-:-/ absolute / metric / decimal}
; #@! TF.CreationDate,2019-11-19T13:40:21+01:00
; #@! TF.GenerationSoftware,Kicad,Pcbnew,5.1.4
; #@! TF.FileFunction,Plated,1,2,PTH
FMAT,2
METRIC
T1C0.400
T2C0.950
T3C1.000
T4C1.016
%
G90
G05
T1
X52.3Y-107.6
X52.6Y-120.9
X53.95Y-130.55
X54.5Y-109.8
X55.6Y-120.9
X58.5Y-119.6
X58.8Y-116.4
X58.8Y-132.0
X58.8Y-133.6
X58.823Y-117.977
X60.15Y-138.65
X65.5Y-120.4
X65.6Y-109.1
X67.7Y-106.8
X68.6Y-125.9
X69.0Y-104.9
X69.2Y-116.4
X69.2Y-118.0
X69.2Y-132.0
X69.2Y-133.6
X69.3Y-130.4
X70.7Y-119.6
X71.4Y-124.2
X71.4Y-125.8
X73.0Y-129.0
X75.4Y-117.8
X75.4Y-129.0
T2
X37.7Y-108.9
X40.2Y-108.9
X42.7Y-108.9
X45.2Y-108.9
T3
X21.94Y-110.0
X24.48Y-110.0
X27.02Y-110.0
X29.56Y-110.0
X32.1Y-110.0
T4
X23.15Y-113.66
X25.69Y-113.66
X28.23Y-113.66
X30.77Y-113.66
X33.31Y-113.66
X35.85Y-113.66
X37.12Y-128.9
X37.12Y-131.44
X37.12Y-133.98
X37.12Y-136.52
X37.12Y-139.06
X37.12Y-141.6
T0
M30
